<svg width="1440" height="912" viewBox="0 0 1440 912" fill="none" xmlns="http://www.w3.org/2000/svg">
<g opacity="0.5">
<path d="M1598.98 177.972L1599.01 183.531H1601.94L1599.96 360.448L1601.94 728.913H1595.85L1595.79 734.471L1438.01 900.525L1246.97 857.199L1046.59 841.421L979.731 866.75L805.893 845.643L809.176 826.592L718.972 835.089L632.053 824.534L547.795 849.011L463.538 845.942L379.281 856.646L269.373 846.502L295.024 867.349L-105.334 813.277L-147.511 908.969V734.471L-147.541 728.913H-150.465L-148.491 552.018L-150.466 183.531H-144.375L-144.314 177.972L13.4648 11.9183L204.497 55.2447L404.879 71.0223L471.741 45.6913L645.581 66.8005L642.296 85.8517L732.5 77.3542L819.42 87.9097L903.677 63.4311L987.934 66.5012L1072.19 55.7978L1182.1 65.9413L1156.45 45.0944L1556.81 99.1662L1598.98 3.47461V177.972Z" fill="#00033E"/>
<path d="M1606.42 23.7999C1606.43 17.2389 1606.43 10.4389 1606.42 3.47461L1592.18 0.475527C1578.56 31.4573 1563.5 66.0435 1550.12 96.2176L1557.78 91.9212C1553.27 91.3001 1548.84 90.6864 1544.52 90.082C1543.94 89.9995 1543.35 89.9171 1542.76 89.8347C1525.6 87.4317 1508.12 84.9474 1486.97 81.9418C1484.28 81.559 1481.52 81.1663 1478.7 80.7656C1453.63 77.2034 1422.83 72.8327 1380.86 66.9291C1289.86 54.1291 1211.23 43.5472 1157.62 36.4411L1126.86 32.2436L1150.94 51.8705C1160.58 59.6647 1169.19 66.6181 1176.66 72.6385L1182.89 57.3477C1169.58 56.1683 1159.12 55.2526 1151.95 54.624C1126.59 52.402 1100.62 50.0813 1072.95 47.5776L1071.15 47.6085C1044.91 50.989 1017.14 54.5402 986.904 58.3932L988.232 58.3335C962.73 57.4143 935.49 56.4242 905.964 55.351C905.302 55.3269 904.639 55.3028 903.974 55.2786L901.401 55.5971C893.061 58.021 884.527 60.4997 875.794 63.038C868.177 65.252 861.797 66.8315 861.532 66.5689C861.27 66.305 867.228 64.2979 874.847 62.0833C883.809 59.4786 892.549 56.9384 901.072 54.4616L904.017 54.0969C904.259 54.1057 904.501 54.1145 904.743 54.1233C904.784 54.1248 904.826 54.1263 904.867 54.1278C935.009 55.2233 962.601 56.2262 988.275 57.1514L986.755 57.2197C1017.2 53.3395 1044.93 49.7937 1071 46.4334L1073.06 46.398C1099.46 48.7857 1124.17 50.9929 1148.3 53.107C1156.17 53.7964 1167.91 54.8252 1183 56.1637L1175.91 73.5612C1168.37 67.4776 1159.76 60.5264 1150.19 52.7906L1122.84 30.4987L1157.78 35.2661C1212.62 42.5404 1292.27 53.2667 1384.25 66.2046C1426.66 72.1711 1457.81 76.5893 1483.03 80.1731C1485.79 80.5655 1488.48 80.9483 1491.1 81.3201C1491.16 81.3289 1491.22 81.3377 1491.28 81.3465C1512.57 84.3717 1529.31 86.752 1545.73 89.0517C1546.08 89.1004 1546.43 89.149 1546.78 89.1976C1550.44 89.7099 1554.16 90.2273 1557.94 90.7486L1549.03 95.7403C1562.6 65.1996 1577.63 30.6609 1591.1 -7.86781e-05L1607.6 3.47461C1607.61 10.5601 1607.61 17.4585 1607.6 24.0902C1607.59 32.0236 1607.32 38.3961 1606.99 38.315C1606.67 38.2295 1606.41 31.7292 1606.42 23.7999ZM-56.8755 823.412C-15.8175 828.521 38.7176 835.934 86.8518 842.63C135.321 849.372 179.164 855.645 199.792 858.647C219.956 861.582 242.382 864.679 269.145 868.336C275.282 869.174 281.648 870.042 288.232 870.94C290.274 871.219 292.339 871.5 294.425 871.785L310.191 873.936L297.847 863.875C289.721 857.254 281.178 850.291 272.229 842.987L268.957 851.012C279.736 852.029 290.979 853.096 302.677 854.216C330.733 856.904 355.995 859.307 378.836 861.466L379.891 861.448C412.606 857.366 440.329 853.876 464.162 850.858L463.357 850.894C481.013 851.544 496.55 852.104 510.41 852.599C519.835 852.936 528.604 853.247 536.811 853.538C536.825 853.538 536.839 853.539 536.853 853.539C540.549 853.67 544.133 853.797 547.616 853.921L549.165 853.729C573.858 846.531 593.23 840.901 611.251 835.789C618.92 833.613 626.293 831.523 633.491 829.484L631.431 829.651C659.25 833.219 684.51 836.489 713.709 840.365C715.207 840.564 716.724 840.764 718.258 840.966L719.527 840.984C746.401 838.727 778.588 835.803 809.766 832.852L802.979 825.524C801.877 831.936 800.788 838.307 799.72 844.579L798.582 851.04L805.138 851.861C826.091 854.36 845.955 856.673 862.665 858.563C865.266 858.857 867.927 859.157 870.619 859.461C898.932 862.661 932.643 866.47 979.109 871.872L981.559 871.575C990.879 867.989 1000.75 864.198 1011.23 860.177C1024.01 855.277 1036.36 850.553 1048.33 845.991L1046.21 846.293C1082.92 849.102 1116.1 851.736 1146.36 854.165C1158.05 855.103 1169.2 856.003 1179.91 856.866C1204.06 858.813 1225.94 860.577 1246.58 862.192L1245.87 862.083C1248.27 862.628 1250.66 863.168 1253.04 863.703C1331.38 881.375 1390.91 894.905 1436.89 905.438L1439.67 906.077L1441.66 903.995C1466.58 877.88 1485.93 857.681 1501.38 841.632C1528.77 813.157 1544.21 797.375 1555.34 785.99C1558.71 782.549 1561.68 779.511 1564.47 776.644C1576.83 763.953 1588.65 751.744 1600.76 739.192L1602.6 737.265L1602.64 734.547C1602.67 732.7 1602.71 730.848 1602.74 728.989L1595.85 735.807C1597.87 735.822 1599.9 735.836 1601.94 735.85L1608.89 735.876L1608.88 728.875C1608.9 714.831 1608.91 700.34 1608.92 684.818C1608.92 676.072 1608.93 666.973 1608.94 657.467C1608.96 625.671 1608.8 601.978 1608.62 583.399C1608.54 575.272 1608.45 568.121 1608.38 561.378C1608.37 561.254 1608.37 561.129 1608.37 561.005C1608.36 560.065 1608.35 559.132 1608.34 558.206C1608.33 557.507 1608.32 556.81 1608.31 556.111C1608.3 555.837 1608.3 555.59 1608.3 555.406C1608.29 555.261 1608.29 555.148 1608.29 555.075C1608.29 555.061 1608.29 555.047 1608.29 555.033C1608.26 553.71 1608.24 552.571 1608.24 552.338C1608.23 551.93 1608.23 551.569 1608.23 551.384C1608.22 550.408 1608.21 549.151 1608.2 548.315C1608.18 546.167 1608.16 542.434 1608.12 536.662C1608.08 531.637 1608.02 526.815 1607.95 520.779C1607.95 520.399 1607.95 520.018 1607.94 519.638C1607.87 513.752 1607.8 506.863 1607.71 498.219C1607.63 490.354 1607.82 483.119 1608.14 482.063C1608.46 481.01 1608.78 486.533 1608.86 494.397C1608.94 502.541 1609.02 508.993 1609.09 514.884C1609.09 515.257 1609.09 515.63 1609.1 516.003C1609.17 522.144 1609.24 527.962 1609.29 534.229C1609.31 536.328 1609.32 538.491 1609.34 540.512C1609.37 544.15 1609.42 548.29 1609.48 553.243C1609.49 554.238 1609.5 555.263 1609.51 556.312C1609.59 563.043 1609.69 570.881 1609.77 579.722C1609.98 600.414 1610.15 626.631 1610.12 661.234C1610.12 670.308 1610.11 679.104 1610.11 687.694C1610.1 701.871 1610.09 715.488 1610.07 728.869L1610.08 737.075L1601.94 737.045C1599.9 737.031 1597.87 737.017 1595.85 737.003L1603.94 729.002C1603.9 730.858 1603.87 732.711 1603.84 734.56L1603.79 737.753L1601.62 740.016C1587.81 754.337 1574.2 768.407 1560.01 782.986C1556.38 786.71 1552.9 790.273 1549.17 794.084C1538.13 805.378 1524.94 818.863 1499.61 845.188C1485.03 860.338 1466.55 879.626 1442.52 904.809L1440.05 907.38L1436.63 906.59C1391.57 896.267 1332.57 882.855 1254.13 865.162C1251.32 864.527 1248.47 863.885 1245.61 863.236L1246.49 863.37C1225.05 861.691 1202.18 859.846 1178 857.897C1167.51 857.051 1156.75 856.185 1145.78 855.304C1115.4 852.867 1082.47 850.253 1046.12 847.475L1048.75 847.1C1037.78 851.282 1026.49 855.599 1014.85 860.065C1003.13 864.558 992.214 868.754 981.982 872.692L978.965 873.058C935.686 868.033 903.923 864.443 876.593 861.354C875.412 861.221 874.23 861.088 873.049 860.954C871.582 860.789 870.125 860.624 868.681 860.461C850.258 858.378 828.253 855.815 804.995 853.036L797.2 852.061L798.553 844.378C799.622 838.102 800.712 831.735 801.814 825.323L809.876 834.029C779.193 836.931 747.456 839.82 719.641 842.186L718.113 842.166C714.196 841.654 710.359 841.149 706.614 840.652C680.093 837.132 656.954 834.131 631.287 830.836L633.824 830.631C625.523 832.981 616.95 835.411 607.893 837.98C591.669 842.582 574.467 847.586 549.495 854.866L547.573 855.104C545.025 855.013 542.4 854.92 539.69 854.824C531.168 854.522 521.799 854.189 511.404 853.817C497.23 853.311 481.349 852.738 463.314 852.074L464.311 852.029C440.392 855.059 412.654 858.551 380.04 862.621L378.727 862.644C355.345 860.434 329.468 857.973 300.711 855.218C289.643 854.158 279.05 853.152 268.848 852.189L272.975 842.07C281.862 849.323 290.373 856.26 298.592 862.958L314.197 875.676L294.266 872.956C292.243 872.68 290.234 872.406 288.238 872.134C281.521 871.218 274.929 870.319 268.473 869.437C241.581 865.763 216.555 862.314 193.248 858.921C174.09 856.133 131.659 850.059 84.5161 843.502C37.0349 836.897 -13.3964 830.057 -49.4873 825.566C-53.24 825.099 -57.025 824.628 -60.8052 824.157C-75.9862 822.266 -91.3054 820.358 -106.047 818.552L-100.464 815.424C-107.127 831.063 -113.452 846.012 -118.969 859.289C-125.425 875.211 -132.773 892.907 -140.796 911.929L-154.85 908.969C-155.673 857.48 -155.977 796.747 -156.038 734.471L-156.038 734.517C-156.05 732.665 -156.061 730.812 -156.072 728.958L-147.541 737.444C-148.515 737.445 -149.49 737.446 -150.465 737.446L-159.125 737.414L-158.998 728.817C-158.364 668.66 -157.504 607.396 -156.74 551.925L-156.74 552.062C-156.804 528.619 -156.869 506.211 -156.949 485.358C-156.956 483.464 -156.964 481.571 -156.971 479.677C-157.488 345.368 -158.031 240.669 -158.344 183.573L-158.357 175.624L-150.466 175.653C-148.371 175.653 -146.341 175.652 -144.375 175.652L-152.253 183.443C-152.232 181.529 -152.212 179.675 -152.193 177.885L-152.146 174.76L-150.026 172.545C-144.263 166.477 -139.44 161.398 -135.613 157.369C-134.289 155.975 -133.084 154.706 -132.001 153.565C-131.033 152.547 -130.159 151.625 -129.388 150.813C-117.819 138.633 -107.611 127.829 -96.9154 116.509C-96.3316 115.891 -95.7477 115.273 -95.1639 114.655C-83.8619 102.693 -71.998 90.1411 -57.9339 75.3451C-34.2137 50.3904 -12.4917 27.5183 7.60234 6.34799L10.8022 3.00499L15.2535 4.03177C49.5519 11.7917 80.5193 18.7841 109.059 25.2249C118.728 27.4072 128.13 29.5296 137.296 31.5978C137.323 31.6039 137.35 31.61 137.377 31.6161C161.835 37.1348 184.615 42.2745 206.326 47.1818L205.146 47.0025C219.451 48.1183 233.303 49.2025 246.868 50.2705C309.977 55.239 352.612 58.521 385.775 61.0514C392.7 61.5798 399.263 62.0795 405.546 62.5573L401.871 63.0819C404.825 61.9537 407.713 60.8505 410.545 59.7689C428.867 52.7703 444.87 46.6574 461.385 40.383C463.832 39.4535 466.263 38.5296 468.679 37.6109L472.782 37.1134C502.806 40.7236 530.75 44.0416 558.307 47.3146C560.973 47.6313 563.636 47.9482 566.296 48.2642C592.904 51.4248 619.299 54.5639 646.666 57.8644L656.088 59.0436L654.451 68.3298C653.432 74.2716 652.403 80.2594 651.361 86.3055C651.298 86.6675 651.236 87.0266 651.173 87.3822L641.451 76.8831C648.858 76.2081 654.847 75.9008 655.035 76.1957C655.22 76.4991 649.225 77.3254 641.562 78.0584L650.01 87.1816C650.038 87.0208 650.065 86.8594 650.093 86.6972C651.169 80.4548 652.232 74.2716 653.286 68.1288L654.707 60.0631L646.523 59.0388C620.272 55.874 594.755 52.8389 568.521 49.7226C565.847 49.405 563.161 49.0865 560.47 48.767C532.575 45.4539 503.732 42.0274 472.64 38.2872L469.098 38.7166C467.059 39.4919 465.009 40.271 462.948 41.0539C447.024 47.1035 431.908 52.8774 413.948 59.7379C410.199 61.1699 406.324 62.6501 402.291 64.1903L405.453 63.739C399.917 63.3179 394.102 62.8752 387.935 62.4047C354.268 59.8359 311.072 56.5113 247.354 51.4949C233.617 50.4134 219.588 49.3153 205.053 48.1816L206.064 48.3352C184.891 43.5494 162.621 38.5245 138.571 33.0981C129.348 31.0169 119.858 28.8758 110.071 26.667C81.2081 20.1532 49.8193 13.0654 14.9918 5.18547L11.1917 4.3089L8.45995 7.16286C-11.5515 28.2458 -33.1794 51.0184 -56.7768 75.8439C-70.065 89.8237 -81.3126 101.722 -92.5663 113.633C-93.1977 114.301 -93.8292 114.969 -94.4606 115.637C-105.063 126.859 -115.838 138.265 -128.06 151.132C-129.692 152.851 -131.778 155.046 -134.286 157.687C-138.214 161.824 -143.196 167.07 -149.17 173.358L-150.972 175.242L-151.012 177.898C-151.031 179.69 -151.051 181.543 -151.072 183.456L-144.375 176.833C-146.342 176.834 -148.372 176.834 -150.466 176.834L-157.174 176.809L-157.162 183.567C-156.848 240.97 -156.305 345.818 -155.787 480.147C-155.786 480.666 -155.784 481.184 -155.782 481.703C-155.682 507.634 -155.592 530.947 -155.506 552.055L-155.506 551.939C-156.378 621.952 -156.893 667.701 -157.077 704.24C-157.12 712.929 -157.167 721.11 -157.217 728.837L-157.318 735.64L-150.465 735.665C-149.483 735.661 -148.508 735.656 -147.541 735.652L-154.28 728.949C-154.261 730.828 -154.243 732.681 -154.226 734.507L-154.226 734.471C-154.133 756.259 -154.1 774.297 -154.081 789.996C-154.075 794.385 -154.07 798.539 -154.066 802.5C-154.048 819.611 -154.034 833.133 -153.952 846.647C-153.81 870.115 -153.616 889.771 -153.333 908.969L-142.184 911.317C-136.631 898.197 -131.224 885.288 -125.425 871.331C-118.248 854.058 -109.923 834.432 -101.596 814.925L-105.881 817.325C-93.0812 818.902 -80.3236 820.491 -68.214 822C-68.166 822.006 -68.118 822.012 -68.07 822.018C-64.2701 822.491 -60.5288 822.958 -56.8755 823.412ZM1606.31 384.343C1606.28 376.413 1606.52 370.046 1606.84 370.115C1607.17 370.195 1607.46 376.693 1607.5 384.627C1607.57 403.531 1607.65 422.435 1607.73 441.34C1607.76 449.269 1607.53 455.638 1607.2 455.567C1606.87 455.488 1606.58 448.989 1606.55 441.056C1606.47 422.151 1606.39 403.247 1606.31 384.343ZM-88.8855 813.157C-81.2066 814.127 -73.5928 815.364 -71.8911 815.916C-70.2013 816.467 -75.059 816.126 -82.7318 815.156C-86.7898 814.643 -93.4639 813.806 -102.443 812.679C-103.341 812.566 -104.262 812.451 -105.207 812.332L-105.921 812.238L-106.207 812.893C-115.242 833.927 -129.541 867.21 -147.533 908.959L-147.487 908.969C-147.891 859.861 -148.336 799.975 -148.709 734.471C-148.73 732.629 -148.75 730.776 -148.77 728.919L-147.541 730.142C-148.514 730.147 -149.489 730.153 -150.465 730.158L-151.729 730.154L-151.71 728.899C-151.428 678.544 -151.067 625.048 -150.601 570.703C-150.546 564.224 -150.493 558.009 -150.443 551.996L-150.443 552.028C-150.519 542.62 -150.593 533.707 -150.664 525.055C-151.164 464.397 -152.264 415.706 -152.852 299.685C-153.048 260.97 -153.236 222.257 -153.417 183.546L-153.422 180.569L-150.466 180.58C-148.436 180.581 -146.405 180.582 -144.375 180.584L-147.322 183.498C-147.3 181.645 -147.278 179.792 -147.256 177.94L-147.239 176.773L-146.447 175.945C-93.8079 120.625 -41.1572 65.3285 11.4942 10.0459L12.5698 8.92225L14.066 9.26738C77.7332 23.786 141.392 38.3102 205.044 52.831L204.691 52.7773C271.486 58.1212 338.274 63.4625 405.055 68.791L404.086 68.9292C426.383 60.5086 448.679 52.0868 470.972 43.6634L472.002 43.5386C529.948 50.6277 587.89 57.7042 645.828 64.7615L647.978 65.0306L647.605 67.1494C646.508 73.4995 645.411 79.8495 644.314 86.1996L642.104 83.8133C672.174 80.9897 702.243 78.1611 732.309 75.3265L732.745 75.3324C761.721 78.8489 790.695 82.3596 819.669 85.8636L818.845 85.9304C846.928 77.7566 875.008 69.5768 903.084 61.3904L903.755 61.3074C931.843 62.3035 959.93 63.2927 988.016 64.2743L987.653 64.2906C1015.74 60.6808 1043.81 57.0636 1071.89 53.4382L1072.41 53.4293C1074.92 53.6553 1077.42 53.8813 1079.93 54.1072C1114.09 57.187 1148.22 60.2793 1182.34 63.3828L1180.48 67.9352C1171.92 60.9968 1163.36 54.0583 1154.8 47.1192L1147.61 41.2544L1156.8 42.5087C1251.18 55.1501 1345.49 67.8715 1440.05 80.6559C1473.22 85.1405 1514.26 90.737 1557.15 96.605L1554.44 98.1238C1568.49 66.3923 1583.04 33.5684 1596.81 2.51567L1601.36 3.47461C1601.2 75.6834 1601.05 139.146 1601.02 163.747C1601.01 171.683 1600.73 178.052 1600.41 177.971C1600.08 177.887 1599.83 171.389 1599.84 163.456C1599.87 138.983 1600.02 75.5837 1600.18 3.47461L1597.89 2.99197C1584.12 34.0541 1569.57 66.8859 1555.52 98.6001L1556.99 97.7752C1514.54 91.9674 1473.94 86.4317 1441.1 81.9914C1346.13 69.1517 1251.42 56.3763 1156.64 43.6816L1151.62 42.9963L1155.55 46.2007C1164.11 53.1397 1172.67 60.0782 1181.23 67.0165L1182.23 64.5617C1148.79 61.5206 1115.34 58.4902 1081.86 55.4719C1078.68 55.1845 1075.49 54.8971 1072.3 54.6096L1072.04 54.6141C1043.97 58.2398 1015.89 61.8625 987.805 65.4822L987.972 65.4747C959.888 64.5029 931.801 63.5274 903.71 62.5487L903.431 62.5831C875.362 70.7863 847.288 78.9872 819.21 87.186L819.511 87.1616C790.537 83.6829 761.559 80.2006 732.578 76.7149L732.44 76.713C702.378 79.5796 672.313 82.4433 642.245 85.3042L642.838 85.9451C643.927 79.5938 645.016 73.2424 646.105 66.8909L646.202 66.3419L645.645 66.2721C587.701 59.2887 529.749 52.293 471.79 45.2872L471.596 45.3106C449.315 53.766 427.032 62.2204 404.747 70.6738L404.909 70.6508C338.118 65.4201 271.321 60.1775 204.522 54.926L204.568 54.9329C140.889 40.4987 77.2106 26.0559 13.5352 11.608L13.36 11.5676L13.2341 11.6991C-39.3678 67.0496 -91.9734 122.392 -144.574 177.724L-144.671 177.826L-144.673 177.968C-144.694 179.821 -144.715 181.674 -144.736 183.527L-144.375 183.17C-146.406 183.169 -148.436 183.169 -150.466 183.168L-150.829 183.167L-150.829 183.533C-150.63 222.463 -150.432 261.39 -150.235 300.314C-149.653 415.206 -149.998 461.976 -149.5 522.416C-149.422 531.851 -149.341 541.617 -149.257 552.022L-149.257 552.009C-149.301 557.28 -149.347 562.714 -149.395 568.352C-149.868 623.588 -150.233 677.918 -150.515 728.912L-150.516 728.962L-150.465 728.963C-149.489 728.957 -148.514 728.952 -147.541 728.946L-147.574 728.913C-147.554 730.77 -147.534 732.623 -147.513 734.471C-147.133 800.286 -146.682 860.232 -146.277 908.969L-148.641 908.471C-131.356 868.354 -117.669 836.491 -109.054 816.434C-108.452 815.032 -107.874 813.688 -107.321 812.401L-106.671 810.912L-105.044 811.125C-97.9324 812.018 -92.4764 812.703 -88.8855 813.157ZM276.765 863.039C282.766 863.844 288.94 864.672 295.27 865.523L293.862 868.779C285.625 862.092 277.052 855.13 268.204 847.94L263.472 844.106L269.543 844.657C303.673 847.804 341.009 851.271 379.446 854.851L379.054 854.858C406.832 851.354 435.189 847.782 463.322 844.242L463.6 844.23C489.837 845.216 515.88 846.198 541.09 847.148C543.351 847.233 545.606 847.318 547.853 847.403L547.346 847.466C577.142 838.851 605.627 830.615 631.634 823.091L632.234 823.042C649.628 825.174 665.951 827.172 680.875 828.995C694.699 830.683 707.368 832.243 719.14 833.704L718.841 833.7C754.856 830.403 782.519 827.98 809.089 825.669L810.291 825.552L810.089 826.749C809.477 830.152 808.868 833.537 808.26 836.92C808.187 837.328 808.113 837.736 808.04 838.144C807.583 840.686 807.126 843.228 806.668 845.776L805.987 844.862C841.827 849.476 879.094 854.246 937.315 861.356C950.477 862.963 964.697 864.688 979.761 866.508L979.645 866.522C1000.43 858.632 1022.92 850.079 1046.48 841.111L1046.62 841.091C1086.3 844.148 1128.82 847.402 1171.52 850.67C1171.59 850.676 1171.65 850.681 1171.72 850.687C1196.93 852.616 1222.24 854.503 1247.04 856.336L1247.17 856.354C1307.4 869.708 1364.57 882.271 1409.38 892.469C1419.2 894.703 1428.86 896.901 1438.34 899.062L1436.92 899.491C1499.59 833.663 1552.03 778.761 1595.09 733.805L1594.82 734.46C1594.85 732.595 1594.88 730.743 1594.9 728.902L1594.91 727.972L1595.85 727.968C1597.89 727.977 1599.92 727.985 1601.94 727.993L1601.02 728.918C1600.93 655.216 1601.01 601.669 1601.15 565.937C1601.39 500.585 1600.94 430.56 1600.57 360.444V360.454C1601.25 300.598 1601.99 240.675 1603.25 183.545L1603.27 182.228L1601.94 182.223C1600.96 182.212 1599.99 182.202 1599.01 182.191L1600.35 183.524C1600.36 183.043 1600.36 182.562 1600.36 182.081C1600.47 175.606 1600.76 177.285 1601.02 183.52L1599.01 181.528C1599.9 181.496 1600.88 181.466 1601.94 181.436L1604.06 181.444L1604.03 183.554C1604.15 190.945 1604.16 202.305 1603.9 214.129C1603.89 215.048 1603.87 215.967 1603.85 216.886C1603.69 225.64 1603.55 233.3 1603.38 244.088C1603.17 259.72 1603.04 271.353 1602.92 281.97C1602.81 291.794 1602.44 322.209 1601.95 360.47L1601.95 360.437C1602.21 430.662 1602.5 527.317 1602.33 571.613C1602.21 605.333 1602.49 656.837 1602.94 728.907L1602.94 729.914L1601.94 729.911C1599.92 729.912 1597.89 729.914 1595.85 729.916L1596.85 728.924C1596.83 730.764 1596.81 732.616 1596.79 734.482L1596.79 734.882L1596.52 735.166C1554.14 779.845 1501.97 834.869 1438.81 901.286L1438.37 901.743L1437.76 901.603C1428.08 899.403 1418.22 897.161 1408.18 894.876C1363.77 884.77 1307.22 871.596 1246.84 857.782L1246.93 857.795C1222.87 855.855 1198.22 853.903 1173.49 852.011C1173.25 851.992 1173.01 851.974 1172.77 851.955C1129.89 848.674 1086.84 845.379 1046.53 842.272L1046.9 842.219C1023.42 851.158 1000.92 859.713 980.064 867.628L979.618 867.682C964.624 865.871 950.431 864.148 937.255 862.539C879.297 855.461 841.088 850.583 805.843 846.049L805.415 845.995L805.49 845.573C806.215 841.536 806.934 837.538 807.651 833.553C807.718 833.179 807.785 832.805 807.853 832.431C808.206 830.467 808.559 828.507 808.911 826.546L809.201 826.859C782.016 829.222 754.772 831.6 718.952 834.877L718.998 834.878C707.292 833.424 694.664 831.868 680.815 830.177C665.788 828.342 649.443 826.341 632.091 824.215L631.963 824.226C605.852 831.781 577.38 840.014 547.676 848.602L547.81 848.585C544.993 848.479 542.165 848.372 539.327 848.265C514.618 847.334 489.167 846.375 463.557 845.412L463.471 845.416C435.31 848.959 406.958 852.529 379.203 856.031L379.338 856.028C340.867 852.444 303.538 848.978 269.434 845.833L267.234 845.634L268.949 847.023C277.799 854.214 286.372 861.177 294.607 867.861L295.112 866.695C289.221 865.903 283.466 865.13 277.861 864.379C270.005 863.326 263.383 862.171 263.081 861.801C262.784 861.432 268.912 861.987 276.765 863.039ZM279.559 855.989C285.127 856.711 290.696 857.434 296.265 858.158L289.175 874.546C280.591 867.641 272.009 860.732 263.426 853.819L239.346 834.311L270.239 837.113C306.876 840.333 343.53 843.59 380.182 846.881L378.045 846.918C406.124 843.28 434.206 839.661 462.283 836.062L463.9 835.99C491.998 836.981 520.087 837.991 548.158 839.018L545.005 839.408C573.114 831.248 601.21 823.111 629.283 814.999L633.25 814.678C662.25 818.242 691.219 821.82 720.147 825.411L718.058 825.383C748.179 822.626 778.26 819.891 808.289 817.178L820.554 815.978L818.494 828.198C817.375 834.546 816.255 840.892 815.135 847.236L807.023 836.332C850.13 841.744 893.118 847.177 935.952 852.623C949.791 854.313 964.821 856.15 980.781 858.102L976.645 858.603C997.475 850.733 1019.99 842.228 1043.53 833.335L1047.27 832.801C1087.32 835.993 1130.16 839.411 1172.97 842.827C1173.97 842.907 1174.98 842.988 1175.98 843.069C1200.06 844.99 1224.11 846.908 1247.64 848.785L1248.84 848.968C1309.96 862.894 1367.43 875.989 1412.15 886.164C1421.53 888.299 1430.76 890.398 1439.84 892.464L1432.01 894.831C1494.57 829.096 1546.94 774.092 1589.99 728.963L1587.79 734.383C1587.81 732.518 1587.84 730.665 1587.86 728.824L1587.92 720.956L1595.85 720.926C1597.89 720.93 1599.92 720.935 1601.94 720.939L1593.96 728.955C1593.72 654.319 1593.64 600.135 1593.78 564.152C1594.02 498.817 1593.93 480.681 1593.79 453.794C1593.78 453.061 1593.78 452.328 1593.77 451.596C1593.77 451.547 1593.77 451.499 1593.77 451.451C1593.75 450.529 1593.74 449.755 1593.73 449.357C1593.72 448.545 1593.71 447.883 1593.71 447.636C1593.71 447.063 1593.7 446.583 1593.7 446.412C1593.7 445.714 1593.69 444.915 1593.69 444.401C1593.67 439.613 1593.63 424.618 1593.61 412.737C1593.6 400.562 1593.61 391.883 1593.64 382.732C1593.64 381.805 1593.64 380.879 1593.64 379.953C1593.66 374.185 1593.67 368.062 1593.68 360.481L1593.68 360.378C1593.74 357.117 1593.8 353.587 1593.87 349.7C1594 341.826 1594.36 336.233 1594.68 337.204C1594.99 338.182 1595.13 345.347 1595 353.217C1594.95 355.742 1594.91 358.127 1594.87 360.391L1594.87 360.475C1594.86 370.403 1594.85 377.989 1594.83 384.737C1594.83 385.656 1594.82 386.575 1594.82 387.495C1594.8 396.253 1594.79 403.927 1594.8 414.721C1594.85 430.351 1594.91 441.969 1594.96 452.585C1595.11 480.42 1595.22 501.38 1594.96 569.807C1594.83 603.829 1594.9 655.906 1595.15 728.949L1601.94 722.12C1599.92 722.116 1597.89 722.112 1595.85 722.108L1589.09 722.133L1589.04 728.837C1589.02 730.677 1589 732.53 1588.97 734.396L1590.85 729.776C1548.3 774.384 1496.01 829.292 1432.87 895.645L1439.57 893.615C1430.53 891.557 1421.33 889.464 1411.97 887.334C1367.19 877.144 1309.67 864.04 1248.58 850.12L1247.54 849.962C1223.99 848.083 1199.92 846.163 1175.83 844.241C1174.8 844.159 1173.76 844.076 1172.73 843.994C1129.93 840.58 1087.15 837.166 1047.18 833.98L1043.95 834.441C1020.4 843.337 997.884 851.841 977.063 859.708L980.639 859.274C964.704 857.326 949.702 855.492 935.892 853.806C892.731 848.535 849.723 843.306 806.808 838.1L813.38 846.933C814.474 840.581 815.568 834.23 816.661 827.882L818.316 818.066L808.463 819.03C778.361 821.871 748.301 824.713 718.262 827.554L719.884 827.576C690.896 824.066 661.928 820.56 632.961 817.05L629.95 817.295C601.871 825.46 573.793 833.622 545.695 841.783L548.068 841.49C520.005 840.466 491.926 839.436 463.812 838.396L462.586 838.451C434.538 841.997 406.454 845.538 378.319 849.072L379.982 849.044C343.449 845.621 306.832 842.169 270.095 838.678L244.349 836.342L264.417 852.6C272.94 859.565 281.469 866.539 290.006 873.523L296.089 859.465C290.953 858.755 285.815 858.043 280.675 857.331C235.012 851.211 193.28 845.593 154.614 840.388C52.3556 826.621 -28.5291 815.733 -104.355 806.025L-109.84 805.304L-112.031 810.325C-115.453 818.237 -118.843 826.09 -122.209 833.908C-127.273 845.668 -138.167 870.628 -153.741 906.223L-140.704 908.969C-140.75 891.938 -140.797 872.675 -140.848 851.416C-140.897 830.974 -140.948 808.55 -141.004 784.315C-141.04 768.468 -141.079 751.841 -141.119 734.471L-141.119 734.437C-141.134 732.593 -141.148 730.74 -141.162 728.879L-141.219 722.51L-147.541 722.534C-148.513 722.536 -149.488 722.538 -150.465 722.54L-144.093 728.984C-143.691 683.425 -143.249 632.942 -142.78 578.214C-142.702 569.034 -142.629 560.381 -142.56 552.084L-142.559 551.986C-142.614 545.267 -142.668 538.781 -142.72 532.436C-143.22 471.776 -143.616 423.896 -144.203 307.871C-144.388 271.523 -144.589 228.923 -144.794 183.5L-150.466 189.202C-148.441 189.204 -146.411 189.206 -144.375 189.207L-138.74 189.187L-138.699 183.594C-138.677 181.745 -138.655 179.892 -138.633 178.035L-140.195 181.886C-88.782 127.87 -32.7416 69.025 17.7687 16.0077L12.1516 17.7082C65.6068 29.9071 114.669 41.1127 153.312 49.9486C172.259 54.281 188.702 58.0446 203.113 61.3463L204.006 61.482C237.846 64.2213 260.731 66.0924 278.496 67.552C285.597 68.1354 291.841 68.6506 297.571 69.1226C312.54 70.3557 324.164 71.3126 339.401 72.5404C362.228 74.3796 383.632 76.0921 404.351 77.7376L407.266 77.3215C430.072 68.6987 451.987 60.395 474.127 51.9894L470.929 52.3772C523.293 58.6989 576.884 65.0941 644.805 73.1847L639.243 65.7079C639.152 66.2426 639.061 66.7783 638.97 67.3148C637.643 75.1144 636.225 81.8702 635.803 82.4029C635.381 82.9333 636.113 77.0387 637.44 69.2394C637.652 67.9903 637.864 66.746 638.074 65.5064L644.662 74.3619C577.188 66.3244 523.512 59.9181 470.786 53.5515L474.546 53.0957C452.445 61.4859 430.514 69.7956 407.685 78.4268L404.258 78.916C383.319 77.2529 361.677 75.5213 338.606 73.6624C322.697 72.3806 310.251 71.3552 295.019 70.1004C289.371 69.6352 283.339 69.1381 276.605 68.5848C259.305 67.1635 236.963 65.3365 203.913 62.6609L202.852 62.4996C188.321 59.1702 171.673 55.3596 152.404 50.9536C113.928 42.1559 65.0969 31.0032 11.8902 18.8609L18.6256 16.8219C-31.8761 69.8302 -87.9358 128.696 -139.338 182.7L-137.45 178.048C-137.473 179.905 -137.495 181.758 -137.517 183.607L-137.567 190.364L-144.375 190.39C-146.411 190.388 -148.441 190.386 -150.466 190.384L-143.612 183.494C-143.407 228.804 -143.206 271.285 -143.023 307.512C-142.441 422.403 -142.054 469.356 -141.556 529.796C-141.497 536.956 -141.436 544.305 -141.374 551.979L-141.374 552.097C-141.437 559.654 -141.503 567.526 -141.574 575.843C-142.051 631.497 -142.5 682.813 -142.907 728.997L-150.465 721.355C-149.488 721.353 -148.513 721.35 -147.541 721.348L-140.045 721.32L-139.976 728.872C-139.962 730.734 -139.948 732.586 -139.934 734.431L-139.934 734.471C-139.895 751.105 -139.858 767.048 -139.823 782.262C-139.767 806.465 -139.716 828.837 -139.667 849.197C-139.613 871.754 -139.564 891.718 -139.516 908.969L-154.827 905.744C-139.928 871.688 -130.098 849.164 -125.836 839.267C-121.645 829.532 -117.414 819.734 -113.13 809.841L-110.58 803.996L-104.194 804.834C-27.1632 814.722 55.388 825.835 156.232 839.411C194.475 844.56 235.358 850.064 279.559 855.989ZM1073.74 62.6605C1073.01 62.5944 1072.29 62.5268 1071.58 62.4583L1073.03 62.4333C1066.12 63.2822 1060.44 63.7676 1059.9 63.5386C1059.31 63.2873 1065.11 62.2721 1072.89 61.2642L1071.68 61.2848C1071.73 61.2891 1071.78 61.2934 1071.83 61.2977C1113.47 65.0522 1143.41 67.7419 1166.81 69.8443C1172.05 70.3154 1176.97 70.757 1181.62 71.1745L1198.84 72.7364L1185.41 61.863C1175.61 53.9311 1167.34 47.244 1159.72 41.0728L1155.76 50.2301C1172.14 52.4112 1186.19 54.2958 1203.4 56.6247C1283.92 67.5241 1361.68 78.0375 1431.63 87.4955C1476.83 93.6059 1518.77 99.2769 1556.11 104.328L1560.01 104.841L1561.57 101.267C1578.09 63.8198 1592.4 31.3924 1603.79 5.59191L1593.73 3.47461C1593.73 16.1097 1593.72 27.2919 1593.7 36.8635C1593.69 44.7988 1593.42 51.1694 1593.1 51.0883C1592.77 50.9999 1592.51 44.5025 1592.52 36.5732C1592.54 27.0825 1592.55 15.9987 1592.55 3.47461L1604.87 6.06831C1593.49 31.8256 1579.19 64.2472 1562.65 101.743L1560.74 106.127L1555.95 105.499C1518.98 100.497 1477.46 94.8834 1432.69 88.8296C1362.65 79.3605 1284.64 68.8143 1203.61 57.8464C1186.2 55.4903 1172.3 53.6262 1155.6 51.4034L1160.46 40.154C1167.99 46.2475 1176.24 52.9235 1186.16 60.9435L1202.61 74.2686L1181.51 72.3545C1177.9 72.0305 1174.13 71.6913 1170.15 71.3341C1146.77 69.2338 1116.5 66.5151 1073.74 62.6605Z" fill="#0022FF"/>
</g>
</svg>
