<svg width="99" height="782" viewBox="0 0 99 782" fill="none" xmlns="http://www.w3.org/2000/svg">
<path d="M42.71 73.12H44.71V376.97L69.5399 401.79V574.03L185.67 690.16V768.45H183.67V690.99L67.5399 574.86V402.62L42.71 377.79V73.12Z" fill="white"/>
<path d="M55.92 420.79H57.92V732.39L74.28 716.04V649.38L105.93 681.03V744.45H103.93V681.86L76.28 654.21V716.87L55.92 737.22V420.79Z" fill="white"/>
<path d="M0 156.85H148.7V580.99L135.25 567.53V334.33L22.33 447.24V647.79H20.33V446.41L137.25 329.5V566.7L146.7 576.16V158.85H0V156.85Z" fill="white"/>
<path d="M95.9301 553.8L113.93 571.8V565.09L95.9301 547.09V553.8Z" fill="white"/>
<path d="M113.93 584.8V578.09L95.9301 560.09V566.8L113.93 584.8Z" fill="white"/>
<path d="M133.58 648.65V623.19L113.93 603.53V591.09L95.9301 573.09V610.99L133.58 648.65Z" fill="white"/>
<path d="M44.61 781.36H51.4301V491.3L75.7101 467.03V10.74L64.97 0H57.7101V459.57L33.4301 483.84V770.19L44.61 781.36Z" fill="white"/>
<path d="M95.9301 365.84V540.8L113.93 558.8V347.84L95.9301 365.84Z" fill="white"/>
<path d="M113.93 339.69V189.2L103.12 178.39H95.9301V357.69L113.93 339.69Z" fill="white"/>
<path d="M38.8301 422.93L96.1601 365.61L92.0801 361.53L38.8301 414.78V422.93Z" fill="white"/>
</svg>
