<svg width="584" height="182" viewBox="0 0 584 182" fill="none" xmlns="http://www.w3.org/2000/svg">
<path d="M46.6308 171.487C52.0806 171.492 58.166 171.479 64.2501 171.468C70.582 171.458 76.9126 171.451 82.5239 171.472C82.6782 171.472 82.8325 171.473 82.9868 171.473C87.4838 171.49 92.066 171.515 97.6099 171.545C98.316 171.548 99.0398 171.552 99.7789 171.556C106.351 171.591 114.424 171.633 125.425 171.68C162.363 171.836 191.488 171.732 200.548 171.7C218.717 171.635 238.099 171.633 264.546 171.632C266.964 171.631 269.443 171.632 271.984 171.631C274.043 171.631 275.747 171.684 275.794 171.749C275.841 171.814 274.21 171.867 272.151 171.868C269.662 171.868 267.237 171.868 264.874 171.868C264.863 171.868 264.853 171.868 264.842 171.868C238.229 171.87 219.268 171.871 201.527 171.935C192.27 171.968 162.43 172.074 124.58 171.914C113.462 171.867 105.298 171.825 98.6863 171.789C97.9625 171.786 97.257 171.782 96.5712 171.778C96.555 171.778 96.5389 171.778 96.5227 171.778C90.9425 171.748 86.5532 171.724 82.2495 171.708C82.158 171.708 82.0665 171.708 81.975 171.707C76.4456 171.686 70.3288 171.693 64.2501 171.703C58.0965 171.714 51.9819 171.728 46.5555 171.723C44.4963 171.721 42.8423 171.667 42.8634 171.602C42.8856 171.536 44.5728 171.485 46.6308 171.487ZM491.342 22.0562C480.603 22.1427 466.318 22.1331 453.705 22.0946C441.004 22.0558 429.508 21.986 424.098 21.9432C418.81 21.9013 412.934 21.8877 405.923 21.8794C404.315 21.8775 402.648 21.8758 400.923 21.8741C395.226 21.8685 388.887 21.8622 381.929 21.8436C356.371 21.775 339.708 21.7721 327.807 21.7783C325.359 21.7796 323.082 21.7814 320.95 21.783C320.947 21.783 320.943 21.783 320.94 21.783C312.894 21.7891 306.891 21.7936 301.37 21.7667C300.74 21.7636 300.117 21.7605 299.5 21.7575L300.215 22.054C296.445 18.2397 293.021 14.7743 289.525 11.2262L289.207 10.9061L288.75 10.9048C285.379 10.8825 281.959 10.857 278.301 10.8257C264.945 10.7113 245.923 10.7249 233.544 10.8035C232.864 10.8078 232.169 10.8124 231.466 10.8169C222.492 10.8743 211.442 10.9449 194.873 10.9975C181.107 11.0412 169.11 11.0378 158.49 11.0254C155.447 11.0219 152.543 11.0175 149.755 11.0135C142.719 11.0033 136.42 10.9942 130.488 10.9995C93.6958 11.0325 72.4782 10.9898 59.1426 10.9255C48.8866 10.8761 43.1574 10.8125 39.0244 10.7665C37.7753 10.7526 36.6722 10.7402 35.6337 10.7304C32.7062 10.7029 29.8544 10.6802 27 10.6604L26.4483 10.6589L26.052 11.0536C21.6587 15.3938 17.2666 19.7528 12.3017 24.6804C11.8636 25.1152 11.4207 25.5547 10.9728 25.9992L10.5502 26.4201L10.5485 27.0247C10.5407 28.7146 10.5325 30.4551 10.5239 32.2515C10.4843 40.5041 10.4912 46.6539 10.5079 51.4763C10.5152 53.5856 10.5242 55.4417 10.5329 57.1921C10.5331 57.2243 10.5333 57.2566 10.5335 57.2889C10.5347 57.533 10.5358 57.7751 10.537 58.0155C10.5379 58.1968 10.5391 58.3778 10.5399 58.5591C10.5411 58.6304 10.5419 58.6943 10.5426 58.7421C10.5431 58.7799 10.5435 58.8093 10.5437 58.8282C10.5438 58.8318 10.5439 58.8354 10.544 58.839C10.5486 59.1824 10.5503 59.478 10.5507 59.5386C10.5514 59.6444 10.5517 59.7383 10.5519 59.7862C10.553 60.0395 10.5536 60.3659 10.5539 60.5828C10.5548 61.1404 10.5558 62.1093 10.5568 63.6075C10.5602 64.9118 10.566 66.1635 10.5734 67.7302C10.5739 67.8288 10.5744 67.9275 10.5749 68.0262C10.5821 69.5541 10.5904 71.3422 10.5985 73.5859C10.6059 75.6273 10.5593 77.5049 10.4945 77.7785C10.4297 78.0513 10.3711 76.6174 10.3637 74.5762C10.3561 72.4623 10.3482 70.7876 10.341 69.2587C10.3405 69.1618 10.3401 69.0649 10.3396 68.968C10.332 67.374 10.325 65.8641 10.3209 64.2372C10.3196 63.6925 10.3185 63.131 10.3177 62.6064C10.3148 61.6621 10.3098 60.5877 10.3035 59.3018C10.3022 59.0437 10.301 58.7775 10.2997 58.5053C10.291 56.7581 10.2808 54.7236 10.2729 52.4289C10.2542 47.058 10.2472 40.253 10.2903 31.272C10.2973 29.8306 10.3039 28.4163 10.3103 27.0247L10.3123 26.3209L10.8042 25.8309C11.4304 25.2095 12.0501 24.5945 12.6641 23.9851C17.2797 19.4042 21.5729 15.1431 25.8817 10.8836L26.3492 10.418L27 10.4198C30.5084 10.4428 34.02 10.4699 37.6251 10.5038C38.974 10.5165 40.2676 10.531 41.6509 10.5464C45.7508 10.5918 50.646 10.6463 60.1276 10.692C72.8312 10.7532 93.5441 10.7962 130.127 10.7633C136.354 10.7577 143.072 10.7676 150.229 10.7779C152.961 10.7818 155.761 10.7856 158.62 10.789C169.074 10.8011 180.693 10.8044 193.985 10.7622C210.184 10.7107 220.933 10.6422 229.868 10.5851C230.176 10.583 230.485 10.581 230.793 10.579C231.177 10.5765 231.557 10.5741 231.934 10.5717C245.125 10.4879 265.366 10.4712 280.12 10.5976C283.121 10.6233 285.956 10.645 288.75 10.6641L289.308 10.6657L289.695 11.0562C293.181 14.5952 296.58 18.0373 300.384 21.8855L299.5 21.519C300.437 21.5237 301.391 21.5283 302.366 21.5331C307.172 21.5565 312.307 21.5527 320.192 21.5468C322.405 21.5451 324.838 21.5435 327.538 21.5421C339.652 21.5358 356.569 21.5386 382.414 21.6079C389.152 21.626 395.215 21.6321 400.88 21.6377C402.639 21.6394 404.366 21.6412 406.057 21.6432C413.102 21.6516 419.659 21.6652 425.772 21.7137C430.796 21.7535 441.922 21.8215 454.275 21.8593C466.718 21.8973 479.927 21.903 489.367 21.827C490.348 21.8191 491.338 21.8112 492.327 21.8034C500.842 21.7356 509.524 21.6665 516.514 21.5514C519.609 21.4801 522.952 21.4184 526.5 21.3653L525.507 21.7769C528.806 18.3721 532.375 14.7192 536.138 10.8891L536.603 10.4258L537.25 10.4277C548.049 10.3407 559.911 10.3041 572 10.2948L573.71 10.2996L573.705 12C573.723 34.9418 573.642 58.7008 573.62 77.5586C573.62 78.0502 573.619 78.5417 573.618 79.0333C573.59 103.829 573.579 124.737 573.576 140.076L573.575 140.732L573.116 141.189C565.067 149.248 559.191 155.136 555.969 158.365C555.617 158.718 555.296 159.04 555.008 159.329C554.75 159.587 554.517 159.82 554.312 160.026C551.232 163.112 548.512 165.848 545.662 168.715C545.507 168.871 545.351 169.028 545.196 169.184C544.558 169.826 543.914 170.474 543.259 171.132L542.785 171.604L542.125 171.602C538.666 171.609 534.996 171.615 530.819 171.614C524.242 171.613 518.071 171.614 512.25 171.615C500.635 171.618 490.416 171.626 481.159 171.633C478.586 171.635 476.084 171.637 473.645 171.639C473.638 171.639 473.631 171.639 473.624 171.639C462.92 171.649 453.426 171.657 444.415 171.657C427.984 171.657 416.885 171.672 408.253 171.688C405.545 171.693 403.051 171.698 400.696 171.703C395.606 171.714 391.159 171.723 386.574 171.727C377.949 171.733 370.012 171.749 362.193 171.765C361.496 171.766 360.8 171.767 360.105 171.769C351.629 171.786 343.236 171.802 334.362 171.802C332.303 171.802 330.595 171.749 330.552 171.684C330.511 171.619 332.148 171.566 334.206 171.565C342.825 171.565 351.013 171.55 359.486 171.533C360.185 171.531 360.887 171.53 361.59 171.529C369.389 171.513 377.472 171.497 386.256 171.49C390.677 171.487 394.877 171.478 399.868 171.468C402.249 171.463 404.813 171.458 407.666 171.452C416.43 171.436 427.675 171.421 444.264 171.42C453.166 171.42 462.54 171.412 473.236 171.403C475.69 171.401 478.215 171.399 480.819 171.397C490.157 171.389 500.488 171.382 512.25 171.379C518.038 171.377 524.173 171.377 530.706 171.378C534.893 171.378 538.552 171.372 542.125 171.365L542.687 171.367L543.091 170.965C543.584 170.469 544.074 169.976 544.565 169.482C544.733 169.313 544.901 169.144 545.069 168.975C547.894 166.133 550.765 163.244 554.019 159.984C554.454 159.549 555.009 158.993 555.677 158.324C558.913 155.081 564.834 149.147 572.948 141.023L573.339 140.634L573.34 140.076C573.343 124.691 573.353 103.741 573.382 78.9095C573.383 78.775 573.383 78.6404 573.383 78.5059C573.417 49.4489 573.436 33.0561 573.377 20.7131C573.362 17.5647 573.351 14.6733 573.342 12L573.346 10.6613L572 10.6575C566.402 10.6757 561.76 10.6823 557.716 10.6861C556.576 10.6872 555.498 10.6882 554.47 10.6891C550.029 10.6926 546.519 10.6954 543.012 10.7118C540.993 10.7212 539.083 10.7318 537.25 10.7438L536.733 10.7423L536.361 11.1124C532.516 15.014 529.166 18.4381 525.719 21.9878L526.5 21.6638C524.4 21.6927 522.271 21.7252 520.05 21.7617C512.245 21.8901 502.683 21.9661 494.307 22.0326C494.295 22.0327 494.282 22.0328 494.27 22.0329C493.276 22.0408 492.297 22.0485 491.342 22.0562ZM10.7555 103.144C10.7535 105.203 10.6992 106.855 10.634 106.836C10.5688 106.815 10.5173 105.128 10.5193 103.069C10.5239 98.1623 10.5286 93.2556 10.5332 88.3489C10.5352 86.2909 10.5895 84.638 10.6547 84.6568C10.7199 84.6778 10.7713 86.3652 10.7694 88.4243C10.7648 93.3309 10.7601 98.2376 10.7555 103.144ZM499.932 23.2319C497.923 23.2451 495.921 23.2038 495.464 23.1399C495.011 23.076 496.272 23.0136 498.279 23.0004C499.341 22.9934 501.087 22.9807 503.435 22.9637C508.533 22.9266 516.481 22.8689 526.5 22.8035L526.515 22.8034L526.525 22.793C529.79 19.4798 533.369 15.8495 537.208 11.9583L537.226 11.9409L537.25 11.941C547.674 11.8792 559.438 11.8162 572 11.761L572.24 11.7617L572.239 12C572.299 25.7436 572.351 40.443 572.38 55.3898C572.389 59.7023 572.398 63.5655 572.406 67.2466C572.441 82.991 572.609 95.6305 572.602 125.744C572.601 130.522 572.599 135.299 572.597 140.076L572.597 140.324L572.423 140.498C562.46 150.47 552.496 160.438 542.531 170.405L542.361 170.574L542.125 170.573C532.166 170.566 522.208 170.558 512.25 170.549C414.498 170.463 316.806 170.32 219.175 170.479C182.663 170.538 146.265 170.547 109.725 170.543C97.2608 170.542 80.5475 170.521 64.2501 170.495C49.8492 170.473 35.7731 170.447 25.2406 170.429L25.0662 170.429L24.9428 170.309C20.1455 165.67 16.3706 162.021 14.2054 159.93C13.0658 158.83 12.121 157.875 11.7727 157.477L12.3276 157.241C12.3142 157.399 12.2997 157.484 12.2846 157.479C12.2704 157.474 12.2569 157.39 12.2444 157.241L11.8304 157.417C12.2477 157.757 13.2648 158.694 14.4235 159.813C16.5735 161.888 20.33 165.52 25.1067 170.139L25.1622 170.193L25.2406 170.193C35.7643 170.211 49.8491 170.237 64.2501 170.259C80.4398 170.284 97.029 170.305 109.407 170.307C145.877 170.311 182.2 170.302 218.642 170.243C316.375 170.084 414.325 170.055 512.25 170.064C522.209 170.065 532.167 170.066 542.125 170.068L542.153 170.068L542.173 170.048C552.134 160.074 562.094 150.101 572.054 140.129L572.076 140.107L572.076 140.076C572.077 135.243 572.078 130.41 572.079 125.578C572.086 95.7564 572.205 83.6178 572.17 67.9301C572.162 64.2403 572.153 60.3557 572.145 56.0034C572.114 40.822 572.062 25.9048 572 12C559.4 12.0563 547.631 12.1202 537.25 12.1823L537.379 12.1288C533.526 16.0353 529.946 19.6668 526.697 22.9643L526.616 23.0456L526.5 23.0459C517.413 23.1058 510.138 23.1586 505.298 23.1938C502.874 23.2113 501.054 23.2245 499.932 23.2319ZM404.147 23.1332C381.153 23.1511 348.466 23.1192 319.901 23.0912C312.773 23.0843 305.901 23.0775 299.5 23.0718L299.375 23.0721L299.285 22.9825C295.432 19.1158 291.82 15.4923 288.543 12.2066L288.75 12.2924C288.199 12.2921 287.654 12.2918 287.117 12.2915C271.053 12.283 260.94 12.2265 250.912 12.1703C250.804 12.1697 250.696 12.1691 250.589 12.1686C240.567 12.1125 230.537 12.0573 214.222 12.0486C197.773 12.0398 175.012 12.0783 152.053 12.117C152.036 12.117 152.018 12.117 152 12.117C129.163 12.1556 106 12.3143 89.2608 12.3052C64.6368 12.2918 43.9981 12.2551 27 12.2076L27.1469 12.1467C21.5922 17.6795 16.583 22.6627 12.0964 27.1209L12.1362 27.0247C12.0864 39.4717 12.0324 49.0505 11.9836 56.0188C11.7607 87.8306 12.0107 123.912 11.7288 156.411C11.6664 159.995 11.4866 153.949 11.5383 147.342C11.5398 147.103 11.5412 146.865 11.5427 146.626C11.5562 144.354 11.5672 142.365 11.5762 139.565C11.5835 135.507 11.584 132.488 11.5843 129.732C11.5853 122.501 11.6282 72.3049 11.7527 54.5441C11.7983 48.0286 11.8092 38.9549 11.8067 27.0247L11.807 26.9442L11.8632 26.8882C16.2942 22.4481 21.2805 17.4466 26.8549 11.8551L26.9156 11.7947L27 11.795C43.8669 11.7832 64.5353 11.7688 89.4276 11.7824C105.857 11.7913 128.557 11.9196 151.515 11.8808C151.578 11.8807 151.641 11.8806 151.704 11.8805C174.494 11.842 197.477 11.8032 214.2 11.8121C231.105 11.8211 241.592 11.879 251.746 11.9359C251.844 11.9364 251.943 11.937 252.042 11.9376C261.977 11.9932 271.624 12.0471 287.095 12.0553C287.64 12.0556 288.192 12.0559 288.75 12.0562L288.71 12.0397C292.005 15.3435 295.615 18.9653 299.453 22.8155L299.473 22.8354L299.5 22.8353C306.055 22.8411 313.078 22.8479 320.348 22.855C348.79 22.8829 381.021 22.9147 403.818 22.897C405.876 22.8954 407.619 22.9471 407.71 23.0123C407.799 23.0775 406.203 23.1316 404.147 23.1332ZM403.673 24.6054C368.969 24.7461 334.161 24.79 299.5 24.7576L298.681 24.7599L298.092 24.1737C294.51 20.5787 290.931 16.9847 287.355 13.3925L288.75 13.9708C263.991 13.932 239.326 13.8557 214.846 13.7494C198.217 13.7406 175.012 13.7222 151.838 13.7037C151.576 13.7034 151.314 13.7031 151.052 13.7028C128.13 13.6845 105.307 13.6663 88.9217 13.6574C64.4859 13.6441 43.951 13.6289 27 13.6063L28.1368 13.1349C22.5963 18.6698 17.5952 23.6622 13.1109 28.1338L13.5698 27.0247C13.5416 39.7054 13.5049 49.4443 13.4556 56.4924C13.3367 73.4497 13.3364 78.1572 13.3356 85.1358C13.3355 85.326 13.3354 85.5161 13.3353 85.7063C13.3355 85.7189 13.3357 85.7314 13.3359 85.744C13.3389 85.9832 13.3406 86.1841 13.3414 86.2876C13.3429 86.4983 13.3435 86.6701 13.3437 86.7343C13.3442 86.8829 13.3443 87.0075 13.3443 87.0518C13.3445 87.2331 13.3444 87.4404 13.3443 87.5739C13.3431 88.8166 13.336 92.7086 13.3262 95.7923C13.3163 98.9525 13.3034 101.205 13.2893 103.58C13.2878 103.821 13.2863 104.061 13.2849 104.301C13.2721 106.442 13.2581 108.772 13.243 112.127C13.2337 114.171 13.1739 115.624 13.1093 115.372C13.0447 115.12 12.9999 113.26 13.0091 111.217C13.025 107.688 13.0399 105.209 13.0528 103.058C13.0542 102.82 13.0557 102.581 13.0571 102.342C13.0707 100.069 13.0817 98.0773 13.0906 95.2757C13.0979 91.219 13.0984 88.2034 13.0988 85.448C13.0997 78.2232 13.1004 72.7828 13.2249 55.0231C13.2712 48.4179 13.3061 39.1905 13.3334 27.0247L12.9436 27.9668C17.3902 23.5328 22.3885 18.5433 27.9695 12.968L27 13.37C43.763 13.3924 64.2572 13.4078 88.9002 13.4212C105.316 13.4301 128.165 13.4483 151.069 13.4666C151.338 13.4668 151.607 13.467 151.876 13.4672C175.062 13.4857 198.234 13.5044 214.825 13.5132C239.607 13.5264 264.192 13.5172 288.75 13.5105L287.681 13.0672C291.266 16.656 294.85 20.244 298.434 23.8324L298.88 24.2763L299.5 24.2746C333.945 24.2681 368.403 24.2767 403.339 24.3692C415.297 24.3599 426.227 24.3562 436.353 24.3529C466.154 24.3431 489.023 24.3354 510.825 24.1918C513.592 24.1736 518.958 24.157 526.5 24.1398L527.073 24.1381L527.471 23.7371C530.55 20.6383 534.146 17.0225 538.199 12.9475L537.25 13.3411C538.716 13.3383 540.225 13.3355 541.774 13.3327C547.079 13.3229 552.9 13.3127 559.19 13.3015C563.265 13.2942 567.538 13.2866 572 13.2786L570.721 12C570.744 24.4263 570.769 38.3184 570.8 53.463C570.808 57.7754 570.817 61.6388 570.825 65.3198C570.86 81.0648 570.888 93.4927 570.881 123.608C570.88 128.675 570.878 134.21 570.875 140.076L571.204 139.281C562.031 148.459 551.714 158.779 541.309 169.185L542.125 168.846C532.066 168.838 521.948 168.828 512.25 168.819C495.655 168.802 480.288 168.785 468.538 168.769C451.908 168.746 442.52 168.725 435.879 168.708C434.03 168.703 432.404 168.698 430.911 168.694C427.013 168.683 423.986 168.675 420.018 168.669C391.447 168.629 371.444 168.657 338.673 168.715C336.62 168.718 334.829 168.668 334.674 168.603C334.52 168.538 336.06 168.482 338.114 168.478C370.933 168.421 391.241 168.392 420.201 168.433C424.344 168.439 427.585 168.448 431.552 168.459C433.023 168.463 434.594 168.468 436.347 168.472C442.878 168.489 452.168 168.51 468.71 168.533C480.416 168.548 495.721 168.566 512.25 168.582C521.947 168.592 532.065 168.601 542.125 168.61L541.141 169.018C551.55 158.609 561.869 148.287 571.036 139.114L570.638 140.076C570.641 134.242 570.643 128.738 570.644 123.699C570.651 93.8784 570.624 81.6913 570.589 66.0033C570.581 62.3148 570.572 58.4326 570.564 54.082C570.533 38.6939 570.507 24.5836 570.484 12L572 13.5158C567.729 13.5234 563.633 13.5307 559.723 13.5377C553.441 13.5489 547.634 13.5591 542.35 13.5688C540.589 13.5721 538.889 13.5752 537.25 13.5783L538.367 13.1152C534.221 17.2842 530.635 20.89 527.639 23.9049L527.172 24.3754L526.5 24.3773C519.513 24.3934 514.78 24.4082 512.477 24.4234C489.911 24.5719 466.048 24.5798 435.971 24.5897C425.955 24.5929 415.248 24.5964 403.673 24.6054ZM220.569 168.662C222.624 168.658 224.406 168.709 224.552 168.774C224.697 168.839 223.151 168.895 221.096 168.898C210.244 168.916 202.443 168.93 196.344 168.942C185.056 168.963 179.601 168.973 171.431 168.971C150.339 168.967 129.974 168.964 111.652 168.962C93.3908 168.96 77.1554 168.959 64.2501 168.955C55.6323 168.952 48.4994 168.949 43.2401 168.944C41.1805 168.942 39.527 168.888 39.548 168.822C39.571 168.757 41.2574 168.706 43.3155 168.708C48.5521 168.713 55.6573 168.716 64.2501 168.719C77.0594 168.722 93.1746 168.724 111.334 168.726C129.678 168.728 150.11 168.73 171.334 168.735C179.258 168.737 184.408 168.727 195.445 168.706C201.538 168.695 209.427 168.68 220.569 168.662Z" fill="#FF1B1B"/>
<g filter="url(#filter0_d_89_63)">
<path d="M12 157.479L12 157.241L25.2406 170H64.2501H512.25H542.125L572 140.076V12L537.25 12L526.5 22.7677H299.5L288.75 12L27 12L12 27.0247L12 157.479Z" fill="#470000" fill-opacity="0.2" shape-rendering="crispEdges"/>
</g>
<defs>
<filter id="filter0_d_89_63" x="0" y="0" width="584" height="182" filterUnits="userSpaceOnUse" color-interpolation-filters="sRGB">
<feFlood flood-opacity="0" result="BackgroundImageFix"/>
<feColorMatrix in="SourceAlpha" type="matrix" values="0 0 0 0 0 0 0 0 0 0 0 0 0 0 0 0 0 0 127 0" result="hardAlpha"/>
<feOffset/>
<feGaussianBlur stdDeviation="6"/>
<feComposite in2="hardAlpha" operator="out"/>
<feColorMatrix type="matrix" values="0 0 0 0 1 0 0 0 0 0.105882 0 0 0 0 0.105882 0 0 0 0.5 0"/>
<feBlend mode="normal" in2="BackgroundImageFix" result="effect1_dropShadow_89_63"/>
<feBlend mode="normal" in="SourceGraphic" in2="effect1_dropShadow_89_63" result="shape"/>
</filter>
</defs>
</svg>
