<svg width="588" height="178" viewBox="0 0 588 178" fill="none" xmlns="http://www.w3.org/2000/svg">
<path d="M552.441 147.529C560.052 139.964 569.398 130.564 576.996 123.052L577.427 122.625L577.429 122.01C577.429 121.872 577.43 121.734 577.43 121.597C577.431 121.446 577.431 121.295 577.432 121.144C577.449 116.748 577.473 112.269 577.503 106.85C577.507 106.16 577.511 105.453 577.515 104.73C577.549 98.3063 577.591 90.4151 577.638 79.6621C577.684 69.0993 577.707 59.1902 577.717 50.2346L577.719 49.51L577.2 48.9896C561.882 33.6791 550.454 22.3643 546.002 17.9565C543.639 15.6166 541.248 13.2459 538.802 10.8179L538.318 10.3325L537.623 10.3305C522.665 10.3657 506.216 10.3669 485.205 10.3684C482.841 10.3686 480.418 10.3685 477.935 10.3687C475.922 10.3689 474.256 10.3163 474.21 10.251C474.165 10.1858 475.758 10.1327 477.771 10.1325C480.204 10.1323 482.574 10.1321 484.884 10.1319C484.895 10.1319 484.905 10.1319 484.916 10.1319C506.409 10.1304 522.796 10.1291 537.623 10.093L538.417 10.0953L538.97 10.6498C541.183 12.8466 543.349 14.9936 545.49 17.1139C550.032 21.611 561.708 33.1719 577.367 48.8223L577.955 49.4126L577.953 50.2346C577.943 59.4366 577.919 69.6248 577.872 80.488C577.825 91.3555 577.783 99.3352 577.748 105.798C577.744 106.506 577.74 107.195 577.736 107.866C577.736 107.881 577.736 107.897 577.736 107.913C577.706 113.368 577.683 117.658 577.667 121.865C577.666 121.913 577.666 121.961 577.666 122.01L577.664 122.724L577.163 123.22C577.134 123.249 577.105 123.278 577.076 123.307C569.339 130.952 560.033 140.316 552.555 147.749C551.128 149.168 549.943 150.27 549.912 150.209C549.881 150.148 551.014 148.948 552.441 147.529ZM11.2884 60.1227C11.375 70.6192 11.3654 84.5825 11.3269 96.9121C11.2881 109.327 11.2183 120.564 11.1754 125.852C11.1417 130.014 11.1263 134.548 11.1173 139.733C11.1151 140.989 11.1133 142.282 11.1117 143.618C11.1097 145.19 11.1081 146.82 11.1064 148.506C11.105 149.919 11.1035 151.373 11.1018 152.867L11.1007 153.237L11.3657 153.503C14.4718 156.608 17.8214 159.958 21.4047 163.552C22.4605 164.611 23.4944 165.647 24.507 166.663L24.7782 166.935L25.1678 166.936C47.6909 166.993 62.742 166.995 73.6782 166.989C76.0709 166.988 78.2971 166.986 80.3806 166.985C80.3841 166.985 80.3876 166.985 80.3911 166.985C88.2555 166.979 94.1233 166.974 99.5197 167.001C109.125 167.049 116.969 167.091 126.434 167.174C139.489 167.289 158.084 167.275 170.184 167.196C170.848 167.192 171.527 167.188 172.215 167.183C180.987 167.126 191.788 167.055 207.983 167.003C221.44 166.959 233.167 166.962 243.547 166.975C246.522 166.978 249.36 166.982 252.085 166.987C258.964 166.997 265.12 167.006 270.919 167C306.883 166.967 327.622 167.01 340.658 167.074C350.683 167.124 356.283 167.188 360.323 167.233C361.544 167.247 362.622 167.26 363.637 167.27C372.69 167.357 381.001 167.396 390.999 167.443C393.218 167.453 395.527 167.464 397.938 167.476C406.005 167.516 412.016 167.509 416.73 167.492C418.792 167.485 420.606 167.476 422.317 167.467C422.349 167.467 422.38 167.467 422.412 167.466C422.65 167.465 422.887 167.464 423.122 167.463C423.299 167.462 423.476 167.461 423.653 167.46C423.723 167.459 423.786 167.458 423.832 167.457C423.869 167.457 423.898 167.457 423.916 167.456C423.92 167.456 423.923 167.456 423.927 167.456C424.263 167.451 424.552 167.45 424.611 167.449C424.714 167.449 424.806 167.448 424.853 167.448C425.1 167.447 425.419 167.446 425.632 167.446C426.177 167.445 427.124 167.444 428.588 167.443C429.863 167.44 431.087 167.434 432.618 167.427C432.714 167.426 432.811 167.426 432.907 167.425C434.401 167.418 436.149 167.41 438.342 167.402C440.337 167.394 442.173 167.441 442.44 167.505C442.707 167.57 441.305 167.629 439.31 167.636C437.244 167.644 435.607 167.652 434.112 167.659C434.017 167.659 433.923 167.66 433.828 167.66C432.27 167.668 430.794 167.675 429.204 167.679C428.671 167.68 428.122 167.682 427.61 167.682C426.687 167.685 425.636 167.69 424.379 167.697C424.127 167.698 423.867 167.699 423.601 167.7C421.893 167.709 419.904 167.719 417.661 167.727C412.411 167.746 405.76 167.753 396.981 167.71C394.679 167.698 392.447 167.688 390.268 167.678C380.231 167.63 371.3 167.589 361.691 167.496C360.372 167.483 359.108 167.469 357.756 167.454C353.748 167.408 348.963 167.354 339.695 167.308C327.277 167.247 307.031 167.204 271.272 167.237C265.185 167.242 258.618 167.232 251.622 167.222C248.952 167.218 246.215 167.214 243.421 167.211C233.202 167.199 221.844 167.196 208.851 167.238C193.017 167.289 182.511 167.358 173.777 167.415C173.475 167.417 173.174 167.419 172.872 167.421C172.498 167.423 172.126 167.426 171.757 167.428C158.863 167.512 139.078 167.529 124.656 167.402C115.606 167.323 108.099 167.282 98.5464 167.235C93.8487 167.211 88.8291 167.215 81.1223 167.221C78.959 167.223 76.5805 167.224 73.9412 167.226C62.8783 167.232 47.7164 167.229 25.1678 167.173L24.6796 167.171L24.3398 166.83C23.2201 165.708 22.0749 164.56 20.9031 163.384C17.4391 159.91 14.2295 156.7 11.1987 153.67L10.864 153.334L10.8654 152.867C10.867 151.399 10.8685 149.96 10.8699 148.548C10.8717 146.828 10.8734 145.14 10.8755 143.487C10.877 142.219 10.8787 140.968 10.8808 139.733C10.89 134.256 10.9064 129.092 10.9459 124.216C10.9857 119.305 11.0538 108.43 11.0916 96.3544C11.1296 84.1922 11.1353 71.2801 11.0592 62.0535C11.0513 61.0941 11.0435 60.1264 11.0356 59.16C10.9678 50.8364 10.8987 42.3503 10.7837 35.5175C10.723 32.9453 10.6693 30.1978 10.622 27.3009L10.6237 26.7245L11.0276 26.3245C15.6014 21.6182 20.7411 16.394 26.2274 10.8584L26.7035 10.387L27.3642 10.3889C57.0933 10.1945 93.5921 10.3482 120.148 10.3798C120.628 10.3803 121.109 10.3809 121.589 10.3815C163.823 10.4317 194.517 10.4253 204.98 10.4232C205.468 10.4231 205.912 10.4229 206.311 10.4229C206.667 10.4228 206.989 10.4226 207.273 10.4226C211.535 10.422 215.306 10.4136 219.258 10.4048C219.473 10.4043 219.689 10.4038 219.905 10.4034C224.08 10.3941 228.462 10.3851 233.641 10.3859C243.362 10.3874 252.176 10.3854 260.269 10.3815L260.942 10.3835L261.411 10.8541C265.139 14.5679 268.65 18.066 271.983 21.3846L270.833 20.9093C273.228 20.9075 275.557 20.9056 277.827 20.9037C280.342 20.9016 282.787 20.8997 285.171 20.8976C285.178 20.8976 285.185 20.8976 285.192 20.8976C289.937 20.8935 294.439 20.8895 298.765 20.8864L297.599 21.3683C301.272 17.7003 304.765 14.213 308.16 10.8268L308.649 10.3411L309.33 10.3431C309.349 10.3431 309.367 10.3431 309.386 10.3431C325.447 10.3429 336.296 10.328 344.734 10.3119C347.381 10.3068 349.819 10.3017 352.12 10.2968C357.096 10.2861 361.443 10.2767 365.925 10.2735C374.355 10.2673 382.114 10.2511 389.757 10.2353C390.438 10.2339 391.118 10.2326 391.798 10.2312C400.083 10.2142 408.287 10.1984 416.961 10.198C418.974 10.1979 420.643 10.251 420.686 10.3163C420.726 10.3815 419.125 10.4344 417.113 10.4345C408.688 10.4349 400.685 10.4501 392.403 10.4671C391.72 10.4685 391.033 10.4701 390.346 10.4715C382.723 10.4872 374.822 10.5034 366.235 10.5097C361.914 10.5128 357.808 10.5216 352.931 10.5321C350.603 10.5371 348.097 10.5425 345.308 10.5478C336.741 10.5642 325.749 10.5794 309.534 10.5796C309.466 10.5796 309.398 10.5796 309.33 10.5796L308.746 10.5779L308.327 10.9943C304.938 14.3745 301.45 17.856 297.766 21.5358L298.765 21.1229C294.572 21.126 290.198 21.1298 285.571 21.1338C283.172 21.1359 280.704 21.1381 278.158 21.1402C275.785 21.1422 273.346 21.1442 270.833 21.1461L271.816 21.5522C268.485 18.235 264.972 14.7365 261.244 11.0216L260.844 10.6198L260.269 10.6182C252.206 10.6219 243.426 10.6238 233.751 10.6224C228.858 10.6216 224.704 10.6301 220.547 10.6393C220.313 10.6397 220.08 10.6402 219.847 10.6407C215.93 10.6494 211.949 10.6584 207.447 10.6591C206.846 10.6591 206.077 10.6592 205.153 10.6594C194.675 10.6615 163.857 10.6681 121.468 10.6177C121.337 10.6175 121.205 10.6173 121.074 10.6171C92.6712 10.5833 76.6474 10.5643 64.5824 10.6227C55.0602 10.6687 47.9435 10.6805 42.1027 10.6861C40.9891 10.6872 39.9352 10.6882 38.9303 10.6891C34.5892 10.6926 31.1586 10.6954 27.7299 10.7118C27.6076 10.7124 27.4857 10.7129 27.3642 10.7135L26.8367 10.712L26.4565 11.0885C20.592 16.9861 16.0725 21.5737 11.2368 26.5346L10.9197 26.8485L10.9184 27.3009C10.9414 28.8543 10.9666 30.4321 10.994 32.0611C11.1224 39.6904 11.1984 49.0365 11.2648 57.224C11.2649 57.2362 11.265 57.2485 11.2651 57.2608C11.273 58.2323 11.2807 59.1887 11.2884 60.1227ZM467.235 167.245C469.247 167.246 470.862 167.301 470.844 167.366C470.823 167.431 469.174 167.483 467.161 167.481C462.365 167.476 457.569 167.471 452.772 167.467C450.761 167.465 449.145 167.41 449.163 167.345C449.184 167.28 450.833 167.229 452.846 167.231C457.642 167.235 462.438 167.24 467.235 167.245ZM12.4642 51.7263C12.4774 53.69 12.4361 55.6463 12.3721 56.0929C12.3083 56.5364 12.2458 55.3035 12.2326 53.3414C12.2256 52.3037 12.213 50.5972 12.1959 48.3015C12.1609 43.5835 12.1072 36.3678 12.0461 27.3009L12.0325 27.3336C16.5264 22.7974 21.6682 17.6109 27.3005 11.936L27.3272 11.9095L27.3642 11.9097C47.8038 11.7905 72.7665 11.6722 98.4783 11.6196C102.694 11.6109 106.47 11.6024 110.068 11.5942C125.458 11.5593 137.813 11.3914 167.249 11.3982C198.261 11.4054 229.268 11.4296 260.269 11.4587L260.494 11.4593L260.651 11.6167C264.169 15.1325 267.687 18.6482 271.205 22.1639L270.833 22.0101C280.144 22.0191 289.455 22.0285 298.765 22.0378L298.412 22.1835C301.937 18.6746 305.463 15.1657 308.987 11.6569L309.131 11.5148L309.33 11.5154C382.773 11.5872 456.181 11.6433 529.554 11.5211C532.245 11.5166 534.934 11.5125 537.623 11.5085L537.828 11.5091L537.97 11.652C550.776 24.3874 563.557 37.1146 576.339 49.8532L576.498 50.0126L576.497 50.2346C576.503 65.1469 576.503 80.0653 576.502 95.0081C576.501 102.728 576.492 112.115 576.479 122.01L576.479 122.228L576.326 122.379C566.021 132.615 554.935 143.617 545.676 152.804L545.543 152.936L545.358 152.936C533.022 152.914 522.99 152.895 518.367 152.891C516.353 152.889 514.738 152.834 514.758 152.769C514.78 152.704 516.428 152.652 518.441 152.654C523.037 152.659 533.047 152.677 545.358 152.699L545.446 152.7L545.51 152.637C554.769 143.449 565.862 132.44 576.159 122.211L576.243 122.129L576.243 122.01C576.256 112.229 576.264 102.954 576.265 95.3185C576.267 80.2714 576.266 65.25 576.26 50.2346L576.261 50.1101L576.172 50.0207C563.39 37.2824 550.61 24.5556 537.803 11.8198L537.729 11.7458L537.623 11.7455C535.108 11.7492 532.592 11.7531 530.075 11.7573C456.583 11.8797 382.965 11.9246 309.33 11.9348L309.303 11.9348L309.284 11.9539C305.763 15.4667 302.241 18.9794 298.72 22.4921L298.765 22.4735C289.454 22.4743 280.144 22.4745 270.833 22.4743L270.878 22.4926C267.356 18.9802 263.835 15.4676 260.313 11.9551L260.295 11.9366L260.269 11.9365C229.203 11.9345 198.139 11.9282 167.085 11.921C137.936 11.9143 126.071 11.795 110.736 11.8299C107.129 11.838 103.332 11.8468 99.078 11.8555C73.0671 11.9088 47.8492 12.0299 27.3642 12.1507L27.4706 12.1068C21.8104 17.8105 16.6663 23.0003 12.2037 27.5054L12.2886 27.3009C12.3442 35.4647 12.393 42.0273 12.426 46.4812C12.4436 48.8499 12.4568 50.6287 12.4642 51.7263ZM12.3654 145.354C12.3674 147.756 12.3687 150.265 12.3695 152.867L12.261 152.605C16.3716 156.702 20.8036 161.123 25.428 165.739L25.1678 165.632C43.1143 165.638 63.1241 165.658 81.4064 165.676C95.0234 165.69 107.682 165.703 117.817 165.709C133.519 165.717 143.404 165.774 153.207 165.83C153.312 165.83 153.417 165.831 153.523 165.831C163.319 165.888 173.123 165.943 189.07 165.951C205.149 165.96 227.398 165.922 249.839 165.883C249.857 165.883 249.874 165.883 249.892 165.883C272.214 165.844 294.856 165.686 311.218 165.695C368.236 165.727 403.393 165.889 421.17 166.016C446.465 166.198 474.52 166.066 501.207 166.162L501.273 166.163L501.321 166.115C505.67 161.809 509.977 157.562 514.21 153.414C516.735 150.984 512.678 155.284 508.068 159.809C507.902 159.972 507.736 160.136 507.57 160.3C505.987 161.859 504.603 163.224 502.659 165.15C502.26 165.547 501.875 165.929 501.504 166.298L501.38 166.422L501.207 166.421C498.037 166.416 495.535 166.416 493.223 166.416C486.156 166.415 437.09 166.372 419.729 166.247C402.858 166.126 368.438 166.25 311.055 166.218C294.995 166.209 272.807 166.08 250.365 166.119C250.304 166.119 250.242 166.119 250.181 166.119C227.904 166.158 205.439 166.197 189.092 166.188C172.568 166.179 162.316 166.121 152.392 166.064C152.295 166.064 152.199 166.063 152.102 166.062C142.39 166.007 132.96 165.953 117.838 165.945C107.48 165.939 94.6738 165.926 80.9698 165.913C62.747 165.894 42.9332 165.874 25.1678 165.868L25.2611 165.906C20.6344 161.288 16.2028 156.867 12.0941 152.772L12.1332 152.867C12.1324 150.38 12.1311 147.979 12.1292 145.675C12.1277 143.664 12.1793 141.96 12.2446 141.872C12.3098 141.784 12.3638 143.344 12.3654 145.354ZM13.8377 145.817C13.8474 148.167 13.8567 150.516 13.8655 152.867L13.3174 151.546C17.7215 155.905 22.1253 160.269 26.5279 164.636L25.1678 164.074C79.8369 163.924 134.609 164.011 188.46 164.251C204.715 164.259 227.397 164.278 250.049 164.296C250.305 164.297 250.562 164.297 250.817 164.297C273.224 164.316 295.533 164.334 311.549 164.343C368.567 164.374 403.856 164.417 421.633 164.544C438.209 164.663 442.81 164.664 449.632 164.664C449.818 164.665 450.003 164.665 450.189 164.665C450.202 164.665 450.214 164.664 450.226 164.664C450.46 164.661 450.656 164.659 450.757 164.659C450.963 164.657 451.131 164.656 451.194 164.656C451.339 164.656 451.461 164.656 451.505 164.656C451.682 164.656 451.884 164.656 452.015 164.656C453.23 164.657 457.034 164.664 460.048 164.674C463.137 164.684 465.339 164.697 467.661 164.711C467.896 164.712 468.131 164.714 468.366 164.715C470.458 164.728 472.735 164.742 476.015 164.757C478.013 164.766 479.433 164.826 479.187 164.891C478.94 164.955 477.123 165 475.126 164.991C471.676 164.975 469.253 164.96 467.15 164.947C466.917 164.946 466.684 164.944 466.451 164.943C464.229 164.929 462.282 164.918 459.543 164.909C455.578 164.902 452.63 164.902 449.937 164.901C442.875 164.9 437.557 164.9 420.197 164.775C403.327 164.654 368.956 164.611 311.57 164.579C295.524 164.57 273.19 164.552 250.802 164.533C250.539 164.533 250.276 164.533 250.013 164.533C227.348 164.514 204.698 164.496 188.481 164.487C133.696 164.457 79.893 164.542 25.1678 164.453L26.2604 164.905C21.8872 160.529 17.5072 156.143 13.1188 151.745L13.5843 152.867C13.5897 150.627 13.5954 148.386 13.6015 146.143C13.5997 143.972 13.5982 141.836 13.5968 139.733C13.5908 130.513 13.5879 121.933 13.5852 113.873C13.5753 84.7435 13.5676 62.389 13.4241 41.0783C13.4072 38.566 13.3916 33.8635 13.3757 27.3009L12.9708 28.2757C16.9586 24.285 21.9203 19.324 27.7064 13.5401C27.9044 13.3421 28.1034 13.1432 28.3035 12.9432L27.3642 13.3311C32.3218 13.3218 37.7274 13.3121 43.5441 13.3015C58.6172 13.2741 76.4753 13.2416 96.5949 13.2004C100.81 13.1918 104.587 13.1833 108.185 13.1751C123.575 13.1401 135.723 13.1124 165.16 13.1192C190.827 13.1251 228.782 13.1563 260.269 13.19L259.428 12.8426C263.089 16.5019 266.627 20.0379 269.981 23.3915L270.338 23.7453L270.833 23.7438C277.952 23.7522 284.489 23.7605 290.163 23.7684C293.281 23.7727 296.137 23.777 298.765 23.7812L299.283 23.7797L299.643 23.4179C303.948 19.138 307.386 15.7222 310.228 12.9005L309.33 13.2718C312.63 13.279 315.359 13.2858 317.73 13.2922C319.538 13.297 321.127 13.3017 322.586 13.3059C326.396 13.3167 329.355 13.325 333.234 13.3306C361.161 13.3708 380.714 13.3431 412.747 13.2855C414.754 13.2819 416.504 13.3319 416.656 13.397C416.807 13.4622 415.301 13.518 413.294 13.5217C381.214 13.5794 361.363 13.6075 333.055 13.5668C329.006 13.561 325.837 13.5519 321.96 13.5409C320.522 13.5368 318.987 13.5324 317.272 13.5278C315.023 13.5218 312.44 13.5153 309.33 13.5084L310.395 13.068C307.572 15.8711 304.139 19.2822 299.81 23.5854L299.381 24.0159L298.765 24.0176C296.095 24.0134 293.183 24.009 289.995 24.0046C284.367 23.9968 277.888 23.9886 270.833 23.9803L270.241 23.982L269.814 23.5589C266.461 20.2063 262.923 16.6702 259.261 13.01L260.269 13.4264C228.813 13.3928 190.868 13.3616 165.249 13.3557C136.1 13.3489 124.188 13.3759 108.853 13.4107C105.247 13.4189 101.453 13.4276 97.1999 13.4363C77.0525 13.4776 59.1461 13.5102 44.065 13.5377C38.0357 13.5487 32.4543 13.5588 27.3642 13.5683L28.4709 13.1113C28.4045 13.1777 28.3381 13.244 28.2719 13.3102C22.13 19.4499 17.06 24.5193 13.1384 28.444L13.6133 27.3009C13.6279 33.2872 13.6416 37.3859 13.6556 39.4632C13.8042 61.5211 13.8121 84.8473 13.8219 114.247C13.8246 122.258 13.8274 130.722 13.8333 139.733C13.8346 141.734 13.836 143.762 13.8377 145.817ZM528.192 13.3382C526.183 13.3415 524.441 13.2912 524.299 13.2261C524.157 13.1609 525.668 13.1053 527.676 13.102C531.327 13.0959 534.625 13.0902 537.623 13.0848L536.857 12.7681C540.909 16.7952 544.19 20.0553 546.964 22.8108C554.791 30.5876 558.574 34.3461 564.227 39.987C567.932 43.6838 571.605 47.3481 575.23 50.9651L574.927 50.2346C574.924 65.2867 574.922 79.7616 574.921 93.1247C574.92 103.506 574.919 113.218 574.917 122.01L575.224 121.272C563.589 132.855 554.228 142.171 548.298 148.066C546.87 149.485 545.686 150.587 545.655 150.527C545.624 150.465 546.756 149.265 548.183 147.847C554.093 141.973 563.43 132.68 575.057 121.105L574.681 122.01C574.682 113.314 574.683 103.709 574.685 93.4351C574.686 80.003 574.688 65.4252 574.69 50.2346L575.063 51.1325C571.461 47.5394 567.812 43.8976 564.127 40.2214C558.644 34.7502 555.073 31.2017 547.42 23.5978C544.532 20.7289 541.063 17.282 536.69 12.936L537.623 13.3219C534.768 13.327 531.639 13.3324 528.192 13.3382Z" fill="#FF1B1B"/>
<g filter="url(#filter0_d_89_78)">
<path d="M514.758 152.484H545.358L575.958 122.01V50.2346L537.623 12L309.33 12L298.765 22.5371H270.833L260.269 12L27.3642 12L12 27.3009L12 139.733L12 152.867L25.1678 166H501.207L514.758 152.484Z" fill="#470000" fill-opacity="0.2" shape-rendering="crispEdges"/>
</g>
<defs>
<filter id="filter0_d_89_78" x="0" y="0" width="587.958" height="178" filterUnits="userSpaceOnUse" color-interpolation-filters="sRGB">
<feFlood flood-opacity="0" result="BackgroundImageFix"/>
<feColorMatrix in="SourceAlpha" type="matrix" values="0 0 0 0 0 0 0 0 0 0 0 0 0 0 0 0 0 0 127 0" result="hardAlpha"/>
<feOffset/>
<feGaussianBlur stdDeviation="6"/>
<feComposite in2="hardAlpha" operator="out"/>
<feColorMatrix type="matrix" values="0 0 0 0 1 0 0 0 0 0.105882 0 0 0 0 0.105882 0 0 0 0.5 0"/>
<feBlend mode="normal" in2="BackgroundImageFix" result="effect1_dropShadow_89_78"/>
<feBlend mode="normal" in="SourceGraphic" in2="effect1_dropShadow_89_78" result="shape"/>
</filter>
</defs>
</svg>
