<svg width="383" height="168" viewBox="0 0 383 168" fill="none" xmlns="http://www.w3.org/2000/svg">
<path d="M13.2889 81.8565C13.2866 80.084 13.2881 78.2187 13.2913 76.3024L14.7761 77.7871C13.8609 77.7856 12.934 77.7836 12 77.7815L10.5267 77.7873L10.5209 76.3024C10.5269 73.6973 10.5343 71.037 10.5386 68.4198L10.5329 66.9641L12 66.9584C13.8965 66.9615 15.7704 66.9628 17.5841 66.9608L16.125 68.4198C16.1234 66.962 16.1194 65.543 16.1124 64.1823C16.1118 64.0704 16.1112 63.9585 16.1106 63.8466C16.0937 60.5848 16.0692 57.2612 16.0396 53.24C16.0358 52.7279 16.0318 52.2029 16.0279 51.6668C16.0032 48.305 15.9751 44.4016 15.9443 39.5936L17.5841 41.2334C15.8466 41.2445 13.9909 41.256 12 41.2678L10.3325 41.2743L10.3259 39.5936C10.3241 39.2822 10.3222 38.9675 10.3204 38.6493C10.2632 28.8664 10.2408 19.8391 10.237 12L10.2301 10.2439L12 10.237C25.6301 10.2303 35.6679 10.2797 39.8396 10.3002C53.0184 10.3652 67.0768 10.3666 86.2595 10.3684C88.0136 10.3686 89.8113 10.3685 91.6545 10.3687C93.1479 10.3689 94.3842 10.3163 94.4183 10.251C94.4518 10.1858 93.2693 10.1327 91.7755 10.1325C89.9706 10.1323 88.2116 10.1321 86.4976 10.1319C86.4898 10.1319 86.482 10.1319 86.4742 10.1319C67.171 10.13 53.4182 10.1286 40.5501 10.0652C36.2831 10.0442 25.9861 9.9936 12 10.0007L9.99292 10.0085L10.0007 12C10.0048 20.0212 10.0278 29.2558 10.0862 39.2622C10.0869 39.3731 10.0875 39.4836 10.0882 39.5936L10.0957 41.513L12 41.5055C13.9874 41.4939 15.8435 41.4825 17.5841 41.4715L15.7062 39.5936C15.7389 44.7678 15.7686 48.92 15.7946 52.4593C15.7985 52.9843 15.8023 53.496 15.806 53.9935C15.8061 54.0052 15.8062 54.0169 15.8063 54.0286C15.8361 58.0761 15.8596 61.2598 15.8759 64.3814C15.8762 64.4478 15.8765 64.5141 15.8767 64.5805C15.8832 65.8238 15.8871 67.1081 15.889 68.4198L17.5841 66.7248C15.7635 66.7274 13.8901 66.7264 12 66.7235L10.2971 66.7301L10.3037 68.4198C10.2997 71.0475 10.292 73.7073 10.2857 76.3024L10.2924 78.0233L12 78.0167C12.9353 78.0189 13.8622 78.021 14.7761 78.0227L13.0557 76.3024C13.0522 78.2452 13.0504 80.1293 13.0527 81.9112C13.0547 83.4048 13.1092 84.6044 13.1745 84.5892C13.2397 84.5731 13.2908 83.3493 13.2889 81.8565ZM371.508 112.101C371.446 117.684 371.434 124.59 371.446 131.423L371.448 132.069L370.797 132.072C369.998 132.073 369.2 132.075 368.405 132.077L369.059 131.423C369.064 133.313 369.07 135.184 369.078 137.008C369.085 138.8 369.094 140.558 369.103 142.258L368.405 141.559C369.216 141.554 370.015 141.55 370.797 141.545L371.507 141.542L371.51 142.258C371.543 147.704 371.583 152.358 371.613 155.261L371.616 156.074L370.797 156.077C370.502 156.08 370.226 156.083 369.968 156.086C366.132 156.128 361.87 156.142 356.785 156.15C355.619 156.152 354.409 156.153 353.158 156.155C349.026 156.161 344.429 156.167 339.382 156.186C320.843 156.254 308.757 156.257 300.126 156.251C298.35 156.25 296.698 156.248 295.152 156.246C295.15 156.246 295.147 156.246 295.144 156.246C289.309 156.24 284.954 156.236 280.95 156.263C273.823 156.31 268.002 156.353 260.978 156.436C251.291 156.55 237.494 156.537 228.515 156.458C228.022 156.454 227.518 156.449 227.008 156.445C220.499 156.387 212.484 156.317 200.466 156.264C190.481 156.22 181.779 156.224 174.076 156.236C171.869 156.24 169.763 156.244 167.741 156.248C162.637 156.258 158.068 156.267 153.765 156.262C127.079 156.229 111.689 156.272 102.017 156.336C94.5776 156.385 90.4221 156.449 87.4243 156.495C86.5183 156.509 85.7181 156.521 84.9649 156.531C78.2474 156.618 72.0802 156.657 64.6613 156.704C63.0148 156.715 61.3019 156.726 59.5122 156.738C53.5265 156.777 49.0658 156.77 45.568 156.754C44.0381 156.746 42.6917 156.737 41.4222 156.729C41.3987 156.728 41.3753 156.728 41.3519 156.728C41.1748 156.727 40.9993 156.726 40.8249 156.724C40.6934 156.724 40.5621 156.722 40.4306 156.722C40.3788 156.72 40.3325 156.72 40.2979 156.719C40.2704 156.718 40.2492 156.718 40.2354 156.718C40.2328 156.718 40.2302 156.718 40.2276 156.717C39.9785 156.713 39.764 156.711 39.7201 156.711C39.6433 156.71 39.5753 156.71 39.5406 156.71C39.3568 156.709 39.1201 156.708 38.9628 156.708C38.5583 156.707 37.8555 156.706 36.7688 156.705C35.8228 156.701 34.9149 156.695 33.7785 156.688C33.707 156.688 33.6354 156.687 33.5638 156.687C32.4556 156.679 31.1587 156.671 29.5312 156.663C28.0506 156.656 26.6886 156.702 26.4902 156.767C26.2923 156.832 27.3325 156.89 28.813 156.898C30.3463 156.905 31.5609 156.913 32.6699 156.92C32.7402 156.921 32.8104 156.921 32.8807 156.922C34.0369 156.929 35.1321 156.936 36.3121 156.941C36.7072 156.942 37.1145 156.943 37.4949 156.944C38.1798 156.947 38.9593 156.952 39.8918 156.958C40.0792 156.959 40.2721 156.96 40.4697 156.962C41.7368 156.971 43.2126 156.981 44.877 156.989C48.7726 157.007 53.7085 157.014 60.2227 156.971C61.931 156.96 63.5869 156.949 65.2039 156.939C72.652 156.892 79.2787 156.85 86.4093 156.758C87.3877 156.745 88.326 156.73 89.3293 156.715C92.3031 156.67 95.8537 156.615 102.731 156.57C111.945 156.508 126.969 156.465 153.504 156.498C158.02 156.504 162.893 156.494 168.084 156.484C170.066 156.48 172.097 156.476 174.17 156.473C181.753 156.46 190.181 156.457 199.822 156.499C211.571 156.551 219.368 156.619 225.848 156.676C226.072 156.678 226.296 156.68 226.52 156.683C226.798 156.685 227.074 156.687 227.347 156.69C236.915 156.774 251.596 156.79 262.298 156.664C269.013 156.585 274.584 156.544 281.672 156.496C285.158 156.473 288.883 156.477 294.602 156.482C296.207 156.484 297.972 156.486 299.93 156.487C308.717 156.493 320.987 156.491 339.733 156.421C344.621 156.403 349.018 156.397 353.127 156.392C354.403 156.39 355.656 156.388 356.883 156.386C361.845 156.378 366.473 156.365 370.797 156.32L371.859 156.316L371.855 155.261C371.854 155.133 371.852 155.004 371.851 154.876C371.824 152.374 371.783 147.787 371.748 142.258L371.744 141.303L370.797 141.307C370.017 141.312 369.219 141.316 368.405 141.321L369.341 142.258C369.331 140.436 369.321 138.536 369.313 136.594C369.306 134.883 369.3 133.152 369.295 131.423L368.405 132.313C369.203 132.311 370.001 132.31 370.797 132.308L371.686 132.305L371.682 131.423C371.67 124.86 371.683 118.482 371.738 113.534C371.746 112.822 371.753 112.104 371.761 111.387C371.829 105.21 371.898 98.9131 372.013 93.843C372.465 79.6286 372.527 58.2014 372.499 37.5012L372.497 36.9774L372.211 36.5543C366.189 27.5848 360.257 18.7934 355.078 11.0943L354.588 10.3686L353.725 10.372C352.36 10.375 351.023 10.3777 349.719 10.3798C349.362 10.3803 349.006 10.3809 348.649 10.3815C317.31 10.4317 294.534 10.4253 286.77 10.4232C286.408 10.423 286.079 10.4229 285.783 10.4229C285.518 10.4228 285.279 10.4226 285.068 10.4226C281.906 10.422 279.108 10.4136 276.176 10.4048C276.016 10.4043 275.855 10.4038 275.695 10.4033C272.597 10.3941 269.346 10.3851 265.503 10.3859C251.212 10.3888 239.562 10.3781 229.482 10.3666C228.975 10.3661 228.472 10.3655 227.973 10.365L226.331 10.3714L226.338 12C226.336 13.3391 226.335 14.6516 226.333 15.94C226.333 15.9452 226.333 15.9504 226.333 15.9556C226.332 16.9669 226.331 17.9634 226.33 18.9462L227.973 17.3032C223.663 17.2982 219.617 17.2937 215.737 17.2913L217.391 18.9462C217.393 16.9193 217.393 14.9376 217.393 12.9872C217.394 12.6551 217.394 12.3261 217.394 12L217.387 10.3366L215.737 10.343C204.359 10.3421 196.581 10.3275 190.494 10.3119C188.53 10.3068 186.721 10.3017 185.013 10.2968C181.321 10.2861 178.096 10.2767 174.77 10.2735C168.514 10.2673 162.757 10.2511 157.086 10.2353C156.58 10.2339 156.075 10.2326 155.571 10.2312C149.423 10.2142 143.335 10.1984 136.899 10.198C135.405 10.1979 134.167 10.251 134.135 10.3163C134.105 10.3815 135.293 10.4344 136.786 10.4345C143.038 10.4349 148.976 10.4501 155.122 10.4671C155.629 10.4685 156.138 10.4701 156.648 10.4715C162.305 10.4872 168.168 10.5034 174.54 10.5096C177.746 10.5128 180.793 10.5216 184.412 10.5321C186.139 10.5371 187.999 10.5425 190.069 10.5478C196.27 10.5637 204.183 10.5787 215.737 10.5795L217.151 10.574L217.157 12C217.157 12.2903 217.157 12.5829 217.157 12.8779C217.157 14.8623 217.156 16.8791 217.155 18.9462L215.737 17.5278C219.601 17.5303 223.64 17.5347 227.973 17.5397L226.566 18.9462C226.567 18.0557 226.568 17.1529 226.57 16.2367C226.571 14.8563 226.573 13.445 226.574 12L226.569 10.6072L227.973 10.6017C228.391 10.6022 228.812 10.6027 229.237 10.6031C239.342 10.6146 251.051 10.6253 265.421 10.6224C269.052 10.6216 272.134 10.6301 275.219 10.6393C275.392 10.6397 275.565 10.6402 275.738 10.6407C278.645 10.6494 281.599 10.6584 284.94 10.6591C285.386 10.6591 285.956 10.6592 286.642 10.6593C294.417 10.6615 317.285 10.6681 348.739 10.6177C348.837 10.6175 348.934 10.6173 349.032 10.6171C350.649 10.6145 352.213 10.612 353.725 10.6096L354.462 10.6067L354.88 11.2265C362.56 22.6583 367.865 30.5609 371.965 36.7192L372.201 37.0686L372.203 37.5012C372.197 39.8751 372.187 42.0307 372.174 44.0386C372.128 51.1044 372.116 56.3853 372.111 60.7194C372.11 61.5458 372.109 62.3278 372.108 63.0734C372.104 66.2947 372.101 68.8404 372.085 71.3846C372.036 79.081 371.954 84.6001 371.803 91.2782C371.674 96.9394 371.599 103.875 371.532 109.95C371.532 109.959 371.532 109.968 371.532 109.977C371.524 110.698 371.516 111.408 371.508 112.101ZM15.5219 141.372C14.7937 140.069 14.163 139.048 14.1126 139.092C14.063 139.137 14.6136 140.231 15.3422 141.535C17.0783 144.642 18.8144 147.749 20.5504 150.855C21.2786 152.158 21.9095 153.179 21.9598 153.136C22.0093 153.091 21.4586 151.996 20.7302 150.693C18.9941 147.586 17.258 144.479 15.5219 141.372ZM370.333 105.871C370.319 107.328 370.361 108.779 370.425 109.111C370.489 109.44 370.551 108.525 370.564 107.069C370.571 106.299 370.584 105.033 370.601 103.329C370.703 93.1409 370.962 67.2552 371.106 37.5012L371.106 37.4061L371.054 37.3292C367.697 32.2629 364.247 27.0652 360.758 21.8212C359.025 19.2171 357.473 16.8839 355.994 14.6606C355.343 13.6812 354.706 12.7208 354.074 11.7661L353.948 11.5787L353.725 11.5795C343.755 11.5265 334.361 11.3921 314.768 11.3982C285.829 11.4073 256.897 11.4432 227.973 11.4818L227.453 11.4839L227.455 12C227.458 14.3154 227.461 16.6308 227.464 18.9462L227.973 18.4373C223.894 18.4428 219.815 18.4483 215.737 18.4538L216.229 18.9462C216.226 16.6307 216.223 14.3153 216.22 12L216.218 11.5149L215.737 11.5168C161.582 11.5879 107.453 11.6425 53.3506 11.5211C39.5533 11.4902 25.7786 11.4729 12 11.4641L11.462 11.4662L11.4641 12C11.4582 21.1936 11.456 30.3888 11.456 39.5936L11.4581 40.1398L12 40.1377C13.861 40.1377 15.7223 40.1376 17.5841 40.1375L17.0403 39.5936C17.0404 41.2129 17.0406 42.8326 17.0408 44.4526C17.0418 51.1953 17.0538 59.6523 17.0704 68.4198L17.5841 67.9061C15.7322 67.9096 13.8664 67.9133 12 67.9171L11.4954 67.9191L11.4973 68.4198C11.5028 71.0586 11.5085 73.6985 11.5143 76.3024L11.5162 76.79L12 76.7881C12.9306 76.786 13.8565 76.784 14.7761 76.7819L14.2966 76.3024C14.3052 80.0582 14.3138 83.7086 14.3221 87.1373L14.7761 86.6833C13.8332 86.6856 12.907 86.6878 12 86.69L11.551 86.6917L11.5528 87.1373C11.5591 89.7711 11.5652 92.2432 11.5705 94.4943L11.5722 94.9255L12 94.9238C12.9678 94.9215 13.8947 94.9193 14.7761 94.9173L14.3531 94.4943C14.3614 98.0649 14.3674 100.888 14.3697 102.651C14.3717 104.145 14.4262 105.344 14.4915 105.329C14.5567 105.313 14.6078 104.09 14.6059 102.596C14.6036 100.848 14.5977 98.0434 14.5894 94.4943L14.7761 94.681C13.895 94.6831 12.9681 94.6853 12 94.6876L11.8075 94.6883L11.8068 94.4943C11.8014 92.2443 11.7954 89.772 11.789 87.1373L11.7882 86.9271L12 86.9262C12.907 86.924 13.8331 86.9218 14.7761 86.9195L14.5583 87.1373C14.55 83.7088 14.5414 80.0582 14.5328 76.3024L14.7761 76.5457C13.8564 76.5478 12.9305 76.5499 12 76.5519L11.7514 76.5529L11.7505 76.3024C11.7446 73.6982 11.7389 71.0581 11.7335 68.4198L11.7325 68.1543L12 68.1533C13.8667 68.1495 15.7325 68.1458 17.5841 68.1423L17.3065 68.4198C17.2902 59.735 17.2783 51.3635 17.2773 44.6829C17.2771 42.9861 17.2769 41.2897 17.2767 39.5936L17.5841 39.901C15.7223 39.9011 13.861 39.9012 12 39.9012L11.6937 39.9024L11.6925 39.5936C11.6925 30.3887 11.6947 21.1935 11.7007 12L11.6995 11.7018L12 11.7007C25.6495 11.7095 39.2953 11.7267 52.9641 11.7573C107.156 11.8789 161.439 11.924 215.737 11.9346L215.802 11.9344L215.802 12C215.801 14.3154 215.801 16.6308 215.801 18.9462L215.737 18.882C219.815 18.8826 223.894 18.883 227.973 18.8832L227.91 18.9462C227.91 16.6308 227.91 14.3154 227.91 12L227.91 11.9375L227.973 11.9373C256.949 11.9376 285.925 11.9301 314.889 11.921C334.601 11.9148 343.661 11.8153 353.725 11.824L353.818 11.8237L353.871 11.9021C354.415 12.7165 354.964 13.5394 355.523 14.3797C357.005 16.6082 358.565 18.9545 360.314 21.5826C363.89 26.9569 367.424 32.2807 370.856 37.4618L370.868 37.4794L370.868 37.5012C370.725 66.5387 370.473 91.7509 370.371 101.978C370.353 103.736 370.34 105.056 370.333 105.871ZM355.497 154.896C338.819 154.878 315.11 154.91 294.391 154.938C284.287 154.952 274.893 154.965 267.373 154.97C255.721 154.979 248.386 155.035 241.112 155.091C241.034 155.092 240.956 155.092 240.878 155.093C233.609 155.149 226.334 155.204 214.5 155.213C202.569 155.222 186.06 155.183 169.408 155.144C169.395 155.144 169.382 155.144 169.368 155.144C152.805 155.106 136.003 154.947 123.862 154.956C81.5525 154.988 55.4643 155.15 42.2732 155.278C36.5706 155.333 30.6789 155.359 24.684 155.372L24.6197 155.372L24.5878 155.315C20.406 147.845 16.1462 140.178 11.8918 132.553L11.8763 132.526L11.8761 132.493C11.8698 123.297 11.8454 114.144 11.7514 105.329L11.7505 105.082L12 105.081C12.669 105.073 13.3361 105.066 14.0011 105.058C15.6965 105.017 14.4215 104.927 12 104.883L11.552 104.885L11.5537 105.329C11.5304 106.621 11.5204 108.239 11.5384 109.906C11.5398 110.079 11.5413 110.252 11.5427 110.425C11.5563 112.074 11.5673 113.516 11.5762 115.547C11.5835 118.49 11.584 120.68 11.5844 122.679C11.5846 124.078 11.5879 127.696 11.5948 132.493L11.5952 132.6L11.6461 132.69C15.1595 138.975 19.9738 147.579 24.3818 155.43L24.4821 155.608L24.684 155.607C32.1651 155.583 39.0564 155.55 43.3428 155.509C55.8618 155.388 81.4025 155.511 123.983 155.479C135.9 155.47 152.365 155.342 169.017 155.381C169.063 155.381 169.108 155.381 169.154 155.381C185.684 155.419 202.354 155.458 214.484 155.449C226.746 155.44 234.353 155.382 241.717 155.326C241.789 155.325 241.86 155.324 241.932 155.324C249.138 155.268 256.136 155.214 267.357 155.206C275.043 155.201 284.546 155.188 294.715 155.174C315.345 155.146 338.723 155.115 355.259 155.132C356.751 155.134 358.015 155.082 358.081 155.017C358.146 154.952 356.988 154.898 355.497 154.896ZM355.153 153.424C308.289 153.162 261.164 153.235 214.953 153.512C202.892 153.521 186.06 153.539 169.251 153.558C169.061 153.558 168.871 153.558 168.681 153.559C152.055 153.577 135.501 153.595 123.616 153.604C81.3069 153.636 55.121 153.679 41.9297 153.806C32.6028 153.896 28.3851 153.918 24.684 153.924L25.8527 154.61C25.277 153.581 24.7283 152.596 24.1327 151.528C24.0655 151.407 23.9983 151.287 23.9311 151.166C23.9268 151.158 23.9225 151.15 23.9183 151.142C23.8365 150.989 23.7671 150.861 23.7312 150.795C23.6582 150.661 23.5981 150.551 23.5756 150.511C23.5236 150.416 23.4796 150.337 23.464 150.309C23.4002 150.194 23.327 150.063 23.2797 149.978C22.84 149.192 21.46 146.729 20.3629 144.78C19.2387 142.782 18.4323 141.361 17.5816 139.863C17.4954 139.711 17.4093 139.56 17.3232 139.408C16.5562 138.058 15.7218 136.588 14.5242 134.47C13.7946 133.179 13.2296 132.288 13.2618 132.479C13.2946 132.67 13.9117 133.87 14.641 135.16C15.9009 137.389 16.7888 138.952 17.5593 140.309C17.6447 140.459 17.7303 140.61 17.8157 140.76C18.63 142.194 19.3427 143.451 20.3395 145.222C21.7778 147.789 22.8427 149.699 23.8157 151.445C24.4387 152.563 25.0241 153.613 25.646 154.726L24.684 154.16C28.628 154.154 33.2596 154.131 42.9954 154.037C55.514 153.916 81.018 153.872 123.601 153.84C135.508 153.831 152.08 153.813 168.693 153.795C168.888 153.795 169.084 153.794 169.279 153.794C186.097 153.776 202.904 153.757 214.937 153.748C261.842 153.714 307.777 153.832 354.911 153.66C360.502 153.666 365.782 153.67 370.797 153.672L369.208 155.261C369.209 152.496 369.211 149.812 369.212 147.201C369.212 145.524 369.213 143.877 369.214 142.258L370.797 143.841C369.993 143.84 369.195 143.84 368.405 143.839L366.817 143.833L366.823 142.258C366.825 138.503 366.828 134.9 366.831 131.423L366.838 129.843L368.405 129.85C369.209 129.85 370.006 129.851 370.797 129.852L369.227 131.423C369.243 119.127 369.278 108.38 369.373 97.9693C369.404 94.5024 369.431 85.4149 369.464 72.2824C369.474 68.434 369.484 64.2123 369.495 59.6498C369.512 52.9753 369.53 45.5649 369.551 37.5012L369.761 38.1945C366.742 33.6585 363.557 28.874 360.221 23.862C358.489 21.2579 356.937 18.9246 355.458 16.7014C354.54 15.3201 353.649 13.9811 352.761 12.6455L353.725 13.1604C344.286 13.1328 334.989 13.1133 316.318 13.1192C292.075 13.1267 253.06 13.1752 227.973 13.2177L229.191 12C229.195 14.4581 229.199 16.7825 229.203 18.9462L229.198 20.181L227.973 20.1762C227.738 20.1766 227.505 20.177 227.274 20.1775C222.745 20.186 218.957 20.1942 215.737 20.2021L214.476 20.1972L214.481 18.9462C214.474 16.2722 214.468 13.9897 214.462 12L215.737 13.2749C213.74 13.2809 212.039 13.2867 210.532 13.2922C209.191 13.297 208.012 13.3017 206.929 13.3059C204.102 13.3167 201.906 13.325 199.028 13.3306C178.305 13.3708 163.796 13.3431 140.026 13.2855C138.537 13.2819 137.238 13.3319 137.126 13.397C137.014 13.4622 138.131 13.518 139.62 13.5217C163.425 13.5794 178.155 13.6075 199.161 13.5668C202.165 13.561 204.516 13.5519 207.394 13.5409C208.461 13.5368 209.6 13.5324 210.872 13.5278C212.286 13.5227 213.879 13.5172 215.737 13.5115L214.225 12C214.231 13.9794 214.237 16.2599 214.244 18.9462L214.238 20.4328L215.737 20.4386C218.974 20.4306 222.8 20.4223 227.399 20.4137C227.589 20.4133 227.78 20.413 227.973 20.4126L229.433 20.4183L229.439 18.9462C229.435 16.784 229.431 14.4595 229.427 12L227.973 13.4541C253.013 13.4117 292.047 13.3632 316.252 13.3557C335.048 13.3498 344.186 13.3694 353.725 13.3975L352.564 12.7774C353.36 13.9746 354.161 15.1794 354.987 16.4205C356.468 18.6483 358.027 20.993 359.776 23.6201C363.201 28.7679 366.47 33.6784 369.564 38.3264L369.314 37.5012C369.293 45.4179 369.275 52.701 369.259 59.2633C369.248 63.8199 369.238 68.0317 369.228 71.8647C369.194 85.2618 369.168 93.8007 369.141 96.7708C369.043 107.57 369.006 118.78 368.99 131.423L370.797 129.616C370.005 129.615 369.208 129.614 368.405 129.613L366.602 129.606L366.595 131.423C366.591 134.916 366.588 138.521 366.586 142.258L366.579 144.069L368.405 144.076C369.196 144.076 369.993 144.077 370.797 144.077L368.977 142.258C368.977 143.97 368.976 145.709 368.975 147.479C368.974 150.01 368.973 152.603 368.971 155.261L370.797 153.436C365.826 153.433 360.623 153.43 355.153 153.424ZM54.3617 13.3382C55.8519 13.3415 57.1447 13.2912 57.2505 13.2261C57.3556 13.1609 56.2344 13.1053 54.7442 13.102C46.8729 13.0843 41.2144 13.0697 36.7908 13.0583C28.6033 13.0371 24.6463 13.0268 18.7202 13.0286C16.4677 13.0293 14.2266 13.0299 12 13.0305L13.0305 12C13.0331 21.5438 13.0349 30.8217 13.0363 39.5936L12 38.5574C13.8856 38.5571 15.7477 38.5568 17.5841 38.5565L18.6252 38.5606L18.6212 39.5936C18.6213 40.758 18.6215 41.912 18.6217 43.0551C18.6231 52.3408 18.6244 60.9044 18.6263 68.4198L18.6222 69.4661L17.5841 69.462C15.6516 69.4625 13.7884 69.4631 12 69.4637L13.0439 68.4198C13.0448 71.2408 13.0459 73.8756 13.0472 76.3024L12 75.2552C12.9583 75.2547 13.884 75.2542 14.7761 75.2536L15.8289 75.2577L15.8248 76.3024C15.8268 79.3992 15.8291 82.0891 15.832 84.3159C15.834 85.8098 15.8885 87.0092 15.9538 86.9939C16.019 86.9773 16.0702 85.7541 16.0682 84.2613C16.0654 82.0496 16.063 79.3785 16.061 76.3024L16.066 75.0224L14.7761 75.0174C13.8843 75.018 12.9585 75.0185 12 75.019L13.2834 76.3024C13.2821 73.8771 13.281 71.2424 13.2801 68.4198L12 69.6999C13.7878 69.6993 15.651 69.6987 17.5841 69.6982L18.8575 69.7032L18.8625 68.4198C18.8605 60.9745 18.8593 52.4922 18.8579 43.2854C18.8577 42.0673 18.8575 40.8364 18.8573 39.5936L18.8623 38.3254L17.5841 38.3204C15.7481 38.3207 13.886 38.3209 12 38.3212L13.2725 39.5936C13.2711 30.8319 13.2695 21.5562 13.267 12L12 13.267C14.2027 13.2664 16.4203 13.2658 18.6499 13.2651C24.3976 13.2633 28.1334 13.2729 36.1389 13.2936C40.5582 13.3051 46.2803 13.32 54.3617 13.3382Z" fill="#FF1B1B"/>
<g filter="url(#filter0_d_89_94)">
<path d="M14.7761 105.329V94.4943H12V87.1373H14.7761V76.3024H12V68.4198H17.5841V39.5936H12V12H215.737V18.9462H227.973V12H353.725L370.797 37.5012V131.423H368.405V142.258H370.797V155.261H24.684L12 132.493V105.329H14.7761Z" fill="#470000" fill-opacity="0.2" shape-rendering="crispEdges"/>
</g>
<defs>
<filter id="filter0_d_89_94" x="0" y="0" width="382.797" height="167.261" filterUnits="userSpaceOnUse" color-interpolation-filters="sRGB">
<feFlood flood-opacity="0" result="BackgroundImageFix"/>
<feColorMatrix in="SourceAlpha" type="matrix" values="0 0 0 0 0 0 0 0 0 0 0 0 0 0 0 0 0 0 127 0" result="hardAlpha"/>
<feOffset/>
<feGaussianBlur stdDeviation="6"/>
<feComposite in2="hardAlpha" operator="out"/>
<feColorMatrix type="matrix" values="0 0 0 0 1 0 0 0 0 0.105882 0 0 0 0 0.105882 0 0 0 0.5 0"/>
<feBlend mode="normal" in2="BackgroundImageFix" result="effect1_dropShadow_89_94"/>
<feBlend mode="normal" in="SourceGraphic" in2="effect1_dropShadow_89_94" result="shape"/>
</filter>
</defs>
</svg>
