<svg width="1920" height="477" viewBox="0 0 1920 477" fill="none" xmlns="http://www.w3.org/2000/svg">
<path d="M1251.28 44.8329L1327.96 60.5293L1557.76 50.7519L1776.83 23.9043L1957.77 126.803L1964.83 468.207H1800.34H1492.81H877.757H262.701H-44.827L-41.4401 126.803V18.6721L6.92969 77.9698L466.059 44.4625L436.643 57.3809L562.685 51.0953L659.311 57.728L755.937 55.8258L852.564 70.9936L952.243 64.4534L1055.69 69.7184L1051.92 57.9132L1151.6 51.373L1251.28 44.8329Z" fill="url(#paint0_linear_334_205)"/>
<path d="M936.625 73.562C947.82 73.7313 910.603 75.5807 935.379 75.3049C930.237 75.7335 925.064 76.167 919.922 76.5956C918.583 76.1835 917.213 75.7747 915.875 75.3626C922.778 74.7625 929.686 74.162 936.625 73.5596C936.625 73.5604 936.625 73.5612 936.625 73.562ZM945.655 66.7088C939.413 68.5443 919.307 70.2436 941.139 70.1269C942.836 69.5262 944.575 68.9229 946.271 68.3223C948.341 68.2902 950.415 68.2578 952.491 68.2253L952.051 68.2285C957.542 68.7834 963.043 69.3385 968.521 69.8914C971.247 69.8438 973.971 69.7957 976.698 69.7502C980.115 70.7738 983.502 71.798 986.919 72.8237C983.853 72.5432 980.745 72.2585 977.679 71.9781C969.21 72.0267 961.4 71.8666 951.883 71.5256L952.707 71.5196C948.545 71.8555 944.053 72.195 939.033 72.5636C940.493 72.669 941.956 72.7725 943.416 72.8779C935.032 73.0858 926.651 73.2925 918.302 73.4981C925.512 72.6891 933.573 71.7866 940.255 71.0351C929.443 70.4112 910.574 72.3913 900.746 73.3142C887.362 74.5719 890.351 73.7419 880.419 74.6589C878.834 74.8044 878.686 75.311 875.547 75.5254C869.063 75.9669 860.076 76.522 852.949 76.8636L851.651 76.8051C841.507 75.0291 835.242 73.6695 845.872 74.6464C847.883 74.9737 849.871 75.291 851.84 75.5998L852.869 75.6461C876.402 74.0977 897.098 71.9726 920.708 70.7372C913.853 69.8462 927.301 68.5076 945.655 66.7088ZM467.504 61.9287C475.381 60.8853 491.503 60.3439 502.439 60.2501C502.452 60.2495 502.464 60.2488 502.477 60.2482C504.884 60.2277 510.366 60.8189 502.523 61.1748C489.738 61.752 483.49 60.7026 476.826 61.9588C473.816 61.937 470.656 61.9415 467.504 61.9287ZM439.728 63.3945C438.549 63.4033 437.625 63.3836 436.941 63.3432L434.243 51.9149C436.251 51.2827 436.223 51.6357 434.541 52.5927L436.904 62.6039C438.517 62.3545 441.384 62.1224 445.208 62.0397C445.208 62.0388 445.208 62.038 445.208 62.0372C449.311 61.9487 441.308 63.1584 455.96 61.6049C458.992 62.0938 461.976 62.5273 464.973 62.9973C461.375 63.187 458.095 63.3674 454.322 63.5638C456.809 62.3877 447.583 63.3338 439.728 63.3945ZM832.677 73.1607C831.31 73.9031 836.419 74.6989 845.014 76.7122C836.81 75.3931 828.605 74.0715 820.436 72.7578C824.53 72.8936 828.583 73.0249 832.677 73.1607ZM1027.88 73.6812C1027.89 73.6818 1027.9 73.6825 1027.92 73.6831C1030.64 73.6727 1033.38 73.6621 1036.07 73.6519C1037.68 74.0716 1039.27 74.4888 1040.87 74.9084C1045.71 74.9952 1050.56 75.0827 1055.41 75.1699L1063.26 75.6L1060.89 68.0593C1059.5 64.163 1058.12 60.2667 1056.73 56.3784L1052.25 62.9524C1052.91 62.8873 1053.57 62.8222 1054.23 62.7571C1054.03 62.9516 1053.34 63.1416 1052.28 63.3301L1057.09 56.2633C1058.15 58.6448 1059.73 63.1201 1061.4 67.8957L1064.01 76.1801L1055.38 75.7076C1050.63 75.6033 1045.6 75.4935 1041.8 75.5876C1027.69 74.5585 1020.91 73.6147 1020.04 72.6956C1022.64 73.0228 1025.24 73.3522 1027.88 73.6812ZM656.453 466.944C659.67 466.658 662.847 466.373 666.063 466.087C661.786 465.957 657.543 465.857 653.23 465.706C641.951 466.948 640.891 465.85 626.113 465.926C580.814 466.162 592.833 468.09 551.922 465.266C584.768 465.4 572.146 464.073 591.948 463.05C596.05 463.828 576.428 465.584 589.724 465.948C612.636 465.124 634.668 464.357 660.09 463.825C659.347 463.691 658.609 463.556 657.866 463.421C653.835 463.506 649.837 463.591 645.806 463.676C650.155 463.316 654.407 462.959 658.827 462.595C653.241 463.412 667.479 462.955 665.573 463.895C664.725 464.313 658.432 464.893 654.719 465.292C664.301 465.51 674.128 465.709 683.815 465.92C678.796 466.253 673.78 466.586 668.796 466.919C664.696 466.93 660.628 466.937 656.528 466.948C656.503 466.946 656.478 466.945 656.453 466.944ZM1574.77 54.3185C1586.72 51.8731 1608.65 49.0244 1620.33 48.6837C1605.13 50.5627 1589.96 52.4395 1574.77 54.3185ZM1019.16 71.9294C1020.52 72.1646 1021.85 72.3958 1023.21 72.631C1017.13 72.6278 1011 72.6206 1004.91 72.6174C1003.77 72.0808 1002.6 71.5428 1001.43 71.0064C1007.32 71.3127 1013.26 71.6232 1019.16 71.9294ZM631.551 60.4307C635.991 60.7065 636.383 60.7491 641.906 61.1966C641.9 61.1958 641.894 61.1949 641.888 61.1941C643.574 61.3295 654.827 62.2725 658.963 62.8022L659.411 62.8132C660.654 62.8619 661.263 62.9298 660.795 63.0236C660.337 63.0329 659.877 63.0422 659.416 63.0515L658.947 63.0401C650.246 62.4476 641.043 61.8103 632.197 61.2031C631.932 60.9422 631.887 60.6985 631.551 60.4307ZM739.275 60.967C739.288 60.9676 739.301 60.9681 739.313 60.9687C742.635 60.9592 745.782 61.0111 749.208 60.9644C736.884 61.7862 734.914 60.7858 723.713 61.3002C712.514 61.8167 705.6 62.5262 696.063 61.2903C699.594 61.0075 703.395 60.6277 707.032 60.3076C722.952 60.5635 727.225 59.9436 739.974 59.1317C739.739 59.7449 739.511 60.3538 739.275 60.967ZM454.779 464.064C451.738 464.768 448.347 464.078 447.995 464.069C448.001 464.068 448.007 464.068 448.014 464.067C421.078 464.719 451.519 463.677 426.097 463.568C429.88 463.392 433.6 463.206 437.348 463.028C443.145 463.367 449.123 463.752 454.779 464.064ZM-37.2319 92.6338C-37.027 92.3861 -36.8217 92.0899 -36.6167 91.8423C-36.6643 107.119 -35.8577 111.014 -36.5923 123.708C-36.8075 113.349 -37.0212 102.993 -37.2344 92.6338C-37.2335 92.6338 -37.2328 92.6338 -37.2319 92.6338ZM555.194 54.5798C557.837 54.3867 560.373 54.2044 562.832 54.0334L562.484 54.0302C575.765 54.6808 586.805 55.3977 600.46 56.8601C600.472 56.8618 600.484 56.8634 600.497 56.8651C601.43 56.9675 596.875 57.0845 598.089 57.2761C601.442 57.442 604.906 57.581 608.295 57.7368C608.73 58.1108 609.143 58.4832 609.578 58.8551C600.06 58.1043 590.537 57.3532 580.984 56.5999C582.382 56.8971 583.813 57.1949 585.211 57.492C577.575 57.0654 569.966 56.6403 562.334 56.2139L562.941 56.2196C562.457 56.2499 561.973 56.2802 561.488 56.3106C561.968 56.1899 562.448 56.0693 562.927 55.9487L562.353 55.9433C564.719 55.6384 567.079 55.3326 569.419 55.0242C567.101 54.8087 564.78 54.594 562.46 54.3791L562.849 54.3828C560.297 54.4492 557.745 54.5154 555.194 54.5798ZM-41.6584 346.968C-41.4082 344.283 -41.0826 349.262 -40.8488 345.091C-40.6173 340.92 -40.9581 333.224 -40.345 335.033C-40.3159 340.652 -40.2772 346.553 -40.245 352.277C-38.9242 333.867 -39.7717 315.477 -38.3636 315.208C-38.9033 332.885 -38.8783 347.424 -38.6589 364.543C-39.7675 363.824 -40.562 346.696 -41.7162 357.464C-41.6963 354.001 -41.6814 350.362 -41.6564 347.006C-41.6571 346.993 -41.6577 346.98 -41.6584 346.968ZM1249.55 35.002C1249.89 34.9821 1250.26 34.9605 1250.63 34.9376L1253.27 35.1178C1264 37.3643 1286.46 41.5486 1298.86 44.7285C1302.01 45.5379 1312.22 49.7446 1312.11 50.0015C1311.61 50.84 1298.62 48.3078 1312.39 51.7394C1307.71 50.7889 1303.17 49.8944 1298.53 48.9611C1299.24 49.7376 1299.94 50.5117 1300.61 51.2791C1306.28 52.3438 1311.95 53.4095 1317.62 54.4722C1317.86 54.7297 1318.09 54.9875 1318.33 55.245C1298.02 51.0931 1309.85 54.3212 1299.17 52.8871C1308.79 55.2374 1318.49 57.6006 1328.08 59.9438C1322.51 58.7576 1315.94 57.3773 1311.03 56.3176C1310.16 57.2109 1321.95 59.3683 1323.92 59.9706C1335.03 63.3661 1277.46 51.0165 1272.44 51.5464C1281.62 53.5987 1291.25 55.7399 1300.64 57.8327C1297.9 57.4641 1295.12 57.0884 1292.38 56.7198C1279.43 53.41 1265.45 50.151 1250.88 46.8039L1251.41 46.8405C1241.95 47.2357 1232.23 47.6605 1222.38 48.0522C1220.09 48.2459 1217.8 48.441 1215.54 48.6304C1216.24 49.0592 1216.91 49.4886 1217.61 49.9174C1214.15 50.2 1210.66 50.4851 1207.2 50.7678C1217.3 48.5416 1203.18 49.4893 1186.07 49.6574C1195.1 48.5153 1206.31 48.1132 1205.47 47.1442C1188.49 48.6888 1169.89 49.7723 1151.57 50.9061C1136.37 51.847 1121.37 52.8226 1107.67 54.125C1100.17 54.837 1100.28 56.1507 1082.61 57.1887C1083.2 57.0048 1083.28 56.737 1083.66 56.5215C1071.79 57.5464 1061.73 58.4137 1052.01 59.1757L1053.13 57.5287C1054.44 61.4689 1055.72 65.3561 1057 69.3008L1057.6 71.199L1055.62 71.0907C1044.47 70.5743 1032.95 69.9032 1018.8 68.8961C1020.61 69.4627 1022.39 70.0298 1024.2 70.5963C1030.96 70.704 1037.73 70.8085 1044.45 70.9144C1048.39 71.7919 1043.84 71.9104 1055.54 72.5833L1059.67 72.8093L1058.42 68.8465C1057.88 67.0939 1057.2 64.9635 1056.37 62.3647C1055.65 60.1122 1055.09 58.3764 1054.65 57.0432L1052.11 60.7698C1060.49 60.1394 1053.82 60.2944 1057.64 59.8442C1063.69 59.1303 1069.06 59.4022 1075.56 58.621C1080.59 58.0193 1075.09 57.7334 1088.26 57.0329C1083.02 58.2147 1077.68 59.4306 1072.41 60.6249C1069.18 60.6476 1065.98 60.6659 1062.76 60.6866C1065.99 60.2505 1069.17 59.821 1072.4 59.3849C1065.54 60.0767 1058.91 60.7454 1052.15 61.4274L1055.28 56.8429C1056.65 60.6659 1058.03 64.5329 1059.46 68.5159L1061.18 73.9813L1055.49 73.6696C1055.02 73.6623 1054.56 73.6549 1054.09 73.6475C1058 72.6362 1045.75 72.4665 1039.1 72.2712C1028.75 71.9678 1037.65 71.5879 1030.86 71.3813C1024.08 71.1768 1016.71 71.7329 1004.47 70.9107C1011.07 70.7076 1002.16 69.771 1003.91 69.3629C1005.66 68.9549 1018.63 69.5048 1006.21 68.3297C982.24 67.5224 1008.13 70.7338 991.939 70.2167C972.498 69.5961 968.032 66.2817 973.855 65.9144C978.438 65.6254 994.109 66.528 998.727 66.2428C970.698 63.8775 970.36 65.7136 965.538 65.8309C954.865 66.0922 955.116 65.1104 952.248 64.3535L952.237 64.3535C950.355 64.0851 947.213 64.0571 939.184 65.082C939.529 64.3999 939.805 63.7887 940.152 63.1334C936.598 63.4869 934.244 63.8012 929.947 64.1785C942.72 64.6253 932.33 65.252 927 65.6037C918.602 66.1589 931.615 65.9318 929.402 66.2388C923.431 67.0635 913.932 67.4902 919.789 67.672C917.161 67.581 914.313 67.5036 911.614 67.4193C901.824 68.3899 878.944 72.6436 900.854 70.6501C898.874 71.8027 891.743 71.7791 886.193 71.9877C880.644 72.1963 880.79 72.838 875.913 73.0377C856.511 73.8294 869.109 71.8888 872.122 70.8179C853.043 72.519 862.204 72.2537 852.707 73.1856L852.223 73.1638C849.015 72.7659 843.689 72.0324 834.439 70.6832C830.8 70.8307 847.547 74.2262 833.44 72.4268C831.045 70.8022 820.842 68.3039 800.751 64.7353C798.75 64.7083 796.755 64.6846 794.754 64.6576C783.927 61.8056 789.735 61.519 769.149 59.7165C780.207 58.8877 773.082 59.3063 755.957 55.7022L755.935 55.7007C755.493 55.6865 755.044 55.6709 754.589 55.6538C751.968 55.5565 755.398 55.1811 755.919 54.9055L756.08 54.9165C756.168 54.8884 756.185 54.8503 756.099 54.7977L755.917 54.7853C755.75 54.7205 755.257 54.6678 754.248 54.635C751.874 54.5585 746.123 55.0786 740.324 54.8786C737.493 54.7791 724.25 54.038 715.102 54.6939C721.844 55.8199 704.467 57.2328 719.407 57.9799C691.824 58.2663 672.536 59.2503 703.403 56.9264C696.395 56.6835 689.381 56.4423 682.373 56.2014C677.5 56.5975 672.585 56.9921 667.676 57.3868C667.101 56.6171 667.381 56.2548 659.284 56.3646L659.405 56.3675C656.784 56.1714 653.279 55.9471 648.576 55.669C652.195 55.8112 655.808 55.9523 659.423 56.0932L659.279 56.0896C663.99 55.8574 668.705 55.6245 673.442 55.3919C673.721 55.1776 674.882 54.9376 674.598 54.7404C671.111 54.9442 665.469 55.1643 659.265 55.3822L659.472 55.3873C647.448 54.7481 633.323 53.9151 628.702 53.7799C621.698 53.575 635.182 54.5762 633.153 54.7045C616.248 55.7511 617.688 54.2222 605.639 53.7739C598.568 53.5126 615.398 54.9112 611.617 54.747C597.596 54.1344 591.184 52.5213 578.774 51.6545C583.137 52.6198 587.464 53.5929 591.721 54.5571C582.3 53.8849 572.095 53.1743 562.582 52.5986L562.76 52.6003C559.13 52.8108 555.603 53.029 552.26 53.2546C547.509 53.5749 551.127 53.889 550.352 53.9608C546.508 54.3225 530.841 55.373 529.182 55.4578C516.686 56.0849 516.295 55.4193 504.151 55.9874C508.915 55.6918 513.394 55.4162 518.052 55.128C520.115 53.9144 522.222 52.6987 524.285 51.4831C512.381 51.9959 500.471 52.5107 488.532 53.0253C497.273 52.9603 506.045 52.8919 514.786 52.827C501.198 54.4019 487.61 55.9789 474.022 57.5559C466.896 57.36 459.798 57.1629 452.672 56.967C443.113 57.5159 439.278 58.294 436.712 58.756L436.09 56.1202C438.359 54.7537 439.519 54.1585 444.142 53.2061C449.286 50.7664 454.43 48.3263 459.575 45.8884C458.943 46.4711 458.318 47.0511 457.686 47.6337C460.386 46.3668 463.084 45.1003 465.783 43.8337L466.109 45.1474C462.248 45.5266 458.386 45.9059 454.524 46.2863C458.463 46.5366 462.36 46.805 466.249 47.0681L465.009 42.0705C461.837 42.96 458.672 43.8511 455.5 44.7638C459.687 42.8447 462.513 41.6576 464.496 40.9019L466.342 48.341C462.246 48.4362 461.653 48.0671 460.32 48.026C454.954 47.8615 444.437 49.3792 440.168 49.1761C438.724 49.1047 451.879 47.5907 447.285 47.2871C446.388 47.2288 428.551 46.182 417.318 47.544C417.561 47.9518 418.47 48.4071 418.962 48.834C403.821 50.1974 395.929 48.5526 397.893 47.7867C389.848 48.8096 378.047 49.7073 376.439 50.5054C372.313 50.8231 368.219 51.1376 364.094 51.4552C368.273 49.4924 351.085 51.05 350.06 52.5504C357.151 52.0682 364.251 51.5872 371.343 51.1049C366.109 53.2343 387.728 52.7113 342.786 54.3725C334.15 54.0938 358.029 53.3839 350.996 53.2164C338.836 53.7077 327.472 54.8686 315.894 55.0806C301.487 55.3413 319.087 53.2964 285.727 56.7375C359.656 53.8637 275.736 59.17 241.157 62.4759C231.454 60.6937 202.147 62.0437 161.923 65.7201C166.171 66.1033 178.817 64.8232 186.134 64.5174C193.45 64.2117 185.582 65.1971 194.699 64.8555C203.819 64.5136 223.173 63.5412 232.417 63.3562C224.646 64.3156 186.215 68.0477 211.589 65.0818C192.536 65.7855 183.561 65.7347 160 67.3255C153.025 68.9157 153.596 69.5473 130.641 71.2537C144.109 68.7684 117.947 69.6335 123.577 67.6704C139.884 66.8419 130.894 69.0066 140.361 69.0378C141.332 69.0391 156.473 67.5559 160 67.3255C144.595 67.0945 139.265 66.979 148.565 64.6878C137.748 65.6184 130.998 65.9085 130.066 66.7465C127.786 66.5789 125.492 66.412 123.246 66.2418C119.723 66.5073 116.553 66.7695 112.818 67.0359C118.047 67.8158 108.023 67.8323 100.973 68.8734C93.922 69.9151 103.5 70.133 84.0319 71.5662C90.541 71.363 96.4911 71.162 102.788 70.9598C90.2554 72.1733 77.6836 73.3915 65.1511 74.6049C74.02 74.6673 93.2041 74.3214 92.7494 75.2882C86.9413 75.3596 67.1774 77.4215 65.0111 77.6051C56.624 78.3127 61.1559 77.393 60.52 77.4249C47.3119 78.1027 36.4647 79.0948 31.3927 78.5728C22.6781 79.5638 15.8229 79.9274 7.11731 80.5412L5.7688 80.6342L4.93176 79.5995C4.19604 78.6931 3.43787 77.7622 2.65002 76.8007C-1.02515 72.3148 -0.81897 73.6016 -2.86804 70.8934C-16.4865 52.8883 -2.24634 69.0096 -31.0002 36.3029C-28.0229 40.6732 -25.0981 44.9957 -22.124 49.3686C-25.3641 45.6682 -28.5868 41.9908 -31.8269 38.2904C-33.8416 35.6897 -35.8372 33.1112 -37.8518 30.5105C-37.0421 29.9413 -36.2219 29.3817 -35.4122 28.8124C-37.6505 25.9834 -39.8992 23.1439 -42.1373 20.3149C-38.1503 25.049 -34.1538 29.7945 -30.1666 34.5286C-29.6747 34.8568 -29.2065 35.1559 -28.7146 35.4841C-33.0006 29.9042 -37.2736 24.338 -41.5526 18.764L-41.2947 18.6721C-41.3584 20.8307 -41.4221 22.9902 -41.4858 25.1516C-41.1425 25.3282 -40.7966 25.5025 -40.4532 25.6792C-40.9314 46.4014 -41.222 46.8949 -40.2762 66.5906C-40.2866 81.7614 -38.8507 94.1151 -38.2463 102.885C-38.4387 106.032 -38.6337 109.182 -38.8262 112.364C-38.5405 114.38 -38.2561 116.416 -37.9705 118.432C-38.2466 121.208 -38.5227 124.011 -38.7981 126.803L-38.7982 126.829C-38.9314 128.055 -39.0643 129.278 -39.1971 130.496C-38.5282 132.196 -38.2117 133.272 -37.8912 126.838L-37.891 126.803C-37.8102 124.774 -37.7363 121.999 -37.6604 118.262C-37.354 119.721 -37.1682 122.828 -37.0676 126.803L-37.0679 126.847C-36.9053 137.428 -37.4073 154.145 -37.7618 162.265C-38.1317 170.739 -38.9741 161.324 -39.0984 162.383C-39.5201 165.919 -39.3252 179.894 -39.4185 182.828C-39.8085 195.236 -39.848 203.933 -40.1663 215.14C-40.2294 217.322 -40.8828 223.416 -40.9065 223.934C-41.048 227.964 -41.4349 237.911 -41.4543 239.042C-42.4761 297.406 -39.2847 235.064 -40.0942 289.335C-39.7388 287.713 -39.387 286.222 -39.032 284.634C-39.052 288.734 -39.0734 292.878 -39.0934 296.978C-39.4285 302.173 -39.8817 295.879 -39.5682 306.207C-39.9796 305.531 -40.3912 304.852 -40.8002 304.141C-40.6191 308.634 -40.4384 312.965 -40.2583 317.564C-41.7808 324.763 -42.3715 351.094 -44.0562 349.206C-44.6293 348.563 -45.0387 329.887 -45.7555 339.747C-45.9568 347.762 -45.2108 342.343 -45.207 345.613C-45.1888 369.237 -46.1454 367.855 -45.9824 377.511C-45.5818 379.035 -45.1737 380.637 -44.7692 382.197C-44.9274 385.836 -45.0856 389.486 -45.2441 393.16C-44.9731 394.011 -44.7021 394.899 -44.4312 395.75C-44.3785 392.32 -44.3213 388.458 -44.2715 385.311C-43.2328 389.71 -43.1465 430.016 -43.9167 414.638C-44.2291 408.376 -43.9563 396.916 -45.3068 404.146C-45.2295 414.933 -45.1627 427.17 -45.0912 438.523C-45.37 438.874 -45.6489 439.2 -45.9277 439.551C-45.9014 454.849 -44.6627 440.949 -44.0731 440.983C-44.0912 444.482 -44.1118 448.017 -44.13 451.517C-44.4114 452.997 -44.7046 454.404 -44.9785 455.956C-44.5592 456.101 -43.6058 458.036 -44.0455 468.214L-44.827 467.425C-44.7334 467.428 -44.6392 467.431 -44.5442 467.435C-37.8381 467.673 -48.3987 468.744 -35.6118 468.595C-36.5676 467.933 -41.1865 467.127 -26.9434 466.913C-25.5288 467.605 -23.5732 468.238 -22.4772 468.964C-4.76428 468.3 3.29614 469.367 24.0875 468.595C37.2776 468.107 55.3456 466.373 63.8683 469.045C73.5164 469.115 70.4542 468.45 73.3094 468.3C86.7827 467.592 96.8041 468.859 99.3148 468.934C115.327 469.411 122.507 468.973 135.553 469.571C134.846 469.076 134.46 468.608 133.895 468.125C121.942 468.866 115.889 468.832 99.1263 468.672C104.748 468.573 110.371 468.471 115.992 468.372C115.073 467.971 114.163 467.569 113.279 467.17C61.4365 468.751 73.5299 466.253 116.991 465.706C120.739 466.449 124.623 467.19 128.335 467.935C153.442 466.809 165.256 467.787 193.65 468.021C197.026 468.047 209.321 467.619 214.605 467.598C214.518 467.595 214.43 467.592 214.342 467.59C217.629 466.888 213.177 466.565 212.646 465.938C215.51 465.859 218.375 465.781 221.239 465.703C227.634 466.181 225.386 466.573 237.973 466.459C236.276 465.983 234.601 465.507 232.904 465.031C244.507 465.017 252.737 465.381 262.701 465.364C264.58 465.361 266.521 465.344 268.557 465.308C266.597 465.472 264.658 465.636 262.701 465.8C262.505 465.816 262.309 465.833 262.113 465.849C262.311 465.852 262.507 465.856 262.701 465.859C289.735 466.348 267.967 469.097 288.928 467.714C290.271 467.958 291.58 468.205 292.923 468.449C284.226 468.509 275.524 468.567 266.861 468.627C266.685 468.973 266.494 469.317 266.353 469.662C275.653 469.559 284.999 469.452 294.299 469.349C287.509 469.58 280.68 469.813 273.89 470.044C284.675 470.21 295.462 470.376 306.246 470.541C294.794 469.271 309.641 469.115 306.849 467.857C325.945 468.904 340.945 470.285 370.544 469.401C376.411 469.225 373.224 468.346 389.878 469.416C385.847 468.017 406.711 467.36 404.031 466.03C398.233 466.094 392.22 466.134 386.599 466.213C393 466.674 394.061 467.944 384.338 468.321C371.926 468.801 353.823 467.921 354.564 469.33C349.615 469.264 345.012 469.225 340.204 469.169C342.183 468.82 344.121 468.468 346.065 468.118C332.386 468.666 323.79 468.488 317.214 467.607C333.513 467.404 349.778 467.203 366.078 467.002C363.676 466.943 361.243 466.882 358.841 466.824C371.183 465.924 358.452 465.071 381.474 464.879C381.332 465.29 381.219 465.702 381.078 466.116C389.459 465.015 412.406 465.021 405.086 463.754C412.016 464.143 413.429 464.39 417.354 463.707C435.636 464.669 447.378 465.886 440.871 467.339C447.66 467.106 454.452 466.871 461.205 466.638C457.28 466.24 453.351 465.845 449.427 465.447C461.238 465.472 473.135 465.497 484.911 465.519C486.043 466.695 462.177 465.876 469.063 466.927C470.441 467.138 476.797 466.686 478.466 466.805C496.076 468.09 468.432 467.161 473.623 468.146C499.863 468.451 478.865 470.101 515.006 468.714C515.961 469.053 516.986 469.399 517.87 469.737C530.416 469.757 529.399 468.991 540.182 468.846C546.935 468.756 555.412 470.102 562.871 469.185C564.201 469.016 551.654 467.371 578.022 467.443C598.486 467.499 589.969 468.662 601.031 469.074C612.1 469.486 637.421 467.874 644.882 469.701C639.085 469.459 631.699 469.329 625.265 469.13C622.649 469.486 620.101 469.838 617.52 470.192C632.231 469.733 647.437 470.274 657.339 469.425C676.965 470.723 698.914 469.519 692.974 468.053C686.513 468.265 693.541 468.904 684.569 468.497C683.649 468.155 682.68 467.815 681.761 467.474C697.038 467.515 707.647 467.505 700.681 468.547C703.05 468.571 705.397 468.596 707.766 468.621C708.191 467.868 708.567 467.111 708.991 466.358C711.82 466.273 714.661 466.189 717.49 466.104C720.636 466.27 723.788 466.437 726.969 466.605C722.69 467.797 715.402 467.836 739.519 468.503C739.59 468.091 739.694 467.68 739.764 467.269C759.956 467.792 760.488 468.79 785.839 468.753C766.39 470.183 755.749 467.648 755.82 470.517C750.94 470.328 746.02 470.137 741.14 469.949C740.397 470.365 739.661 470.782 738.954 471.198C765.156 470.978 808.68 468.242 826.223 470.057C828.344 469.835 830.474 469.643 832.63 469.405C849.817 470.5 857.238 468.041 874.672 469.457C875.643 469.537 874.993 470.247 877.757 470.87C880.115 471.402 884.955 471.871 895.401 471.833C894.836 471.532 894.541 471.027 894.082 470.649C898.996 470.833 903.884 471.025 908.762 471.214C909.646 470.936 910.573 470.659 911.457 470.38C903.075 470.272 894.718 470.163 886.337 470.055C893.301 469.96 900.309 469.865 907.273 469.77C898.188 469.317 894.089 469.312 899.566 468.586C907.452 468.542 915.349 468.496 923.234 468.453C924.047 468.267 924.853 468.078 925.665 467.892C921.847 467.338 917.989 466.795 914.17 466.232C934.715 466.686 952.577 466.71 968.348 467.801C971.036 467.985 961.531 468.708 979.843 468.056C980.126 468.439 980.618 468.749 980.936 469.103C1003.36 468.031 1010.72 468.351 1034.1 469.125C1018.96 468.403 1032.47 468.873 1036.32 468.486C1038.96 468.219 1028.65 468.258 1029.82 467.979C1030.99 467.702 1044.38 466.582 1032.93 466.447C1004.85 468.743 997.201 465.998 961.131 467.101C966.683 466.805 972.275 466.509 977.827 466.213C975.212 466.012 972.871 465.83 970.044 465.617C990.162 466.066 980.378 465.774 988.644 465.421C996.919 465.067 1011.96 464.766 1022.04 464.669C1025.21 464.638 1021.86 465.153 1029.03 465.201C1033.91 465.234 1047.24 464.471 1050.32 465.37C1052.34 465.956 1030.91 467.569 1060.54 467.565C1066.11 468.139 1051.91 467.961 1051.6 468.03C1049.02 468.713 1067.23 469.227 1075.65 468.705C1076.33 468.66 1069.68 468.128 1076.91 467.919C1094.06 467.42 1103.97 468.031 1115.07 468.857C1116.27 467.888 1130.71 466.731 1148.67 467.089C1149.59 466.812 1150.47 466.532 1151.38 466.253C1148.6 466.4 1145.81 466.545 1143.02 466.691C1139.98 466.517 1136.75 466.391 1133.78 466.186C1151.85 465.948 1154.41 464.613 1163.07 464.124C1192.71 462.456 1174.75 465.985 1169.4 466.594C1165.55 466.347 1161.82 466.072 1158 465.814C1158.42 466.151 1158.85 466.491 1159.24 466.83C1203.62 466.82 1166 469.02 1188.53 469.648C1194.33 467.988 1210.87 467.828 1231.95 468.881C1234.28 468.873 1236.62 468.871 1238.96 468.86C1239.34 468.618 1239.34 468.248 1239.97 468.089C1265.36 467.807 1269.89 470.364 1272.29 470.606C1282.97 471.68 1291.29 470.194 1294.43 470.181C1307.69 470.129 1311.55 470.789 1324.17 470.506C1337.75 470.199 1328.46 469.693 1332.59 469.24C1335.91 468.88 1346.62 468.816 1351.04 468.443C1349.28 468.748 1347.33 469.047 1345.58 469.353C1359.65 469.769 1371.15 470.175 1387.13 470.276C1405.16 468.044 1420.51 471.81 1414.28 468.755C1399.15 468.546 1390.69 468.198 1382.59 467.42C1392.52 467.321 1402.47 467.224 1412.4 467.125C1415.3 467.46 1417.36 467.786 1420.79 468.128C1428.21 467.416 1445.42 467.722 1452.18 467.513C1479.38 466.671 1475.97 465.656 1492.81 466.683C1495.57 466.851 1498.87 467.073 1502.93 467.36C1498.87 467.399 1495.6 467.468 1492.81 467.553C1481.33 467.903 1478.11 468.523 1461.49 468.414C1465.95 469.121 1476.44 468.975 1469.65 469.823C1489.63 469.614 1483.17 468.857 1490.94 468.184C1491.52 468.134 1492.15 468.088 1492.81 468.046C1499.87 467.593 1511.09 467.507 1510.39 466.818C1511.77 467.232 1512.84 467.634 1514.22 468.047C1527.16 468.043 1540.1 468.043 1553.04 468.039C1547.52 468.471 1542.01 468.905 1536.49 469.335C1540.66 469.499 1544.84 469.661 1549 469.825C1580.83 468.479 1635.71 470.945 1626.94 467.565C1642.29 467.458 1644.21 467.881 1652.55 468.521C1653.47 468.264 1654.37 468.051 1655.29 467.765C1665.19 468.034 1672.79 467.071 1681.52 467.321C1690.25 467.57 1692.42 468.479 1693.69 466.95C1699.35 467.389 1704.97 467.753 1710.6 468.161C1713.99 467.813 1717.38 467.47 1720.73 467.125C1726.04 467.307 1731.35 467.488 1736.66 467.67C1739.49 466.94 1760.35 467.255 1769.54 466.764C1778.27 467.551 1778.03 470.029 1798.56 469.585C1798.03 468.971 1797.51 468.358 1796.98 467.743C1798.1 467.774 1799.22 467.805 1800.34 467.835C1803.93 467.933 1807.52 468.03 1811.13 468.128C1811.41 468.329 1811.66 468.529 1811.94 468.73C1809.54 468.668 1807.17 468.606 1804.76 468.542C1806.85 468.881 1808.89 469.219 1810.94 469.559C1818.12 469.056 1825.31 468.553 1832.52 468.05C1822.8 467.669 1813.07 467.288 1803.35 466.907C1815.55 466.456 1824.04 466.906 1834.65 466.403C1843.88 467.252 1840.47 467.741 1836.72 468.661C1840.15 468.583 1843.62 468.507 1847.05 468.428C1844.79 469.349 1850.59 469.898 1830.54 469.823C1831.92 470.086 1833.33 470.336 1834.67 470.609C1837.96 470.568 1840.09 470.79 1843.69 470.689C1853.53 470.411 1861.06 468.794 1860.39 468.227C1860.03 467.93 1850.33 468.498 1850.72 468.078C1851.68 467.054 1873.92 467.514 1841.85 466.485C1852.49 465.833 1854.87 466.325 1866.61 466.513C1865.69 466.172 1864.8 465.833 1863.91 465.491C1869.36 465.649 1874.81 465.805 1880.25 465.963C1872.69 467.716 1912.82 468.374 1876.69 469.908C1887.37 469.986 1898.01 470.065 1908.65 470.148C1906.46 470.328 1904.27 470.506 1902.07 470.686C1897.27 470.591 1892.49 470.498 1887.68 470.404C1893.33 470.733 1899 471.06 1904.66 471.389C1918.02 470.982 1923.26 470.355 1929.38 469.58C1913.82 469.016 1918.91 469.787 1906.79 469.941C1907.21 469.45 1906.65 468.999 1907.71 468.484C1913.97 469.5 1934.4 468.761 1939.14 468.711C1953.56 468.561 1942.25 469.558 1951.9 469.579C1956.03 469.588 1960.47 469.485 1964.83 469.441L1966.09 469.435L1966.06 468.181C1965.88 462.358 1965.81 456.698 1966.29 452.174C1965.73 452.327 1965.17 452.97 1964.68 453.546C1964.19 438.523 1964.9 441.508 1964.96 439.95C1965.84 415.102 1964.38 401.659 1963.65 373.272C1963.56 376.881 1963.48 380.528 1963.39 384.172C1961.77 362.778 1962.43 377.199 1962.42 395.803C1962.18 378.37 1960.97 368.409 1960.42 356.111C1959.87 343.816 1959.95 322.707 1960.19 314.989C1961.2 332.618 1961.17 351.655 1961.75 371.238C1962.27 369 1962.7 366.826 1963.28 364.515C1961.84 352.627 1962.49 345.707 1962.57 341.78C1962.79 330.247 1961.78 330.63 1962.73 323.644C1962.36 323.935 1962.05 324.148 1961.71 324.438C1961.37 300.642 1961.51 274.964 1959.8 259.507C1960.67 258.074 1961.52 256.989 1962.41 255.344C1961.52 245.283 1962.04 236.641 1961.71 228.16C1961.37 219.714 1960.71 222.945 1960.22 213.018C1960.13 211.18 1960.51 207.342 1960.08 202.823C1959.64 198.261 1956.78 181.46 1958.94 179.399C1958.77 170.879 1958.68 162.815 1958.55 154.471C1958.84 162.599 1959.13 170.731 1959.42 178.824C1959.81 171.884 1960.2 164.987 1960.59 158.048C1960.1 157.173 1959.6 156.297 1959.11 155.458C1958.56 144.897 1958.48 135.968 1958.42 126.79L1958.41 126.422L1958.09 126.244C1952.02 122.686 1945.83 119.048 1938.68 115.075C1935.93 113.547 1941.92 118.035 1929.9 110.924C1917.88 103.81 1909.74 97.1591 1888.72 85.9856C1887.65 85.4218 1880.86 83.1079 1873.91 78.0852C1872.33 76.943 1879.58 80.7065 1875.85 78.2648C1872.11 75.821 1854.95 65.7949 1853.92 64.4518C1853.99 64.7599 1854.95 65.5838 1855.35 66.0879C1852.35 64.5073 1849.31 62.9097 1846.28 61.3099C1846.2 60.7946 1846.11 60.2662 1846.03 59.7527C1828.59 50.9364 1819.05 47.3085 1794.16 32.5606C1800.94 37.1009 1807.71 41.6448 1814.46 46.1676C1816.6 46.9037 1818.75 47.6392 1820.86 48.3578C1832.37 55.0929 1843.9 61.8452 1855.41 68.5804C1857.55 69.2486 1859.66 69.899 1861.8 70.5672C1864.84 72.3688 1867.86 74.1518 1870.9 75.9535C1869.96 75.8169 1869.02 75.6751 1868.05 75.5211C1874.17 78.9078 1880.31 82.2974 1886.4 85.6666C1873.07 80.4305 1852.07 65.9408 1852.82 68.3308C1850.22 66.5456 1847.61 64.7567 1845.01 62.9697C1843.4 63.0071 1837.96 59.6379 1828.22 53.9505C1830.26 55.5811 1832.54 57.34 1834.4 58.8694C1825.15 52.95 1808.22 43.3857 1798.46 37.5818C1794.18 35.0328 1798.8 36.9729 1797.55 36.1785C1791.71 32.4707 1780.31 26.9491 1776.33 24.7919L1776.96 24.9178C1776.51 24.9821 1776.14 25.0291 1775.86 25.0553C1757.76 26.7771 1745.8 26.2437 1726.27 29.9552C1746.63 27.7851 1735.56 29.0047 1742.88 28.8397C1745.17 28.7884 1771.48 26.0425 1738.58 29.8621C1734.72 30.3082 1674.9 36.2577 1694.38 32.8115C1684.77 34.3273 1677.26 35.6383 1668.46 37.0756C1646.5 36.9765 1654.3 38.6418 1660.75 39.2935C1657.21 39.7342 1653.84 40.1619 1650.19 40.6093C1657.76 38.165 1618.23 42.9155 1604.91 45.3126C1600.45 46.1138 1613.07 45.0524 1602.71 46.5516C1597.75 47.0531 1592.12 47.6053 1586.88 48.1288C1594.58 48.1447 1579.74 50.3323 1580.07 51.2681C1570.45 51.577 1562.96 50.6529 1568.06 49.0281C1564.64 49.6255 1561.2 50.2238 1557.76 50.8224C1553.32 51.2376 1548.87 51.6526 1544.44 52.0679C1548.12 52.1411 1551.86 52.2103 1555.54 52.2835C1529.65 52.7759 1496.46 55.5742 1490.96 53.7714C1487.54 53.9317 1484.07 54.0916 1480.65 54.2518C1479.6 54.6402 1478.59 55.0277 1477.55 55.4161C1462.03 55.7782 1446.54 56.1368 1431.02 56.4988C1444.82 55.6983 1448.09 55.0699 1462.59 54.8506C1456.99 54.6931 1451.29 54.538 1445.8 54.3761C1424.04 56.3665 1421.1 57.1916 1388.27 58.2717C1386.78 58.3204 1361.94 58.4841 1361.09 58.4333C1357.19 58.2016 1363.06 57.3739 1361.33 57.2469C1356.5 56.8889 1327.24 56.7188 1327.79 56.4818C1334.82 53.5642 1433.06 49.3498 1459.62 48.0849C1492.31 46.5284 1524.91 45.0215 1557.45 43.5542L1556.88 43.6011C1630.16 34.4312 1703.12 25.4918 1775.94 16.6529L1778.31 16.3529L1780.44 17.5537C1840.78 51.9601 1900.97 86.366 1961.2 120.778L1964.6 122.697L1964.7 126.66C1966.52 224.031 1968.37 321.48 1970.51 419.479C1970.57 422.296 1970.93 421.059 1970.97 422.259C1971.22 429.716 1970.77 437.053 1970.8 439.811C1970.87 445.703 1971.36 442.448 1971.45 446.752C1971.6 453.913 1971.74 461.009 1971.87 468.061L1972.04 475.22L1964.83 475.249C1928.07 475.173 1892.51 474.956 1855.15 475.036C1852.25 475.042 1855.21 474.597 1850.12 474.675C1847.49 474.719 1839.26 475.401 1833.33 475.411C1821.75 475.431 1811.21 475.371 1800.34 475.317C1791.77 475.274 1782.99 475.234 1773.35 475.238C1761.4 475.244 1743.46 475.186 1730.1 475.197C1724.2 475.201 1718.05 475.513 1712.22 475.524C1703.94 475.538 1705.63 474.905 1704.36 474.866C1698.77 474.694 1698 475.389 1692.69 475.372C1682.83 475.339 1682.3 474.875 1669.78 474.915C1660.83 474.944 1640.36 475.31 1629.07 475.418C1602.69 474.879 1569.45 475.093 1544.84 475.271C1530.27 475.377 1528.92 474.727 1522.98 474.729C1511.95 474.736 1502.33 474.969 1492.81 475.192C1484.27 475.393 1475.81 475.586 1466.5 475.598C1440.41 475.633 1417.29 475.085 1392.01 475.045C1387.91 475.039 1388.85 475.634 1384.83 475.65C1369.94 475.705 1350.91 475.814 1337.64 475.729C1322.87 475.636 1317.41 474.772 1302.95 474.948C1298.71 475 1297.47 475.757 1290.36 475.855C1279.01 476.008 1266.57 475.34 1258.65 475.265C1247.79 475.166 1257.23 475.937 1242.59 475.834C1241.99 475.829 1239.8 475.278 1236.66 475.304C1227.5 475.379 1228.41 475.813 1215 475.772C1213.72 475.766 1195.95 475.24 1194.18 475.238C1183.78 475.23 1162.85 475.046 1156.7 475.158C1134.7 475.555 1152.02 476.385 1133.31 474.584C1125.08 475.025 1116.91 475.471 1108.17 475.9C1114 475.5 1090.35 474.924 1088.69 474.961C1074.94 475.261 1083.13 475.962 1065.7 475.846C1088.72 474.227 1043.21 475.637 1033.06 475.679C984.191 475.88 939.769 475.476 890.652 475.486C886.638 475.487 882.29 475.508 877.757 475.539C863.726 475.636 847.927 475.83 834.778 475.824C830.723 475.824 833.787 475.441 830.218 475.432C826.658 475.427 830.608 475.857 826.543 475.834C801.26 475.685 781.45 474.873 758.288 475.888C757.161 475.741 757.197 475.625 755.33 475.464C736.375 476.373 699.872 475.151 686.152 474.983C664.692 474.722 659.21 475.337 643.62 475.213C623.004 475.047 592.051 473.847 605.874 475.828C591.731 475.89 578.116 475.907 563.832 475.723C562.242 475.702 563.338 475.198 562.701 475.188C558.672 475.116 557.359 475.567 554.636 475.587C547.254 475.643 559.301 475.103 548.775 475.254C543.224 475.335 540.071 475.728 524.654 475.736C440.501 475.776 349.821 475.664 262.701 475.593C253.612 475.586 244.561 475.579 235.561 475.573C229.018 475.568 233.325 476.055 225.121 476.024C196.619 475.917 145.601 475.097 121.024 475.209C96.4481 475.321 101.993 476.033 86.6136 476.331C83.6433 476.389 86.079 475.983 83.3912 475.977C65.3212 475.939 43.7777 475.307 29.1379 475.211C19.4565 475.148 20.2318 475.786 13.5157 475.831C3.50818 475.898 -6.79187 475.253 -12.1316 475.232C-24.3491 475.188 -34.7086 475.288 -44.827 475.372L-52.035 475.401L-51.9924 468.135C-51.9752 457.463 -51.9426 447.059 -51.6874 435.027C-51.8369 435.943 -51.9729 436.547 -52.119 437.322C-51.8209 409.567 -51.5231 381.846 -51.225 354.091C-51.3662 355.398 -51.5082 356.662 -51.6516 357.969C-51.2581 325.404 -49.9042 329.134 -52.8695 331.969C-52.9495 329.599 -53.0444 327.087 -53.1172 324.824C-51.6134 325.758 -50.3108 306.07 -49.6771 281.005C-49.6299 279.166 -50.9825 266.814 -49.2532 268.175C-49.6476 264.953 -49.9225 263.033 -50.2701 260.307C-49.6898 255.009 -49.1151 249.64 -48.537 244.343C-48.5873 241.479 -48.6343 238.574 -48.6846 235.71C-49.0219 235.282 -49.3796 235.605 -49.7058 234.682C-49.6256 221.388 -48.933 194.125 -48.8721 183.619C-48.7596 163.965 -49.1062 144.038 -48.7719 126.73L-48.7722 126.803C-48.719 121.129 -48.5897 115.736 -48.3435 110.724C-48.4452 100.837 -49.1155 110.656 -49.0306 95.9504C-48.6913 94.2888 -48.3661 92.7265 -48.0164 90.9943C-49.5326 78.9759 -48.6102 76.4649 -48.2935 59.9951C-48.0781 48.8568 -48.4487 41.5628 -48.3765 30.9557C-48.3578 28.268 -47.9127 28.6487 -47.9272 26.8099C-47.9413 24.9284 -48.0082 21.9816 -48.0948 18.6721L-48.1353 0L-36.2832 14.4657C-31.3752 20.1708 -25.2035 27.264 -23.2859 29.5967C-10.6573 44.9495 1.03235 59.2441 12.5463 73.3883L6.4021 70.7408C24.2568 69.4558 41.8958 68.2264 60.436 66.9546C64.4578 66.6777 59.213 66.62 63.3762 66.3349C70.0736 65.8754 66.1832 66.8361 70.0643 66.586C80.8899 65.8848 80.9204 65.169 96.009 64.0305C145.693 60.2822 202.864 56.6458 254.781 52.9047C256.404 52.7863 256.276 52.3775 258.039 52.2446C269.533 51.3854 281.209 51.0984 291.646 50.3306C308.962 49.0585 321.934 47.5245 339.04 46.2781C372.475 43.8401 402.369 41.9592 436.757 39.4662C446.664 38.7483 456.111 38.0553 465.541 37.3604L468.923 50.9825C459.287 55.2223 449.672 59.4569 439.517 63.9249L436.287 50.2424C443.53 49.8763 451.024 49.4994 458.94 49.1051C493.25 47.3962 527.734 45.5925 562.319 43.7529L563.189 43.761C595.336 45.8607 627.574 47.9398 659.839 50.0384L659.16 50.0218C691.358 49.2725 723.585 48.5401 755.781 47.8698L757.171 47.9646C789.439 52.9924 821.665 58.0774 853.778 63.2552L852.051 63.1772C856.82 62.8842 861.587 62.5937 866.351 62.3058C869.808 62.0976 868.426 62.5576 869.478 62.4725C879.489 61.6559 880.351 61.1013 883.983 61.9062C896.735 60.8638 900.713 59.8191 916.133 58.8633C924.352 58.3535 918.297 59.9655 932.157 58.4297C942.263 57.3094 935.148 57.2542 951.711 56.3415L952.656 56.3346C956.604 56.577 961.894 56.9272 969.08 57.4238C970.068 57.4928 974.898 58.4784 982.677 58.6817C990.491 58.8888 981.484 57.9006 1000.28 58.6977C1017.44 59.4261 1036.37 60.3975 1056.11 61.4547L1047.81 72.2333C1046.57 68.3257 1045.33 64.384 1044.08 60.4168L1040.84 50.4276L1051.38 49.6938C1078.7 47.9918 1107.17 46.2551 1134.34 44.3678C1135.81 44.2659 1143.04 43.7054 1151.06 43.0709C1160.6 42.3156 1171.23 41.4556 1174.54 41.1392C1186.33 40.0109 1183.83 39.625 1199.16 38.4839C1211.01 37.6028 1220.84 37.5815 1234.77 36.5431C1236.39 36.4215 1239.07 35.6047 1249.55 35.002ZM707.729 465.704C710.629 465.076 715.862 462.766 733.395 463.469C735.057 463.535 726.085 465.124 735.769 465.377C726.293 465.544 717.064 465.599 707.729 465.706C707.729 465.705 707.729 465.705 707.729 465.704ZM1323.71 64.5675C1310.88 61.8228 1298 59.0701 1285.17 56.3254C1294.1 57.8672 1303.04 59.4121 1311.93 60.9448C1315.87 62.1546 1319.77 63.3577 1323.71 64.5675ZM-38.2048 174.811C-38.2047 174.799 -38.2046 174.786 -38.2045 174.774C-38.0432 188.568 -37.8816 202.369 -37.7203 216.163C-37.9253 214.711 -38.1312 213.256 -38.3363 211.804C-38.5739 200.911 -38.8108 190.013 -39.0487 179.156C-38.7675 177.71 -38.4862 176.258 -38.2048 174.811ZM-40.0516 65.818C-39.7909 57.0126 -39.351 59.1677 -38.9225 54.3229C-38.9233 54.3229 -38.9242 54.3229 -38.9249 54.3229C-38.8135 53.0441 -38.7158 47.089 -38.6992 44.7875C-38.9745 45.6361 -39.2462 46.7324 -39.5194 47.6519C-39.8125 38.6192 -39.5189 25.7916 -39.0167 18.6721L-43.3177 20.2038C-39.8311 25.1519 -39.0558 27.0133 -44.4777 21.15L-37.5199 18.6721C-37.2709 22.6801 -37.0422 29.1923 -36.8633 38.9458C-37.2109 38.1678 -37.5569 37.4246 -37.9045 36.6467C-37.8073 62.497 -38.5614 91.3146 -40.0516 65.818ZM915.584 464.703C937.65 463.564 944.726 463.324 971.495 464.105C967.714 464.427 963.932 464.75 960.151 465.073C955.731 464.744 951.342 464.417 946.922 464.088C946.91 464.088 946.897 464.088 946.884 464.088C946 464.433 945.114 464.78 944.265 465.125C934.718 464.984 925.13 464.844 915.584 464.703ZM664.841 59.8307C669.969 61.6126 669.617 61.0373 659.381 61.2738L659.068 61.2662C656.946 61.1277 654.394 60.9866 651.373 60.8676C645.293 60.6287 651.18 61.4315 647.4 61.2385C626.99 60.2001 625.464 58.5685 630.068 58.0899C639.77 58.7105 649.556 59.3402 659.158 59.9576L659.355 59.9624C661.178 59.9186 662.995 59.8749 664.803 59.8314C664.815 59.8312 664.828 59.8309 664.841 59.8307ZM1177.09 51.4433C1177.1 51.4425 1177.11 51.4417 1177.13 51.4409C1177.69 51.9595 1169.48 52.6477 1178.79 52.5638C1171.73 53.0244 1164.68 53.4828 1157.59 53.9457C1159.67 53.7578 1161.79 53.5693 1163.86 53.3814C1162.02 53.3118 1160.16 53.2401 1158.32 53.1704C1156.63 53.7175 1155 53.7893 1151.77 53.8672C1150.27 53.9033 1148.43 53.9407 1146.08 54.0272C1148.01 54.5319 1149.94 55.0376 1151.88 55.5424C1152.03 55.5829 1152.19 55.6234 1152.34 55.6639C1152.19 55.6703 1152.04 55.6768 1151.89 55.6831C1143.42 56.0392 1134.92 56.3965 1126.45 56.7526C1126.33 56.5883 1126.21 56.4239 1126.09 56.2596C1122.86 56.6913 1119.66 57.1234 1116.43 57.5551C1115.54 57.4086 1114.68 57.2617 1113.78 57.1152C1109.87 57.5269 1105.96 57.939 1102.06 58.3528C1100.83 57.9358 1109.45 57.1555 1094.16 58.2851C1098.82 57.4692 1103.47 56.6555 1108.16 55.8372C1122.68 54.911 1137.2 53.9855 1151.71 53.0602C1160.17 52.5212 1168.63 51.9822 1177.09 51.4433ZM505.422 56.8651C530.739 55.5072 523.625 56.2221 517.819 57.6389C513.7 57.3802 509.54 57.1238 505.422 56.8651ZM174.165 466.298C181.521 465.53 188.907 464.77 196.439 464.029C211.433 463.601 226.433 465 215.152 465.549C201.573 466.207 187.391 465.47 174.165 466.298ZM515.666 465.956C497.321 465.6 514.581 464.688 518.718 464.156C523.793 465.011 530.87 464.935 542.236 465.035C531.563 465.09 518.699 466.017 515.666 465.959C515.666 465.958 515.666 465.957 515.666 465.956ZM-41.2997 392.012C-41.2496 384.661 -41.3916 377.346 -41.0658 370.776C-40.3512 372.766 -41.1497 385.908 -39.9679 376.515C-39.996 381.217 -40.0247 385.926 -40.0502 390.592C-40.4718 387.622 -40.8484 391.608 -41.297 391.993C-41.2979 391.999 -41.2988 392.006 -41.2997 392.012ZM321.907 58.7687C307.454 58.9518 304.754 59.5219 290.302 61.1805C288.208 60.6236 305.405 58.1798 316.214 57.1293C318.097 57.6767 319.988 58.2239 321.907 58.7687ZM1765.55 28.726C1766.83 28.2203 1771.35 27.4331 1777.16 26.5827L1775.5 26.25C1783.79 30.7104 1794.82 37.0055 1801.54 41.0153C1800.16 40.3841 1798.77 39.7519 1797.39 39.1225C1790 35.013 1782.6 30.8922 1775.2 26.7756L1777.23 27.1829C1773.34 27.6976 1769.44 28.2121 1765.55 28.726ZM547.645 465.096C545.742 465.069 543.939 465.05 542.236 465.035C544.129 465.025 545.956 465.04 547.645 465.096ZM1315.82 469.012C1309.78 469.862 1327.75 470.148 1305.93 469.815C1305.93 469.816 1305.93 469.816 1305.93 469.817C1291.5 469.598 1288.32 469.539 1274.95 469.473C1279.76 468.38 1306.88 467.99 1269.5 467.764C1269.01 467.763 1269.99 468.413 1264.02 468.324C1262.18 468.297 1256.28 467.763 1247.3 467.608C1244.4 467.558 1222.61 467.394 1252.32 467.383C1251.43 466.622 1253.03 465.851 1252.96 465.112C1264.55 464.897 1273.46 466.388 1285.73 466.352C1303.94 466.294 1313.21 464.786 1316.71 466.764C1301.39 467.251 1275.1 467.262 1271.67 466.072C1256.85 466.058 1252.6 467.033 1264.55 467.515C1315.72 466.902 1278.59 468.962 1323.4 468.184C1323.93 467.909 1325.77 467.613 1325.49 467.354C1339.17 468.322 1317.98 468.707 1315.82 469.012ZM1208.82 466.907C1217.66 466.326 1226.48 465.739 1235.28 465.156C1235.28 466.104 1230.43 466.954 1216.49 467.488C1213.95 467.294 1211.37 467.1 1208.82 466.907ZM1952.5 466.658C1953.78 466.143 1957.17 465.671 1959.64 465.18C1960.07 465.248 1962 465.316 1964.83 465.384L1962.01 468.265C1962.05 453.107 1961.56 412.196 1962.48 439.473C1962.59 442.675 1962.48 457.004 1962.78 468.249L1964.83 466.157C1959.56 466.188 1954.96 466.323 1952.5 466.658ZM421.762 50.7029C414.26 50.9038 406.788 51.102 399.321 51.3003C410.761 50.2456 422.209 49.1845 433.648 48.1257C429.675 48.9854 425.735 49.8432 421.762 50.7029ZM296.202 467.203C293.036 467.183 303.553 466.475 291.077 466.586C300.377 466.133 309.087 465.749 318.175 465.323C320.898 465.658 323.649 465.992 326.372 466.327C328.494 466.112 330.657 465.898 332.779 465.683C331.506 466.171 330.373 466.649 329.029 467.145C313.717 466.098 310.206 467.285 296.202 467.203ZM-44.5999 353.93C-43.5109 351.187 -43.0996 373.365 -42.7135 351.556C-42.057 355.7 -41.7572 362.356 -41.8218 375.121C-42.1089 377.168 -42.3939 379.21 -42.681 381.256C-41.97 381.546 -41.7373 384.833 -41.2997 392.012C-41.3005 392.018 -41.3014 392.025 -41.3022 392.031C-41.4431 411.438 -41.6696 410.276 -42.8893 414.931C-42.0232 394.393 -43.0892 393.768 -43.5878 379.759C-43.9307 370.137 -43.6075 357.582 -44.5999 353.93ZM1884.68 466.67C1899.21 465.774 1886.17 464.938 1911.95 465.89C1910.29 466.118 1908.62 466.344 1906.96 466.572C1899.53 466.607 1892.11 466.639 1884.68 466.67ZM-40.2499 282.267C-41.9097 283.912 -43.3246 297.578 -40.6743 299.939C-39.9977 286.614 -41.5767 293.11 -40.2499 282.267ZM509.409 468.53C483.773 468.453 488.62 466.598 499.158 465.671C500.784 466.008 502.409 466.346 504.001 466.681C508.492 466.528 512.983 466.375 517.475 466.224C514.787 466.992 512.097 467.762 509.409 468.53ZM118.55 70.7531C99.0958 73.3496 139.689 69.8648 126.093 71.5917C115.238 72.9713 100.79 72.8399 106.168 71.7045C109.94 71.4085 114.14 71.0874 118.512 70.7559C118.525 70.755 118.537 70.7541 118.55 70.7531ZM4.99084 77.5906C5.30579 78.5649 5.29431 78.9139 5.38232 79.2319L6.03052 80.0333L7.07495 79.9613C7.81238 80.2236 8.72778 79.9282 19.5752 78.9774C23.9794 78.5917 59.0458 76.5048 44.2628 76.5418C32.2307 77.4199 19.5437 78.329 7.02161 79.2305L6.36047 79.2761L5.95007 78.7688C5.63013 78.3758 5.31042 77.9831 4.99084 77.5906ZM805.739 466.695C805.975 467.241 778.927 468.44 775.456 468.14C775.456 468.141 775.456 468.142 775.456 468.143C766.085 467.325 794.616 467.209 782.24 466.087C809.645 467.074 817.844 464.686 815.934 467.833C799.79 467.971 807.433 467.322 805.739 466.695ZM1431.25 56.9778C1431.24 56.9784 1431.23 56.9789 1431.21 56.9794C1433.03 56.9279 1448.02 57.0923 1446.21 57.4471C1428.22 57.9743 1431.4 57.311 1414.7 58.8893C1413.77 58.6494 1412.97 58.4123 1411.97 58.1733C1418.61 57.7253 1422.27 57.2335 1431.25 56.9778ZM1963.21 411.732C1963.49 418.341 1963.15 430.418 1963.34 437.948C1960.57 414.024 1962.1 385.336 1963.21 411.732ZM945.712 66.7027C945.693 66.7047 945.674 66.7068 945.655 66.7088C945.661 66.7072 945.668 66.7055 945.674 66.7039C945.686 66.7035 945.699 66.7031 945.712 66.7027ZM1508.88 466.396C1509.74 466.543 1510.22 466.672 1510.39 466.784C1510.39 466.795 1510.39 466.805 1510.39 466.816C1509.93 466.678 1509.44 466.538 1508.88 466.396ZM861.952 466.53C873.217 467.292 835.684 468.502 823.547 468.213C824.395 467.866 824.528 467.551 826.506 467.151C836.302 468.052 860.078 466.402 861.952 466.53ZM6.2229 466.81C35.8925 466.83 -2.7196 469.837 -4.31104 467.438C-4.25134 467.392 5.45654 466.814 6.2229 466.81ZM627.979 466.845C620.42 467.755 635.611 467.997 611.32 467.84C609.907 467.604 608.494 467.368 607.08 467.132C614.045 467.037 621.014 466.94 627.979 466.845ZM200.585 470.757C237.927 470.25 273.64 469.356 249.317 466.845C246.491 466.926 243.625 467.004 240.799 467.084C240.375 468.309 229.946 467.64 214.681 467.601C212.505 468.087 204.039 468.199 202.451 468.613C199.379 469.411 209.106 469.973 200.585 470.757ZM748.779 55.4093C748.182 55.6301 747.598 55.8518 747.001 56.0706C741.101 56.4227 735.186 56.774 729.286 57.1262C730.232 56.7063 731.18 56.2864 732.126 55.8665C737.673 55.7139 743.194 55.5614 748.741 55.4088C748.753 55.4089 748.766 55.4091 748.779 55.4093ZM1172.43 469.491C1175.83 467.19 1163.97 467.614 1139.93 468.777C1150.75 469.015 1161.61 469.253 1172.43 469.491ZM-43.0581 113.589C-42.4044 112.811 -41.7527 112.046 -41.099 111.233C-41.7799 98.4673 -42.5286 100.838 -43.3938 106.956C-43.2821 109.181 -43.1698 111.363 -43.0581 113.589ZM19.2031 75.1726C13.9116 75.422 16.6453 75.7518 16.0922 75.7815C12.2565 75.9818 9.36389 76.1161 6.80359 76.2433L8.271 76.8756C4.35193 71.8368 1.65234 68.4608 -5.9834 59.5486C-7.36462 58.0746 -8.72974 56.6317 -10.1141 55.1604C-6.43018 61.8094 -2.43262 65.6003 6.78979 78.0838L6.84839 78.1562L6.94275 78.1497C7.19397 78.1435 7.44788 78.1374 7.70435 78.1316C7.44836 78.109 7.19238 78.0865 6.93652 78.0639L6.88708 78.0673L6.85645 78.0294C5.51733 75.7093 4.18384 73.3951 2.84509 71.0726C4.49402 73.1406 6.14099 75.2059 7.78723 77.2702L6.84912 76.866C13.1265 76.4776 19.3964 76.0895 25.6847 75.7007C26.7322 75.479 27.7819 75.2585 28.8295 75.0367C25.6428 75.0826 22.3529 75.1129 19.2031 75.1726ZM816.335 65.3442C824.921 66.7464 833.546 68.1569 842.131 69.5591C842.498 69.2752 842.852 68.987 843.219 68.7031C834.269 67.5851 825.286 66.4622 816.335 65.3442ZM1351.04 468.443C1351.73 468.323 1352.4 468.203 1353 468.08C1352.94 468.23 1352.19 468.346 1351.04 468.443ZM1408.24 56.1047C1398.38 56.2883 1384.18 57.0474 1373.37 57.4578C1374.25 58.2672 1401.72 56.8644 1411.39 56.9665C1412.93 56.7488 1412.41 56.0266 1408.24 56.1047ZM473.944 468.455C471.469 468.877 468.996 469.297 466.557 469.72C460.58 469.674 454.591 469.626 448.579 469.58C448.402 469.926 448.228 470.275 448.051 470.62C474.533 470.171 468.427 471.168 481.538 472.151C478.992 470.92 476.489 469.688 473.944 468.455ZM1075.99 54.1746C1056.91 55.6605 1050.17 56.5407 1061 56.8693C1067.72 56.1898 1074.48 55.5075 1081.2 54.828C1079.45 54.611 1077.7 54.3939 1075.99 54.1746ZM1699.46 469.224C1715.47 468.837 1715.73 470.228 1731.38 469.451C1723 469.195 1714.62 468.935 1706.28 468.678C1704.03 468.86 1701.71 469.043 1699.46 469.224ZM914.283 473.046C921.037 473.53 933.663 471.229 952.651 472.927C957.176 472.42 960.012 471.936 963.901 471.44C966.164 471.98 968.735 472.527 970.892 473.063C970.905 473.063 970.917 473.063 970.93 473.063C988.152 472.881 976.986 472.203 977.375 471.63C977.557 471.392 990.339 471.79 986.345 471.272C979.449 470.384 953.682 470.895 953.612 469.812C962.664 470.166 980.342 469.871 975.113 469.148C969.385 468.356 952.726 469.684 942.117 469.026C957.319 470.757 925.92 470.222 922.349 468.893C903.925 469.914 920.859 470.33 939.742 470.282C928.214 471.301 945.183 470.751 947.977 471.597C936.09 472.108 895.296 471.682 914.283 473.046ZM45.0615 471.17C57.7954 471.104 77.6884 471.686 86.4064 470.827C91.484 470.326 71.5439 469.938 85.2946 469.152C72.8881 469.229 70.0573 469.536 72.1787 470.225C69.3512 470.308 66.4883 470.388 63.661 470.469C62.3534 470.335 61.0114 470.202 59.7037 470.068C58.2185 470.351 56.7251 470.632 55.2753 470.916C52.2719 470.86 49.2332 470.804 46.2299 470.746C45.8768 470.889 45.2747 471.013 45.0615 471.17ZM1961.79 273.922C1961.87 277.457 1961.95 280.957 1962.03 284.491C1962.19 284.099 1962.36 283.631 1962.52 283.181C1962.65 282.858 1962.78 282.535 1962.91 282.211C1962.47 284.27 1962 301.126 1962.67 308.208C1963.01 311.77 1963.76 303.635 1964.24 318.75C1963.96 307.794 1963.63 297.647 1963.33 287.009C1963.62 287.958 1963.92 288.869 1964.22 289.818C1964.22 289.812 1964.22 289.806 1964.22 289.799C1964.21 286.264 1964.2 282.686 1964.19 279.15C1963.39 277.398 1962.59 275.674 1961.79 273.922ZM-44.3507 123.953C-44.3057 124.959 -44.2625 125.91 -44.2205 126.803L-44.2203 126.776C-43.8568 136.594 -43.5836 139.553 -42.7313 134.343C-42.7308 134.331 -42.7303 134.318 -42.7297 134.305C-42.9208 131.799 -43.1117 129.292 -43.3026 126.785L-43.3027 126.803C-43.4738 124.817 -43.6449 122.83 -43.816 120.844C-43.9941 121.87 -44.1727 122.892 -44.3507 123.953ZM1454.91 471.326C1480.55 468.008 1422.81 470.042 1433.81 471.172C1434.3 471.224 1452.51 470.96 1454.91 471.326ZM514.12 469.55C507.083 469.577 500.03 469.601 492.958 469.628C494.585 470.036 496.25 470.442 497.876 470.85C503.287 470.417 508.71 469.983 514.12 469.55ZM1009.29 63.6907C1001.94 62.4047 982.969 61.1087 973.64 61.6257C978.508 61.9895 983.377 62.3535 988.245 62.7174C979.025 62.3621 969.908 62.0235 960.618 61.6584C960.06 62.9004 970.797 62.7098 986.884 63.8789C989.375 64.0621 1005.24 66.4464 1010.8 65.541C1011.92 65.3537 994.971 64.3249 1006.79 64.2162C1001.64 63.8982 997.193 63.6842 992.324 63.4053C991.986 63.0855 991.651 62.7655 991.278 62.4439C997.296 62.8598 1003.27 63.2749 1009.29 63.6907ZM119.196 471.071C136.686 471.141 138.846 470.634 142.488 469.738C134.354 469.839 126.217 469.939 118.084 470.041C118.472 470.383 118.808 470.726 119.196 471.071ZM852.799 67.0177C852.63 67.0262 852.465 67.0347 852.304 67.0432L853.177 67.0826C844.366 65.584 848.099 66.8849 844.339 66.4324C829.866 64.6884 820.13 62.6326 805.863 60.7239C806.828 60.7329 807.715 60.739 808.645 60.7466C808.632 60.7446 808.62 60.7427 808.608 60.7408C741.386 49.5666 776.488 56.7509 816.81 62.8079C817.711 63.2239 818.575 63.6343 819.476 64.0482C835.304 66.1131 850.057 68.0232 853.107 67.5325L852.334 67.4977C852.746 67.3329 852.911 67.1728 852.799 67.0177ZM1227.14 471.44C1227.92 471.609 1221.31 472.688 1233.72 472.183C1243.55 470.608 1227.43 471.39 1223.39 470.784C1226.75 470.633 1230.19 470.486 1233.51 470.335C1213.42 469.89 1210.49 470.264 1217.81 471.415C1218.33 471.492 1226.36 471.27 1227.14 471.44ZM1359.15 472.216C1361.9 469.896 1336.55 470.939 1337.47 471.659C1340.97 471.688 1343.69 471.295 1347.41 471.469C1351.15 471.643 1352.11 472.185 1359.15 472.216ZM632.897 471.648C633.64 471.659 641.101 472.634 640.36 471.87C631.13 470.063 612.533 471.227 615.786 471.856C621.937 471.825 626.039 471.554 632.897 471.651C632.897 471.65 632.897 471.649 632.897 471.648ZM1107.86 50.026C1107.5 49.9845 1088.9 50.8121 1086.53 51.3325C1084.58 51.871 1083.63 52.3735 1082.17 52.8941C1092.38 51.8302 1113.11 50.7701 1107.82 50.0284C1107.83 50.0276 1107.84 50.0268 1107.86 50.026Z" fill="black"/>
<defs>
<linearGradient id="paint0_linear_334_205" x1="960" y1="18.6721" x2="960" y2="468.207" gradientUnits="userSpaceOnUse">
<stop stop-color="#0C0C0C"/>
<stop offset="0.92605"/>
</linearGradient>
</defs>
</svg>
