<svg width="376" height="292" viewBox="0 0 376 292" fill="none" xmlns="http://www.w3.org/2000/svg">
<g filter="url(#filter0_di_1_2766)">
<path d="M319.236 249.46H337.449L355.662 199.685V82.4505L332.845 20L196.967 20L190.679 37.2108H174.055L167.767 20L29.1446 20L20 44.9918L20 228.633L20 250.085L27.8374 271.536H311.17L319.236 249.46Z" fill="#470000" fill-opacity="0.4" shape-rendering="crispEdges"/>
<path d="M167.067 21L173.115 37.5537L173.355 38.2109H191.379L191.618 37.5537L197.666 21H332.146L354.661 82.625V199.509L336.75 248.46H318.536L318.297 249.117L310.472 270.536H28.5361L21 249.906V45.1689L29.8438 21H167.067Z" stroke="#D40000" stroke-width="2" shape-rendering="crispEdges"/>
</g>
<defs>
<filter id="filter0_di_1_2766" x="0" y="0" width="375.662" height="291.536" filterUnits="userSpaceOnUse" color-interpolation-filters="sRGB">
<feFlood flood-opacity="0" result="BackgroundImageFix"/>
<feColorMatrix in="SourceAlpha" type="matrix" values="0 0 0 0 0 0 0 0 0 0 0 0 0 0 0 0 0 0 127 0" result="hardAlpha"/>
<feOffset/>
<feGaussianBlur stdDeviation="10"/>
<feComposite in2="hardAlpha" operator="out"/>
<feColorMatrix type="matrix" values="0 0 0 0 1 0 0 0 0 0.105882 0 0 0 0 0.105882 0 0 0 0.5 0"/>
<feBlend mode="normal" in2="BackgroundImageFix" result="effect1_dropShadow_1_2766"/>
<feBlend mode="normal" in="SourceGraphic" in2="effect1_dropShadow_1_2766" result="shape"/>
<feColorMatrix in="SourceAlpha" type="matrix" values="0 0 0 0 0 0 0 0 0 0 0 0 0 0 0 0 0 0 127 0" result="hardAlpha"/>
<feOffset/>
<feGaussianBlur stdDeviation="10"/>
<feComposite in2="hardAlpha" operator="arithmetic" k2="-1" k3="1"/>
<feColorMatrix type="matrix" values="0 0 0 0 1 0 0 0 0 0.105882 0 0 0 0 0.105882 0 0 0 0.5 0"/>
<feBlend mode="normal" in2="shape" result="effect2_innerShadow_1_2766"/>
</filter>
</defs>
</svg>
