<svg width="383" height="175" viewBox="0 0 383 175" fill="none" xmlns="http://www.w3.org/2000/svg">
<path d="M33.8603 164.45C37.4465 164.454 41.4196 164.443 45.421 164.433C50.2459 164.421 55.112 164.411 59.3902 164.434C59.4999 164.435 59.6097 164.435 59.7194 164.436C62.918 164.453 66.1772 164.477 70.1205 164.507C70.6227 164.511 71.1375 164.515 71.6632 164.519C76.3377 164.554 82.0798 164.596 89.9044 164.642C116.178 164.799 136.894 164.695 143.338 164.662C156.261 164.597 170.047 164.596 188.858 164.594C190.578 164.594 192.341 164.594 194.149 164.594C195.613 164.594 196.826 164.646 196.859 164.711C196.892 164.777 195.732 164.83 194.267 164.83C192.497 164.83 190.773 164.83 189.092 164.831C189.084 164.831 189.076 164.831 189.069 164.831C170.14 164.832 156.653 164.834 144.034 164.897C137.45 164.93 116.226 165.037 89.3033 164.876C81.3955 164.829 75.5889 164.787 70.8861 164.752C70.3713 164.748 69.8695 164.744 69.3817 164.741C69.3702 164.74 69.3587 164.74 69.3472 164.74C65.3781 164.71 62.2561 164.687 59.195 164.671C59.1299 164.67 59.0648 164.67 58.9997 164.67C54.772 164.647 50.0616 164.656 45.421 164.668C41.3742 164.678 37.3806 164.691 33.8067 164.686C32.342 164.684 31.1656 164.629 31.1806 164.564C31.1963 164.499 32.3964 164.448 33.8603 164.45ZM315.527 21.5766C307.89 21.6631 297.729 21.6535 288.757 21.615C279.723 21.5762 271.547 21.5064 267.699 21.4636C263.937 21.4217 259.758 21.4081 254.771 21.3998C253.627 21.3979 252.441 21.3962 251.215 21.3945C247.162 21.3889 242.654 21.3826 237.705 21.364C219.526 21.2954 207.674 21.2925 199.209 21.2987C198.053 21.2996 196.95 21.3006 195.895 21.3017L196.715 21.74C196.419 21.297 196.129 20.8643 195.845 20.4413C195.844 20.4392 195.843 20.437 195.841 20.4349C193.475 16.9029 191.555 14.037 189.839 11.4521L189.55 11.0161L189.019 11.014C187.945 11.0107 186.913 11.0059 185.904 10.9989C178.914 10.951 173.207 10.9086 166.319 10.8257C156.819 10.7113 143.289 10.7249 134.484 10.8035C134.001 10.8078 133.506 10.8124 133.006 10.8169C126.623 10.8743 118.764 10.9449 106.979 10.9975C97.187 11.0412 88.6535 11.0378 81.1003 11.0254C78.9357 11.0219 76.8702 11.0175 74.8872 11.0135C69.8821 11.0033 65.4023 10.9942 61.1825 10.9995C43.4837 11.0219 30.8519 11.0095 21.5945 10.9793L21.0531 10.9772L20.7459 11.4329C18.2721 15.1083 16.2243 18.1388 14.5011 20.6798C13.1842 22.6215 12.0511 24.2855 11.0643 25.7301L10.8759 26.0096L10.8745 26.3555C10.837 30.0455 10.7977 32.5623 10.7665 34.5565C10.7526 35.445 10.7402 36.2296 10.7304 36.9683C10.6433 43.5555 10.6042 49.6034 10.5571 56.8785C10.5467 58.4931 10.5358 60.1729 10.5239 61.9278C10.4843 67.7977 10.4912 72.1719 10.5079 75.6019C10.5152 77.1022 10.5242 78.4225 10.5329 79.6674C10.5331 79.6904 10.5333 79.7134 10.5335 79.7363C10.5347 79.9099 10.5358 80.0821 10.537 80.2531C10.5379 80.3821 10.5391 80.5108 10.5399 80.6398C10.5411 80.6905 10.5419 80.736 10.5426 80.7699C10.5431 80.7968 10.5435 80.8177 10.5437 80.8312C10.5438 80.8337 10.5439 80.8363 10.544 80.8388C10.5486 81.0831 10.5503 81.2934 10.5507 81.3365C10.5514 81.4118 10.5517 81.4785 10.5519 81.5126C10.553 81.6927 10.5536 81.9249 10.5539 82.0792C10.5548 82.4758 10.5558 83.165 10.5568 84.2306C10.5602 85.1583 10.566 86.0486 10.5734 87.1629C10.5739 87.2331 10.5744 87.3033 10.5749 87.3735C10.5821 88.4603 10.5904 89.7321 10.5985 91.328C10.6059 92.78 10.5593 94.1154 10.4945 94.3101C10.4297 94.5041 10.3711 93.4842 10.3637 92.0324C10.3561 90.5288 10.3482 89.3376 10.341 88.2501C10.3405 88.1812 10.3401 88.1123 10.3396 88.0434C10.332 86.9096 10.325 85.8357 10.3209 84.6785C10.3196 84.2911 10.3185 83.8917 10.3177 83.5185C10.3148 82.8469 10.3098 82.0826 10.3035 81.1681C10.3022 80.9845 10.301 80.7951 10.2997 80.6015C10.291 79.3588 10.2808 77.9117 10.2729 76.2795C10.2542 72.4593 10.2472 67.6191 10.2903 61.2311C10.3016 59.5559 10.3121 57.9321 10.3224 56.3463C10.3696 49.0427 10.4114 42.5443 10.5038 35.5518C10.5165 34.5924 10.531 33.6723 10.5463 32.6884C10.5733 30.9621 10.6033 29.0376 10.6329 26.3555L10.6345 25.9353L10.8634 25.5958C11.9076 24.0701 13.1516 22.245 14.6961 19.9675C16.2999 17.6028 18.2187 14.7634 20.5492 11.3014L20.9276 10.7401L21.5945 10.7428C30.6189 10.7728 43.1335 10.7858 60.926 10.7633C65.3553 10.7577 70.1336 10.7676 75.2241 10.7779C77.1673 10.7818 79.1592 10.7856 81.1922 10.789C88.6279 10.8011 96.8928 10.8044 106.347 10.7622C117.869 10.7107 125.514 10.6422 131.869 10.5851C132.089 10.583 132.308 10.581 132.528 10.579C132.8 10.5765 133.071 10.5741 133.339 10.5717C142.722 10.4879 157.118 10.4712 167.613 10.5976C174.198 10.6769 179.661 10.7177 186.612 10.7654C187.395 10.7707 188.19 10.7747 189.019 10.7775L189.677 10.7801L190.035 11.3207C191.577 13.6434 193.336 16.2697 195.742 19.8613C196.116 20.4193 196.505 21.001 196.912 21.6085L195.895 21.0651C196.878 21.0642 197.917 21.0633 199.018 21.0625C207.634 21.0562 219.667 21.059 238.05 21.1283C242.842 21.1464 247.155 21.1525 251.184 21.158C252.436 21.1598 253.664 21.1616 254.867 21.1636C259.877 21.172 264.541 21.1856 268.889 21.2341C272.463 21.2739 280.376 21.3419 289.163 21.3797C298.013 21.4177 307.409 21.4234 314.123 21.3474C314.821 21.3394 315.525 21.3316 316.228 21.3238C322.285 21.256 328.46 21.1868 333.432 21.0718C335.795 20.9952 338.361 20.9298 341.092 20.8741L339.917 21.5024C341.982 18.2714 344.245 14.7802 346.643 11.1138L347.123 10.4019L347.968 10.4052C354.957 10.3354 362.508 10.3042 370.196 10.2952L371.907 10.302L371.9 12C371.92 28.4353 371.838 45.493 371.816 59.0103C371.815 59.3599 371.815 59.7096 371.814 60.0592C371.764 90.7914 371.77 113.126 371.772 120.739C371.773 121.094 371.773 121.417 371.773 121.708C371.773 121.967 371.773 122.202 371.773 122.408C371.774 125.51 371.782 128.254 371.791 131.129C371.791 131.286 371.792 131.443 371.792 131.6C371.795 132.506 371.798 133.426 371.8 134.371L371.798 134.864L371.53 135.263C370.3 137.113 368.993 139.076 367.523 141.274C361.787 149.853 356.838 157.268 352.437 163.865L351.948 164.591L351.087 164.587C348.248 164.59 345.535 164.593 342.93 164.596C341.1 164.598 339.32 164.6 337.586 164.602C337.58 164.602 337.575 164.602 337.57 164.602C335.654 164.604 333.793 164.606 331.978 164.609C326.58 164.615 321.591 164.619 316.795 164.619C305.108 164.62 297.214 164.634 291.074 164.651C289.148 164.656 287.374 164.661 285.699 164.666C282.078 164.676 278.915 164.686 275.654 164.689C269.519 164.695 263.874 164.711 258.312 164.727C257.817 164.729 257.322 164.73 256.827 164.731C250.798 164.748 244.828 164.764 238.517 164.764C237.052 164.765 235.837 164.711 235.807 164.646C235.777 164.581 236.942 164.528 238.406 164.528C244.536 164.528 250.36 164.512 256.387 164.495C256.884 164.494 257.383 164.492 257.884 164.491C263.431 164.475 269.18 164.459 275.428 164.453C278.573 164.45 281.56 164.441 285.109 164.43C286.803 164.425 288.627 164.42 290.656 164.415C296.89 164.398 304.888 164.383 316.688 164.383C321.502 164.383 326.51 164.378 331.978 164.372C333.701 164.37 335.471 164.368 337.295 164.366C339.04 164.364 340.836 164.361 342.688 164.359C345.366 164.356 348.159 164.353 351.087 164.35L351.823 164.353L352.241 163.734C356.628 157.155 361.566 149.758 367.282 141.209C368.761 138.998 370.068 137.034 371.333 135.131L371.561 134.791L371.563 134.371C371.561 133.597 371.559 132.832 371.556 132.067C371.556 131.897 371.555 131.727 371.555 131.558C371.546 128.708 371.537 125.811 371.537 122.535C371.536 122.097 371.536 121.538 371.536 120.866C371.534 113.241 371.527 90.8159 371.578 59.9712C371.578 59.8755 371.578 59.7798 371.578 59.6841C371.612 39.0165 371.631 27.3567 371.573 18.5774C371.557 16.188 371.545 14.0068 371.536 12L371.542 10.6646L370.196 10.6592C366.383 10.6761 363.2 10.6825 360.415 10.6861C359.605 10.6872 358.838 10.6882 358.107 10.6891C354.948 10.6926 352.452 10.6954 349.957 10.7118C349.278 10.7162 348.616 10.7209 347.968 10.7259L347.293 10.7233L346.909 11.292C344.387 15.1291 342.294 18.35 340.165 21.6688L341.092 21.1736C339.417 21.2051 337.724 21.241 335.947 21.2821C330.395 21.4105 323.594 21.4865 317.637 21.553C317.628 21.5531 317.619 21.5532 317.61 21.5533C316.903 21.5611 316.207 21.5689 315.527 21.5766ZM10.7555 112.352C10.7535 113.816 10.6992 114.992 10.634 114.978C10.5688 114.963 10.5173 113.763 10.5193 112.299C10.5239 108.809 10.5286 105.319 10.5332 101.829C10.5352 100.365 10.5895 99.1891 10.6547 99.2025C10.7199 99.2174 10.7713 100.418 10.7694 101.882C10.7648 105.372 10.7601 108.862 10.7555 112.352ZM321.637 22.7523C320.208 22.7655 318.785 22.7242 318.46 22.6603C318.137 22.5964 319.034 22.534 320.462 22.5208C321.217 22.5138 322.459 22.5011 324.129 22.4841C327.849 22.4461 333.703 22.3863 341.092 22.3188L341.109 22.3187L341.118 22.3051C343.175 19.1645 345.452 15.6932 347.905 11.9575L347.928 11.9234L347.968 11.9236C354.739 11.8684 362.239 11.8128 370.196 11.7634L370.433 11.7643L370.432 12C370.494 21.8843 370.546 32.473 370.576 43.2422C370.585 46.3095 370.593 49.0573 370.601 51.6756C370.636 62.8743 370.804 71.8644 370.797 93.2837C370.793 106.981 370.782 120.677 370.768 134.371L370.768 134.547L370.672 134.689C364.292 144.214 357.91 153.737 351.528 163.258L351.368 163.495L351.087 163.494C344.717 163.485 338.347 163.476 331.978 163.468C273.484 163.387 215.02 163.308 156.587 163.441C130.617 163.501 104.728 163.51 78.7376 163.506C69.6243 163.504 57.3173 163.482 45.421 163.456C36.327 163.436 27.4731 163.413 20.4692 163.396L20.2406 163.395L20.113 163.21C16.9219 158.593 14.4061 154.953 13.0349 152.974C12.4242 152.092 11.9251 151.322 11.7257 150.962L12.334 150.772C12.3188 150.922 12.3021 151.003 12.2846 150.999C12.268 150.995 12.2523 150.914 12.2381 150.772L11.8044 150.908C12.0762 151.226 12.638 151.986 13.2595 152.883C14.6216 154.849 17.1272 158.474 20.307 163.075L20.3651 163.16L20.4692 163.16C27.4689 163.177 36.3272 163.2 45.421 163.22C57.2413 163.246 69.4595 163.268 78.5118 163.269C104.452 163.273 130.288 163.264 156.208 163.205C214.723 163.071 273.347 163.03 331.978 163.026C338.347 163.025 344.717 163.025 351.087 163.025L351.12 163.026L351.139 162.997C357.509 153.467 363.881 143.937 370.252 134.409L370.263 134.392L370.263 134.371C370.266 120.634 370.27 106.898 370.275 93.1651C370.281 71.954 370.401 63.3201 370.366 52.1618C370.358 49.5373 370.349 46.7742 370.34 43.6786C370.309 32.742 370.256 21.9981 370.193 12C362.218 12.0528 354.715 12.1091 347.968 12.1648L348.105 12.0916C345.643 15.8422 343.366 19.3149 341.319 22.4398L341.239 22.5605L341.092 22.5611C334.369 22.6232 328.995 22.678 325.454 22.7141C323.73 22.7317 322.436 22.7449 321.637 22.7523ZM253.508 22.6536C237.769 22.6708 215.646 22.6419 195.895 22.6148L195.722 22.6155L195.624 22.4697C195.195 21.8258 194.768 21.185 194.343 20.5476C192.426 17.6718 190.557 14.8665 188.761 12.1721L189.019 12.3098C182.973 12.3018 177.392 12.295 172.589 12.2915C161.163 12.283 153.97 12.2265 146.837 12.1703C146.761 12.1697 146.684 12.1691 146.608 12.1686C139.479 12.1125 132.345 12.0573 120.741 12.0486C109.041 12.0398 92.8516 12.0782 76.5219 12.117C76.5091 12.117 76.4963 12.117 76.4836 12.117C60.2407 12.1556 43.7649 12.3143 31.8588 12.3052C28.3225 12.3025 24.9017 12.2988 21.5945 12.2943L21.8392 12.1635C18.4188 17.2662 15.2136 22.0415 12.2171 26.5006L12.2611 26.3555C12.1964 52.0257 12.08 69.0478 11.9836 78.8329C11.7607 101.46 12.0107 127.123 11.7288 150.239C11.6663 152.789 11.4866 148.489 11.5383 143.789C11.5398 143.619 11.5412 143.45 11.5427 143.28C11.5562 141.663 11.5672 140.249 11.5762 138.257C11.5835 135.371 11.584 133.223 11.5843 131.263C11.5853 126.12 11.6282 90.4169 11.7527 77.784C11.8441 68.5044 11.796 51.9289 11.7809 26.3555L11.7812 26.2882L11.8178 26.2338C14.7912 21.7793 17.9851 16.9975 21.4094 11.8763L21.4764 11.7769L21.5945 11.7773C24.9341 11.778 28.3943 11.7796 31.9775 11.7824C43.6632 11.7913 59.8091 11.9196 76.139 11.8808C76.1837 11.8807 76.2284 11.8806 76.273 11.8805C92.4834 11.842 108.83 11.8032 120.725 11.8121C132.749 11.8211 140.209 11.879 147.431 11.9359C147.501 11.9364 147.571 11.937 147.641 11.9376C154.708 11.9932 161.57 12.0471 172.574 12.0553C177.419 12.0589 183.001 12.0654 189.019 12.0733L188.958 12.0407C190.812 14.8227 192.741 17.717 194.716 20.6806C195.083 21.2308 195.451 21.7834 195.82 22.3382L195.848 22.3784L195.895 22.3782C215.625 22.4054 237.589 22.4345 253.274 22.4174C254.737 22.4158 255.977 22.4675 256.042 22.5327C256.105 22.5979 254.97 22.6519 253.508 22.6536ZM253.171 24.1258C234.096 24.2345 214.976 24.2854 195.895 24.288L194.835 24.2923L194.233 23.3994C191.939 19.9687 189.648 16.5381 187.36 13.1085L189.019 13.9949C166.281 13.9736 143.623 13.8864 121.185 13.7494C109.357 13.7406 92.8518 13.7222 76.3687 13.7037C76.1824 13.7034 75.9961 13.7031 75.8098 13.7028C59.5053 13.6845 43.2722 13.6663 31.6177 13.6574C28.1679 13.6548 24.8275 13.652 21.5945 13.6492L22.9657 12.9164C19.5498 18.0177 16.349 22.7963 13.3564 27.2621L13.6315 26.3555C13.6001 52.1945 13.5523 69.3522 13.4556 79.1698C13.3367 91.2311 13.3364 94.5795 13.3356 99.5432C13.3355 99.6784 13.3354 99.8137 13.3353 99.949C13.3355 99.9579 13.3357 99.9668 13.3359 99.9758C13.3389 100.146 13.3406 100.289 13.3414 100.362C13.3429 100.512 13.3435 100.634 13.3437 100.68C13.3442 100.786 13.3443 100.874 13.3443 100.906C13.3445 101.035 13.3444 101.182 13.3443 101.277C13.3431 102.161 13.336 104.929 13.3262 107.123C13.3163 109.371 13.3034 110.973 13.2893 112.662C13.2878 112.833 13.2863 113.004 13.2849 113.175C13.2721 114.698 13.2581 116.355 13.2429 118.741C13.2337 120.195 13.1739 121.228 13.1093 121.05C13.0447 120.87 12.9999 119.548 13.0091 118.094C13.025 115.584 13.0399 113.821 13.0528 112.291C13.0542 112.121 13.0557 111.951 13.0571 111.782C13.0707 110.165 13.0817 108.748 13.0906 106.755C13.0979 103.87 13.0984 101.725 13.0988 99.7652C13.0997 94.6264 13.1004 90.7567 13.2249 78.1247C13.3168 68.8006 13.3639 52.1305 13.3952 26.3555L13.16 27.1308C16.1421 22.6806 19.3422 17.9031 22.7693 12.7852L21.5945 13.413C24.8177 13.4158 28.1529 13.4186 31.6024 13.4212C43.2786 13.4301 59.5304 13.4483 75.8213 13.4666C76.0127 13.4668 76.2041 13.467 76.3955 13.4672C92.8876 13.4857 109.369 13.5044 121.17 13.5132C143.933 13.5303 166.464 13.5099 189.019 13.5058L187.767 12.8368C190.059 16.2646 192.351 19.6934 194.644 23.1248L195.097 23.7969L195.895 23.7937C214.807 23.7968 233.769 23.8182 252.933 23.8896C261.439 23.8803 269.213 23.8766 276.415 23.8733C297.612 23.8635 313.878 23.8557 329.385 23.7122C331.421 23.6934 335.434 23.6762 341.092 23.6584L341.83 23.6554L342.231 23.0496C344.176 20.1201 346.473 16.6623 349.079 12.7421L347.968 13.3355C348.334 13.3346 348.704 13.3336 349.076 13.3327C352.85 13.3229 356.99 13.3127 361.464 13.3015C364.246 13.2945 367.159 13.2873 370.196 13.2796L368.916 12C368.939 20.935 368.964 30.945 368.995 41.8717C369.004 44.939 369.012 47.6869 369.021 50.3051C369.055 61.5041 369.083 70.3438 369.076 91.764C369.073 103.549 369.059 118.894 369.041 134.371L369.235 133.729C362.608 143.62 355.936 153.574 350.087 162.295L351.087 161.761C344.712 161.751 338.885 161.741 333.953 161.731C333.278 161.73 332.62 161.729 331.978 161.727C321.369 161.706 315.178 161.687 310.723 161.67C309.408 161.665 308.251 161.661 307.19 161.657C304.417 161.646 302.264 161.637 299.442 161.632C279.12 161.592 264.892 161.619 241.583 161.677C240.123 161.681 238.849 161.631 238.739 161.565C238.629 161.5 239.725 161.444 241.185 161.441C264.528 161.383 278.973 161.355 299.572 161.396C302.518 161.401 304.824 161.411 307.646 161.422C308.692 161.426 309.809 161.43 311.057 161.435C315.418 161.451 321.51 161.47 331.978 161.491C332.658 161.492 333.357 161.494 334.075 161.495C338.974 161.504 344.759 161.514 351.087 161.524L349.891 162.163C355.736 153.447 362.411 143.49 369.039 133.598L368.804 134.371C368.822 118.912 368.836 103.587 368.84 91.829C368.847 70.6182 368.82 61.9498 368.785 50.7913C368.777 48.1677 368.768 45.4064 368.759 42.3119C368.728 31.2116 368.702 21.0461 368.679 12L370.196 13.5167C367.294 13.524 364.508 13.531 361.843 13.5377C357.375 13.5489 353.245 13.5591 349.486 13.5688C348.973 13.5702 348.467 13.5715 347.968 13.5728L349.276 12.874C346.608 16.8889 344.318 20.3351 342.429 23.1815L341.958 23.8924L341.092 23.8959C335.816 23.9127 332.259 23.928 330.561 23.9438C314.51 24.0923 297.536 24.1002 276.143 24.1101C269.02 24.1133 261.404 24.1168 253.171 24.1258ZM157.578 161.624C159.04 161.621 160.307 161.671 160.411 161.736C160.514 161.802 159.415 161.857 157.954 161.86C150.235 161.878 144.686 161.893 140.348 161.904C132.319 161.925 128.439 161.936 122.627 161.934C107.625 161.929 93.1401 161.927 80.1081 161.925C66.6571 161.923 54.7512 161.921 45.421 161.917C39.7255 161.915 34.9899 161.911 31.4485 161.907C29.9836 161.905 28.8075 161.85 28.8224 161.785C28.8387 161.72 30.0383 161.668 31.5021 161.67C35.0276 161.675 39.7438 161.678 45.421 161.681C54.6829 161.685 66.5024 161.687 79.8823 161.689C92.9296 161.691 107.462 161.693 122.558 161.697C128.195 161.699 131.858 161.69 139.709 161.669C144.042 161.657 149.654 161.642 157.578 161.624Z" fill="#FF1B1B"/>
<g filter="url(#filter0_d_89_86)">
<path d="M12 150.999L12 150.772L20.4692 162.962H45.421H331.978H351.087L370.196 134.371V12L347.968 12L341.092 22.2881H195.895L189.019 12L21.5945 12L12 26.3555L12 150.999Z" fill="#470000" fill-opacity="0.2" shape-rendering="crispEdges"/>
</g>
<defs>
<filter id="filter0_d_89_86" x="0" y="0" width="382.196" height="174.962" filterUnits="userSpaceOnUse" color-interpolation-filters="sRGB">
<feFlood flood-opacity="0" result="BackgroundImageFix"/>
<feColorMatrix in="SourceAlpha" type="matrix" values="0 0 0 0 0 0 0 0 0 0 0 0 0 0 0 0 0 0 127 0" result="hardAlpha"/>
<feOffset/>
<feGaussianBlur stdDeviation="6"/>
<feComposite in2="hardAlpha" operator="out"/>
<feColorMatrix type="matrix" values="0 0 0 0 1 0 0 0 0 0.105882 0 0 0 0 0.105882 0 0 0 0.5 0"/>
<feBlend mode="normal" in2="BackgroundImageFix" result="effect1_dropShadow_89_86"/>
<feBlend mode="normal" in="SourceGraphic" in2="effect1_dropShadow_89_86" result="shape"/>
</filter>
</defs>
</svg>
