<svg width="585" height="174" viewBox="0 0 585 174" fill="none" xmlns="http://www.w3.org/2000/svg">
<path d="M14.2834 80.7871C13.5335 80.7878 12.7718 80.7882 11.9999 80.7883L10.5158 80.7924L10.5117 79.3C10.5114 76.6485 10.5145 73.8772 10.5188 71.05L10.5148 69.573L11.9999 69.5689C14.8745 69.5732 17.8068 69.5788 20.73 69.5834L19.2634 71.05C19.273 64.9332 19.2782 58.8563 19.2582 53.4333C19.2577 53.2747 19.2571 53.1162 19.2565 52.9577C19.2426 49.158 19.2235 45.299 19.2007 40.88L20.73 42.4092C19.7753 42.4142 18.7944 42.4193 17.7823 42.4245C17.0568 42.4283 16.3132 42.4322 15.5537 42.4362C14.4153 42.4421 13.233 42.4482 11.9999 42.4544L10.4299 42.4588L10.4255 40.88C10.3945 34.7987 10.359 27.4805 10.3203 18.0828C10.3118 16.0311 10.3041 14.0028 10.2971 12L10.2925 10.3019L11.9999 10.2972C47.0472 10.1749 74.301 10.2696 83.1064 10.3002C101.775 10.3652 121.691 10.3666 148.865 10.3684C151.35 10.3686 153.896 10.3685 156.508 10.3687C158.623 10.3689 160.374 10.3163 160.423 10.251C160.47 10.1858 158.795 10.1327 156.679 10.1325C154.122 10.1323 151.63 10.1321 149.202 10.1319C149.191 10.1319 149.18 10.1319 149.169 10.1319C121.824 10.13 102.342 10.1286 84.1129 10.0652C75.1757 10.0341 47.5656 9.93842 11.9999 10.06L10.0546 10.0654L10.0599 12C10.0677 14.2851 10.0764 16.6031 10.0861 18.951C10.123 27.8888 10.1567 34.9684 10.1866 40.88L10.1916 42.6984L11.9999 42.6934C13.6442 42.6851 15.198 42.6771 16.6763 42.6695C17.4201 42.6656 18.145 42.6618 18.8497 42.6581C18.8663 42.658 18.8829 42.6579 18.8994 42.6578C19.5236 42.6546 20.1333 42.6514 20.73 42.6483L18.9617 40.88C18.987 45.7641 19.0073 49.7746 19.0218 53.7153C19.0221 53.8093 19.0223 53.9033 19.0226 53.9973C19.0422 59.3273 19.0378 65.1884 19.0286 71.05L20.73 69.3487C17.798 69.344 14.8658 69.3382 11.9999 69.3336L10.2788 69.3383L10.2835 71.05C10.2789 73.8864 10.2755 76.6579 10.2755 79.3L10.2803 81.0291L11.9999 81.0244C12.7994 81.0244 13.5869 81.024 14.3609 81.0233C15.0872 81.0227 15.7645 81.0158 16.34 81.0044L14.6356 79.3C14.6573 80.4007 14.6955 81.1288 14.7383 81.1146C14.7803 81.0999 14.8165 80.377 14.8364 79.3L16.34 80.8036C15.7431 80.7925 15.0375 80.7865 14.2834 80.7871ZM573.652 136.744C573.651 136.826 573.65 136.908 573.65 136.99L573.652 137.698L572.94 137.7C571.734 137.69 570.485 137.682 569.2 137.675L569.885 136.99C569.866 140.545 569.854 144.374 569.849 148.33L569.2 147.681C570.436 147.683 571.684 147.684 572.94 147.685L573.583 147.683L573.585 148.33C573.583 152.833 573.588 157.438 573.598 161.94L573.6 162.596L572.94 162.598C570.914 162.602 568.91 162.607 566.944 162.613C553.894 162.652 542.082 162.722 536.523 162.765C531.089 162.806 525.052 162.82 517.848 162.828C516.196 162.83 514.483 162.832 512.71 162.834C506.857 162.839 500.344 162.846 493.195 162.864C466.933 162.933 449.812 162.936 437.584 162.929C435.069 162.928 432.729 162.926 430.539 162.925C430.535 162.925 430.531 162.925 430.528 162.925C422.261 162.919 416.093 162.914 410.42 162.941C400.323 162.989 392.078 163.031 382.128 163.114C368.405 163.229 348.859 163.215 336.14 163.136C335.442 163.132 334.727 163.128 334.005 163.123C324.784 163.066 313.43 162.995 296.406 162.943C282.261 162.899 269.934 162.902 259.022 162.915C255.895 162.918 252.911 162.922 250.047 162.927C242.817 162.937 236.345 162.946 230.249 162.94C192.446 162.907 170.644 162.95 156.942 163.014C146.404 163.064 140.517 163.128 136.27 163.173C134.987 163.187 133.854 163.2 132.786 163.21C123.271 163.297 114.534 163.336 104.024 163.383C101.692 163.393 99.2654 163.404 96.7302 163.416C88.2507 163.456 81.9317 163.449 76.9767 163.432C74.8093 163.425 72.9023 163.416 71.1037 163.407C71.0706 163.407 71.0373 163.407 71.0042 163.406C70.7534 163.405 70.5046 163.404 70.2576 163.403C70.0713 163.402 69.8853 163.401 69.699 163.4C69.6257 163.399 69.5601 163.398 69.511 163.397C69.4723 163.397 69.442 163.397 69.4225 163.396C69.4189 163.396 69.4152 163.396 69.4115 163.396C69.0586 163.391 68.7548 163.39 68.6926 163.389C68.5838 163.389 68.4874 163.388 68.4382 163.388C68.1778 163.387 67.8427 163.386 67.6197 163.386C67.0468 163.385 66.0511 163.384 64.5118 163.383C63.1716 163.38 61.8856 163.374 60.2758 163.367C60.1743 163.366 60.073 163.366 59.9716 163.365C58.4016 163.358 56.5644 163.35 54.259 163.342C52.1614 163.334 50.2321 163.381 49.951 163.445C49.6708 163.51 51.1439 163.569 53.2415 163.576C55.4134 163.584 57.1342 163.592 58.7052 163.599C58.8047 163.599 58.9042 163.6 59.0038 163.6C60.6417 163.608 62.1931 163.615 63.8648 163.619C64.4244 163.62 65.0013 163.622 65.5404 163.622C66.5106 163.625 67.6147 163.63 68.9359 163.637C69.201 163.638 69.4746 163.639 69.7543 163.64C71.5496 163.649 73.64 163.659 75.9978 163.667C81.5164 163.686 88.5085 163.693 97.7367 163.65C100.157 163.638 102.502 163.628 104.793 163.618C115.344 163.57 124.731 163.529 134.833 163.436C136.219 163.423 137.548 163.409 138.969 163.394C143.182 163.348 148.212 163.294 157.954 163.248C171.007 163.187 192.29 163.144 229.879 163.177C236.277 163.182 243.18 163.172 250.534 163.162C253.341 163.158 256.218 163.154 259.155 163.151C269.897 163.139 281.836 163.136 295.493 163.178C312.138 163.229 323.182 163.298 332.363 163.355C332.68 163.357 332.997 163.359 333.314 163.361C333.708 163.363 334.099 163.366 334.486 163.368C348.04 163.452 368.837 163.469 383.997 163.342C393.51 163.263 401.402 163.222 411.443 163.175C416.381 163.151 421.658 163.155 429.759 163.161C432.033 163.163 434.533 163.164 437.307 163.166C449.754 163.172 467.137 163.169 493.692 163.1C500.616 163.082 506.846 163.076 512.666 163.07C514.474 163.068 516.248 163.067 517.986 163.065C525.225 163.056 531.962 163.042 538.243 162.994C543.406 162.954 554.837 162.886 567.53 162.848C569.322 162.843 571.13 162.838 572.94 162.835L573.837 162.832L573.834 161.94C573.825 157.351 573.82 152.744 573.822 148.33L573.819 147.446L572.94 147.448C571.676 147.448 570.428 147.446 569.2 147.445L570.085 148.33C570.092 144.264 570.105 140.424 570.127 136.99L569.2 137.917C569.868 137.921 570.521 137.926 571.157 137.931C571.749 137.935 572.344 137.94 572.94 137.945L573.897 137.942L573.895 136.99C573.898 136.571 573.901 136.151 573.904 135.732C573.972 126.982 574.041 118.062 574.156 110.879C574.569 92.4847 574.656 65.5635 574.647 38.69L574.645 37.9782L574.147 37.4829C565.015 28.3576 555.876 19.2557 547.418 10.8316L546.93 10.3457L546.25 10.3476C539.548 10.3608 533.15 10.373 527.223 10.3798C526.717 10.3803 526.212 10.3809 525.707 10.3815C481.312 10.4317 449.047 10.4253 438.05 10.4232C437.537 10.423 437.07 10.4229 436.65 10.4229C436.276 10.4228 435.937 10.4226 435.638 10.4226C431.158 10.422 427.194 10.4136 423.041 10.4048C422.814 10.4043 422.587 10.4038 422.361 10.4033C417.972 10.3941 413.366 10.3851 407.922 10.3859C387.677 10.3888 371.174 10.3781 356.895 10.3666C354.418 10.3647 352.006 10.3629 349.65 10.3609L348.006 10.3655L348.011 12C348.011 12.1585 348.011 12.3168 348.01 12.4748C348.01 12.4821 348.01 12.4895 348.01 12.4969C348.009 14.8071 348.007 17.0625 348.005 19.27L349.65 17.6249C342.89 17.6195 336.58 17.6151 330.52 17.6136L332.176 19.27C332.177 17.8881 332.177 16.5193 332.177 15.1612C332.177 14.0855 332.177 13.032 332.177 12L332.172 10.3383L330.52 10.3429C315.355 10.341 304.829 10.327 296.524 10.3119C293.742 10.3068 291.179 10.3017 288.76 10.2968C283.529 10.2861 278.961 10.2767 274.249 10.2735C265.387 10.2673 257.231 10.2511 249.198 10.2353C248.482 10.2339 247.767 10.2326 247.052 10.2312C238.343 10.2142 229.719 10.1984 220.601 10.198C218.485 10.1979 216.731 10.251 216.686 10.3163C216.644 10.3815 218.326 10.4344 220.441 10.4345C229.297 10.4349 237.71 10.4501 246.416 10.4671C247.134 10.4685 247.856 10.4701 248.578 10.4715C256.592 10.4872 264.897 10.5034 273.923 10.5096C278.466 10.5128 282.781 10.5216 287.908 10.5321C290.355 10.5371 292.99 10.5425 295.922 10.5478C304.387 10.5632 315.105 10.5776 330.52 10.5794L331.937 10.5755L331.941 12C331.94 12.9828 331.94 13.9847 331.94 15.0064C331.94 16.415 331.94 17.8352 331.94 19.27L330.52 17.8501C336.557 17.8516 342.854 17.856 349.65 17.8615L348.241 19.27C348.243 17.1938 348.245 15.0711 348.247 12.8951C348.247 12.5977 348.247 12.2994 348.247 12L348.244 10.6014L349.65 10.5975C351.89 10.5993 354.187 10.6013 356.547 10.6031C370.862 10.6146 387.45 10.6253 407.805 10.6224C412.949 10.6216 417.316 10.6301 421.686 10.6393C421.931 10.6397 422.176 10.6402 422.421 10.6407C426.539 10.6494 430.723 10.6584 435.456 10.6591C436.088 10.6591 436.896 10.6592 437.867 10.6593C448.881 10.6615 481.276 10.6681 525.834 10.6177C525.973 10.6175 526.111 10.6173 526.249 10.6171C533.676 10.6087 540.297 10.6012 546.25 10.5956L546.828 10.594L547.243 11.0069C559.249 22.9903 567.403 31.1433 573.919 37.7111L574.323 38.1128L574.324 38.69C574.322 39.2433 574.32 39.7885 574.317 40.3262C574.271 50.3357 574.259 57.8166 574.254 63.9563C574.253 65.1269 574.252 66.2347 574.251 67.291C574.247 71.8543 574.245 75.4605 574.228 79.0646C574.179 89.9675 574.097 97.7858 573.946 107.246C573.818 115.266 573.742 125.09 573.675 133.697C573.675 133.709 573.675 133.722 573.675 133.735C573.667 134.756 573.659 135.762 573.652 136.744ZM25.793 156.631C24.4387 155.007 23.311 153.736 23.2731 153.793C23.2368 153.851 24.306 155.216 25.661 156.842C27.3398 158.855 29.0186 160.869 30.6973 162.883L31.1432 163.415L31.83 163.413C34.2499 163.411 36.6699 163.409 39.0899 163.407C41.2047 163.405 42.9028 163.35 42.8835 163.285C42.8619 163.22 41.1282 163.169 39.0125 163.171C36.6183 163.173 34.2242 163.175 31.83 163.177L31.2534 163.179L30.879 162.731C29.1837 160.698 27.4883 158.664 25.793 156.631ZM572.476 127.918C572.463 129.982 572.504 132.038 572.568 132.508C572.632 132.974 572.694 131.678 572.707 129.615C572.714 128.525 572.727 126.731 572.744 124.317C572.84 110.762 573.074 77.5925 573.222 38.69L573.221 38.5725L573.139 38.4908C565.405 30.6982 557.344 22.5877 549.171 14.3834C548.263 13.4716 547.382 12.5872 546.524 11.7257L546.41 11.6116L546.25 11.6121C543.28 11.606 540.502 11.6 537.818 11.5942C521.641 11.5593 508.654 11.3914 477.711 11.3982C435.013 11.4076 392.326 11.4463 349.65 11.4867L349.135 11.4881L349.137 12C349.139 14.4234 349.141 16.8467 349.143 19.27L349.65 18.7636C343.273 18.7696 336.896 18.7757 330.52 18.7816L331.008 19.27C331.006 16.8466 331.004 14.4233 331.002 12L331 11.5171L330.52 11.5184C254.393 11.5887 178.301 11.6416 102.246 11.5211C72.1336 11.4734 42.0972 11.4583 11.9999 11.4562L11.4547 11.4577L11.4562 12C11.4556 19.4004 11.4559 26.8044 11.4567 34.2141C11.4569 36.3247 11.4577 38.5538 11.4589 40.88L11.4604 41.4225L11.9999 41.421C14.7832 41.4196 17.7054 41.4174 20.73 41.4147L20.1953 40.88C20.2036 50.3133 20.2173 60.7416 20.2327 71.05L20.73 70.5528C17.8018 70.5571 14.8832 70.5617 11.9999 70.5662L11.5149 70.5676L11.5162 71.05C11.5206 73.8407 11.5251 76.5984 11.5296 79.3L11.5309 79.7717L11.9999 79.7704C13.4644 79.7679 14.9122 79.7655 16.34 79.7631L15.8768 79.3C15.8835 83.2618 15.89 87.068 15.8961 90.64L16.34 90.1961C14.8506 90.1987 13.402 90.2011 11.9999 90.2035L11.5623 90.2047L11.5635 90.64C11.5682 93.4014 11.5725 95.9826 11.5764 98.34L11.5776 98.7647L11.9999 98.7635C13.5471 98.761 14.9979 98.7586 16.34 98.7565L15.9234 98.34C15.9284 101.521 15.9319 104.091 15.9336 105.886C15.9355 108.003 15.9901 109.701 16.0554 109.68C16.1205 109.657 16.1718 107.924 16.1698 105.809C16.1682 104.033 16.1646 101.49 16.1597 98.34L16.34 98.5202C14.999 98.5223 13.5481 98.5247 11.9999 98.5272L11.8132 98.5278L11.8127 98.34C11.8088 95.984 11.8044 93.4026 11.7997 90.64L11.7992 90.4403L11.9999 90.4398C13.4019 90.4374 14.8505 90.4349 16.34 90.4324L16.1323 90.64C16.1262 87.0687 16.1197 83.2622 16.113 79.3L16.34 79.5269C14.9123 79.5293 13.4644 79.5317 11.9999 79.5342L11.7664 79.5348L11.7657 79.3C11.7613 76.5984 11.7568 73.8406 11.7524 71.05L11.7517 70.8031L11.9999 70.8024C14.8835 70.7978 17.8021 70.7933 20.73 70.7889L20.4689 71.05C20.4534 60.7331 20.4398 50.3009 20.4315 40.88L20.73 41.1785C17.7031 41.1812 14.7806 41.1833 11.9999 41.1847L11.6961 41.1855L11.6953 40.88C11.6941 38.6711 11.6934 36.5517 11.6932 34.5404C11.6924 27.0216 11.6921 19.5089 11.6926 12L11.6918 11.6936L11.9999 11.6927C41.9146 11.6948 71.7676 11.7099 101.699 11.7573C177.88 11.878 254.19 11.9233 330.52 11.9344L330.585 11.9342L330.586 12C330.585 14.4233 330.585 16.8466 330.585 19.27L330.52 19.2053C336.896 19.2061 343.273 19.2066 349.65 19.2069L349.587 19.27C349.587 16.8467 349.587 14.4233 349.587 12L349.587 11.9374L349.65 11.9372C392.399 11.9382 435.15 11.9304 477.883 11.921C508.524 11.9142 520.997 11.795 537.116 11.8298C540.003 11.8361 543.007 11.8426 546.25 11.8492L546.312 11.8491L546.357 11.8934C547.073 12.6129 547.806 13.349 548.559 14.1045C556.892 22.4704 565.107 30.7354 572.97 38.6596L572.983 38.6721L572.983 38.69C572.838 76.5698 572.61 108.819 572.514 122.404C572.496 124.894 572.483 126.764 572.476 127.918ZM516.023 161.575C492.397 161.557 458.811 161.589 429.46 161.617C415.146 161.63 401.84 161.643 391.186 161.649C374.681 161.657 364.29 161.714 353.985 161.77C353.875 161.77 353.764 161.771 353.654 161.771C343.356 161.828 333.05 161.883 316.287 161.891C299.385 161.9 275.998 161.862 252.408 161.823C252.39 161.823 252.371 161.823 252.353 161.823C228.889 161.784 205.088 161.626 187.889 161.635C127.952 161.667 90.9958 161.829 72.3092 161.956C59.3388 162.045 45.6777 162.059 31.83 162.061L31.7735 162.061L31.7369 162.017C25.1473 154.101 18.4968 146.102 11.8979 138.195L11.8674 138.158L11.8672 138.11C11.8536 128.486 11.8229 118.953 11.7544 109.68L11.7537 109.435L11.9999 109.434C13.0844 109.426 14.1652 109.418 15.2422 109.409C17.7373 109.366 15.6907 109.27 11.9999 109.229L11.5475 109.23L11.5487 109.68C11.529 111.437 11.5215 113.566 11.5383 115.756C11.5397 116.001 11.5411 116.246 11.5426 116.492C11.5562 118.826 11.5672 120.87 11.5761 123.747C11.5834 127.916 11.5839 131.019 11.5843 133.851C11.5844 134.714 11.5851 136.175 11.5864 138.11L11.5868 138.261L11.682 138.375C15.8477 143.374 23.4531 152.495 31.5404 162.181L31.6544 162.317L31.83 162.317C47.7402 162.29 64.8301 162.249 73.8245 162.187C91.5589 162.066 127.74 162.19 188.06 162.158C204.941 162.149 228.265 162.02 251.855 162.059C251.92 162.059 251.984 162.059 252.049 162.059C275.466 162.098 299.081 162.137 316.264 162.128C333.634 162.119 344.41 162.061 354.842 162.004C354.944 162.004 355.045 162.003 355.147 162.002C365.355 161.947 375.268 161.893 391.164 161.885C402.052 161.879 415.514 161.866 429.919 161.853C459.144 161.825 492.261 161.793 515.686 161.811C517.8 161.812 519.591 161.761 519.684 161.695C519.776 161.63 518.136 161.576 516.023 161.575ZM515.536 160.102C449.149 159.84 382.391 159.914 316.928 160.191C299.842 160.199 275.998 160.218 252.187 160.236C251.918 160.237 251.649 160.237 251.38 160.237C227.826 160.256 204.376 160.274 187.54 160.283C127.605 160.314 90.5095 160.357 71.8226 160.484C54.3989 160.603 49.562 160.604 42.3914 160.604C42.196 160.605 42.0005 160.605 41.8052 160.605C41.7922 160.605 41.7794 160.604 41.7665 160.604C41.5205 160.601 41.3143 160.599 41.2079 160.599C40.9914 160.597 40.815 160.596 40.7489 160.596C40.5963 160.596 40.4682 160.596 40.4226 160.596C40.2365 160.596 40.0234 160.596 39.8862 160.596C38.6609 160.597 34.9294 160.603 31.83 160.613L32.8503 161.091C32.7665 160.991 32.6833 160.892 32.6011 160.793C30.5165 158.304 29.0261 156.533 27.4542 154.666C27.295 154.477 27.1359 154.288 26.9768 154.099C25.5599 152.416 24.0181 150.586 21.8013 147.945C20.4507 146.337 19.4501 145.228 19.5656 145.468C19.6821 145.708 20.8695 147.205 22.2194 148.813C24.5515 151.591 26.1921 153.539 27.6155 155.23C27.7734 155.417 27.9314 155.605 28.0893 155.792C29.5688 157.549 30.8676 159.093 32.668 161.243L31.83 160.85C31.8772 160.85 31.9249 160.85 31.9727 160.849C36.1408 160.842 39.2395 160.842 42.0706 160.841C49.4941 160.84 55.0841 160.84 73.3323 160.715C91.0662 160.594 127.195 160.551 187.518 160.519C204.385 160.51 227.863 160.492 251.396 160.473C251.673 160.473 251.949 160.473 252.226 160.473C276.05 160.454 299.859 160.436 316.906 160.427C383.351 160.392 448.422 160.511 515.194 160.339C527.48 160.348 538.71 160.352 549.115 160.355C557.556 160.358 565.455 160.36 572.94 160.365L571.365 161.94C571.369 157.251 571.373 152.724 571.379 148.33L572.94 149.891C571.683 149.889 570.436 149.887 569.2 149.885L567.641 149.881L567.645 148.33C567.651 144.459 567.659 140.686 567.67 136.99L567.674 135.455L569.2 135.46C570.455 135.463 571.702 135.467 572.94 135.471L571.421 136.99C571.443 130.036 571.474 123.333 571.516 116.725C571.547 111.813 571.574 98.9401 571.607 80.3365C571.617 74.8849 571.627 68.9044 571.638 62.4411C571.651 55.1294 571.665 47.1944 571.68 38.69L572.049 39.5809C565.044 32.5505 557.491 24.9705 549.453 16.9012C548.045 15.4874 546.703 14.1398 545.409 12.8406L546.25 13.1888C544.012 13.1842 541.877 13.1796 539.798 13.1751C523.62 13.1401 510.85 13.1123 479.907 13.1192C443.871 13.1271 384.796 13.1801 349.65 13.224L350.874 12C350.876 13.9869 350.879 15.8974 350.881 17.7228C350.882 18.2455 350.883 18.7612 350.883 19.27L350.88 20.5068L349.65 20.5034C341.815 20.5139 335.599 20.5241 330.52 20.5338L329.253 20.5303L329.256 19.27C329.251 16.5442 329.246 14.1457 329.241 12L330.52 13.2787C328.434 13.2834 326.587 13.2879 324.91 13.2922C323.01 13.297 321.339 13.3017 319.806 13.3059C315.801 13.3167 312.69 13.325 308.613 13.3306C279.256 13.3708 258.703 13.3431 225.031 13.2855C222.921 13.2819 221.081 13.3319 220.922 13.397C220.764 13.4622 222.346 13.518 224.456 13.5217C258.178 13.5794 279.044 13.6075 308.801 13.5668C313.058 13.561 316.388 13.5519 320.464 13.5409C321.975 13.5368 323.589 13.5324 325.392 13.5278C326.933 13.5239 328.624 13.5197 330.52 13.5154L329.004 12C329.009 14.136 329.014 16.5327 329.02 19.27L329.015 20.7662L330.52 20.7703C335.57 20.7607 341.779 20.7505 349.65 20.7398L351.116 20.7438L351.12 19.27C351.119 18.7039 351.118 18.1293 351.117 17.5459C351.115 15.7748 351.113 13.9236 351.11 12L349.65 13.4604C384.715 13.4166 443.831 13.3636 479.813 13.3557C510.454 13.3489 522.976 13.3759 539.096 13.4107C541.387 13.4157 543.751 13.4208 546.25 13.426L545.242 13.0084C546.395 14.1667 547.589 15.3659 548.837 16.6183C557.043 24.8562 564.748 32.5901 571.881 39.7486L571.443 38.69C571.428 46.991 571.415 54.7443 571.402 61.8936C571.391 68.3485 571.381 74.3149 571.371 79.7448C571.337 98.7231 571.311 110.819 571.284 115.027C571.239 122.172 571.206 129.444 571.183 136.99L572.94 135.233C571.701 135.229 570.454 135.226 569.2 135.222L567.437 135.217L567.432 136.99C567.422 140.694 567.414 144.469 567.408 148.33L567.403 150.117L569.2 150.122C570.437 150.124 571.684 150.126 572.94 150.127L571.142 148.33C571.136 152.742 571.132 157.27 571.129 161.94L572.94 160.129C565.282 160.123 557.245 160.121 548.723 160.118C538.431 160.115 527.43 160.111 515.536 160.102ZM103.678 13.3382C105.789 13.3415 107.621 13.2912 107.771 13.2261C107.92 13.1609 106.331 13.1053 104.22 13.102C93.0698 13.0843 85.0538 13.0697 78.7874 13.0583C67.1889 13.0371 61.5834 13.0268 53.1885 13.0286C39.0134 13.0317 25.1577 13.0337 11.9999 13.0353L13.0353 12C13.0361 18.9587 13.0369 25.7221 13.0375 32.2344C13.0378 35.1689 13.0381 38.0524 13.0385 40.88L11.9999 39.8415C14.9739 39.8411 17.8859 39.8408 20.73 39.8405L21.7724 39.8433L21.7695 40.88C21.7709 52.1211 21.7724 62.3006 21.7748 71.05L21.7719 72.0976L20.73 72.0948C17.6357 72.0956 14.7202 72.0965 11.9999 72.0976L13.0475 71.05C13.0487 74.0436 13.05 76.8008 13.0516 79.3L11.9999 78.2483C13.5472 78.2474 14.9957 78.2464 16.34 78.2453L17.3976 78.2482L17.3947 79.3C17.3951 79.7897 17.3955 80.2656 17.3959 80.7275C17.3979 82.8437 17.4525 84.5427 17.5177 84.5211C17.5828 84.4975 17.634 82.7647 17.6321 80.65C17.6317 80.2126 17.6313 79.7626 17.631 79.3L17.6345 78.0126L16.34 78.009C14.9968 78.0101 13.5484 78.0111 11.9999 78.0121L13.2878 79.3C13.2863 76.803 13.285 74.0458 13.2838 71.05L11.9999 72.3338C14.7188 72.3328 17.6342 72.3318 20.73 72.331L22.0074 72.3345L22.011 71.05C22.0086 62.3102 22.007 52.1325 22.0057 40.88L22.0092 39.6078L20.73 39.6043C17.8867 39.6046 14.9747 39.605 11.9999 39.6053L13.2747 40.88C13.2744 38.1579 13.274 35.3833 13.2737 32.5606C13.2731 25.9518 13.2723 19.0791 13.2715 12L11.9999 13.2716C25.11 13.2701 38.9279 13.2681 53.0889 13.2651C61.2311 13.2633 66.5233 13.2729 77.8638 13.2936C84.1243 13.3051 92.2302 13.32 103.678 13.3382Z" fill="#FF1B1B"/>
<g filter="url(#filter0_d_89_71)">
<path d="M16.34 109.68V98.34H11.9999V90.64H16.34V79.3H11.9999V71.05H20.73V40.88H11.9999V12H330.52V19.27H349.65V12H546.25L572.94 38.69V136.99H569.2V148.33H572.94V161.94H31.83L11.9999 138.11V109.68H16.34Z" fill="#470000" fill-opacity="0.2" shape-rendering="crispEdges"/>
</g>
<defs>
<filter id="filter0_d_89_71" x="0" y="0" width="584.94" height="173.94" filterUnits="userSpaceOnUse" color-interpolation-filters="sRGB">
<feFlood flood-opacity="0" result="BackgroundImageFix"/>
<feColorMatrix in="SourceAlpha" type="matrix" values="0 0 0 0 0 0 0 0 0 0 0 0 0 0 0 0 0 0 127 0" result="hardAlpha"/>
<feOffset/>
<feGaussianBlur stdDeviation="6"/>
<feComposite in2="hardAlpha" operator="out"/>
<feColorMatrix type="matrix" values="0 0 0 0 1 0 0 0 0 0.105882 0 0 0 0 0.105882 0 0 0 0.5 0"/>
<feBlend mode="normal" in2="BackgroundImageFix" result="effect1_dropShadow_89_71"/>
<feBlend mode="normal" in="SourceGraphic" in2="effect1_dropShadow_89_71" result="shape"/>
</filter>
</defs>
</svg>
