<svg width="384" height="178" viewBox="0 0 384 178" fill="none" xmlns="http://www.w3.org/2000/svg">
<path d="M358.106 146.115C362.318 139.559 367.465 131.399 371.658 124.929C371.717 124.839 371.776 124.748 371.835 124.657C372.231 124.047 372.629 123.434 373.033 122.812L373.266 122.451L373.267 122.01C373.283 119.54 373.303 116.951 373.326 113.964C373.329 113.469 373.333 112.962 373.337 112.444C373.372 107.839 373.414 102.183 373.461 94.4749C373.574 75.8055 373.551 59.9848 373.517 50.2346L373.519 49.7338L373.244 49.299C371.203 46.1326 369.649 43.7305 368.688 42.2451C362.789 33.1243 356.595 23.4575 348.7 11.1203L348.225 10.3711L347.325 10.3674C344.806 10.3679 342.193 10.3681 339.473 10.3684C337.778 10.3686 336.042 10.3685 334.261 10.3687C332.819 10.3689 331.624 10.3163 331.591 10.251C331.559 10.1858 332.701 10.1327 334.144 10.1325C335.888 10.1323 337.587 10.1321 339.243 10.1319C339.25 10.1319 339.258 10.1319 339.265 10.1319C342.068 10.1316 344.749 10.1314 347.325 10.1309L348.356 10.1351L348.899 10.9929C356.748 23.2584 362.78 32.6713 368.517 41.5403C369.54 43.1218 371.223 45.7244 373.444 49.171L373.757 49.6653L373.755 50.2346C373.788 60.2538 373.809 76.2472 373.695 95.067C373.648 102.857 373.606 108.577 373.57 113.21C373.567 113.717 373.563 114.211 373.559 114.692C373.559 114.703 373.559 114.714 373.559 114.726C373.538 117.477 373.52 119.815 373.506 122.01L373.504 122.522L373.233 122.94C372.729 123.715 372.24 124.469 371.754 125.219C371.719 125.273 371.684 125.327 371.649 125.38C367.409 131.923 362.361 139.928 358.276 146.287C357.496 147.501 356.825 148.447 356.778 148.399C356.732 148.351 357.326 147.328 358.106 146.115ZM11.2884 53.4276C11.375 60.9517 11.3654 70.9609 11.3269 79.7989C11.2881 88.6985 11.2183 96.7529 11.1754 100.544C11.1335 104.249 11.12 108.366 11.1116 113.279C11.1097 114.405 11.1081 115.574 11.1064 116.782C11.1008 120.774 11.0945 125.215 11.0758 130.09C11.0627 133.527 11.0519 136.735 11.0432 139.733C11.0289 144.641 11.0201 148.989 11.0149 152.867L11.0137 153.151L11.1701 153.397C14.4476 158.537 17.106 162.691 19.3277 166.159C19.4081 166.284 19.4879 166.409 19.5673 166.533L19.8551 166.987L20.4005 166.989C21.9479 166.988 23.397 166.986 24.7608 166.985C24.7633 166.985 24.7658 166.985 24.7683 166.985C30.4057 166.979 34.6119 166.974 38.4801 167.001C45.3654 167.049 50.9879 167.091 57.7731 167.174C67.131 167.289 80.4599 167.275 89.1336 167.196C89.6096 167.192 90.0966 167.188 90.5893 167.183C96.8772 167.126 104.62 167.055 116.229 167.003C125.875 166.959 134.281 166.962 141.722 166.975C143.854 166.978 145.889 166.982 147.842 166.987C152.773 166.997 157.186 167.006 161.343 167C187.122 166.967 201.989 167.01 211.333 167.074C218.519 167.124 222.533 167.188 225.429 167.233C226.304 167.247 227.077 167.26 227.805 167.27C234.294 167.357 240.252 167.396 247.418 167.443C249.009 167.453 250.664 167.464 252.392 167.476C258.175 167.516 262.484 167.509 265.863 167.492C267.341 167.485 268.641 167.476 269.868 167.467C269.89 167.467 269.913 167.467 269.936 167.466C270.107 167.465 270.276 167.464 270.445 167.463C270.572 167.462 270.699 167.461 270.826 167.46C270.876 167.459 270.92 167.458 270.954 167.457C270.98 167.457 271.001 167.457 271.014 167.456C271.017 167.456 271.019 167.456 271.022 167.456C271.262 167.451 271.469 167.45 271.512 167.449C271.586 167.449 271.652 167.448 271.685 167.448C271.863 167.447 272.092 167.446 272.244 167.446C272.634 167.445 273.313 167.444 274.363 167.443C275.277 167.44 276.154 167.434 277.252 167.427C277.321 167.426 277.39 167.426 277.459 167.425C278.53 167.418 279.783 167.41 281.355 167.402C282.785 167.394 284.101 167.441 284.292 167.505C284.483 167.57 283.479 167.629 282.048 167.636C280.567 167.644 279.394 167.652 278.323 167.659C278.255 167.659 278.187 167.66 278.119 167.66C277.002 167.668 275.944 167.675 274.804 167.679C274.423 167.68 274.029 167.682 273.662 167.682C273 167.685 272.247 167.69 271.346 167.697C271.165 167.698 270.979 167.699 270.788 167.7C269.564 167.709 268.138 167.719 266.53 167.727C262.767 167.746 257.999 167.753 251.706 167.71C250.056 167.698 248.456 167.688 246.894 167.678C239.699 167.63 233.298 167.589 226.41 167.496C225.464 167.483 224.558 167.469 223.589 167.454C220.716 167.408 217.286 167.354 210.643 167.308C201.741 167.247 187.228 167.204 161.595 167.237C157.232 167.242 152.525 167.232 147.51 167.222C145.596 167.218 143.634 167.214 141.631 167.211C134.306 167.199 126.165 167.196 116.851 167.238C105.501 167.289 97.9698 167.358 91.7093 167.415C91.4931 167.417 91.2769 167.419 91.0607 167.421C90.7922 167.423 90.5255 167.426 90.2612 167.428C81.0184 167.512 66.8362 167.529 56.4985 167.402C50.0111 167.323 44.6299 167.282 37.7824 167.235C34.415 167.211 30.8168 167.215 25.2925 167.221C23.8119 167.223 22.1907 167.224 20.4005 167.225L19.7247 167.223L19.3682 166.66C19.3225 166.589 19.2765 166.517 19.2303 166.445C16.9753 162.925 14.2823 158.717 10.971 153.525L10.7771 153.219L10.7785 152.867C10.7837 148.98 10.7925 144.631 10.8066 139.733C10.8155 136.633 10.8266 133.313 10.8402 129.751C10.8583 125.03 10.8643 120.781 10.8699 116.812C10.8717 115.579 10.8734 114.37 10.8755 113.185C10.8838 108.248 10.8975 103.654 10.9459 99.371C10.9857 95.8503 11.0538 88.0552 11.0916 79.3992C11.1296 70.681 11.1353 61.4254 11.0592 54.8116C11.0513 54.1239 11.0435 53.4302 11.0356 52.7374C10.9678 46.771 10.8987 40.6879 10.7837 35.7901C10.6982 33.1924 10.6266 30.3454 10.567 27.3009L10.5687 26.8755L10.7934 26.528C13.676 21.828 16.9407 16.604 20.4111 11.1092L20.9051 10.3449L21.8017 10.3485C42.0452 10.2184 65.5782 10.3507 83.0836 10.3798C83.428 10.3803 83.7725 10.3809 84.1169 10.3815C114.391 10.4317 136.393 10.4253 143.893 10.4232C144.243 10.4231 144.561 10.4229 144.847 10.4229C145.102 10.4228 145.333 10.4226 145.537 10.4226C148.592 10.422 151.295 10.4136 154.128 10.4048C154.282 10.4043 154.437 10.4038 154.591 10.4034C157.584 10.3941 160.725 10.3851 164.438 10.3859C166.474 10.3863 168.456 10.3864 170.385 10.3863L171.274 10.3899L171.744 11.1305C174.132 14.8635 176.373 18.3637 178.488 21.6652L177.124 20.919C183.065 20.9153 188.465 20.9096 193.465 20.9037C193.962 20.9032 194.455 20.9026 194.944 20.902L193.566 21.6561C194.258 20.5713 194.937 19.508 195.603 18.464C195.605 18.4598 195.608 18.4556 195.611 18.4513C197.24 15.8975 198.795 13.46 200.294 11.1111L200.787 10.3467L201.683 10.3504C205.795 10.346 209.679 10.3431 213.442 10.3431C224.955 10.3429 232.732 10.328 238.781 10.3119C240.678 10.3068 242.425 10.3017 244.075 10.2968C247.642 10.2861 250.758 10.2767 253.971 10.2735C260.014 10.2673 265.575 10.2511 271.054 10.2353C271.542 10.2339 272.03 10.2326 272.517 10.2312C278.455 10.2142 284.337 10.1984 290.554 10.198C291.997 10.1979 293.194 10.251 293.224 10.3163C293.253 10.3815 292.106 10.4344 290.663 10.4345C284.624 10.4349 278.888 10.4501 272.951 10.4671C272.461 10.4685 271.969 10.4701 271.476 10.4715C266.011 10.4872 260.348 10.5034 254.193 10.5097C251.095 10.5128 248.152 10.5216 244.656 10.5321C242.987 10.5371 241.191 10.5425 239.192 10.5478C233.051 10.5642 225.172 10.5794 213.548 10.5796C209.76 10.5796 205.849 10.5825 201.683 10.5869L200.916 10.5838L200.493 11.2386C199.044 13.5087 197.539 15.869 195.956 18.3499C195.242 19.4688 194.513 20.6126 193.766 21.7836L194.944 21.1388C194.533 21.1393 194.119 21.1397 193.703 21.1402C188.641 21.1462 183.162 21.1519 177.124 21.1556L178.288 21.7927C176.174 18.4911 173.933 14.9906 171.545 11.2579L171.144 10.6259L170.385 10.6228C168.48 10.6229 166.526 10.6228 164.517 10.6224C161.009 10.6216 158.032 10.6301 155.051 10.6393C154.884 10.6397 154.717 10.6402 154.55 10.6407C151.742 10.6494 148.889 10.6584 145.661 10.6591C145.23 10.6591 144.68 10.6592 144.017 10.6594C136.506 10.6615 114.415 10.6681 84.0302 10.6177C83.9359 10.6175 83.8416 10.6173 83.7473 10.6171C63.3878 10.5833 51.9016 10.5643 43.2532 10.6227C36.4275 10.6687 31.326 10.6805 27.1392 10.6861C26.341 10.6872 25.5855 10.6882 24.8653 10.6891C23.7731 10.6903 22.7613 10.6914 21.8017 10.6931L21.0922 10.6903L20.7013 11.2951C19.7468 12.7908 18.8902 14.1371 18.0387 15.486C15.3524 19.7417 13.198 23.1937 11.0467 26.6902L10.8692 26.9648L10.8679 27.3009C10.9034 29.2604 10.945 31.228 10.994 33.3125C11.1224 38.7813 11.1984 45.4808 11.2648 51.3497C11.2649 51.3585 11.265 51.3673 11.2651 51.3761C11.273 52.0724 11.2807 52.7581 11.2884 53.4276ZM302.066 167.245C303.508 167.246 304.665 167.301 304.652 167.366C304.638 167.431 303.456 167.483 302.013 167.481C298.575 167.476 295.137 167.471 291.699 167.467C290.257 167.465 289.099 167.41 289.112 167.345C289.126 167.28 290.309 167.229 291.752 167.231C295.189 167.235 298.628 167.24 302.066 167.245ZM12.4642 47.4089C12.4774 48.8164 12.4361 50.2188 12.3721 50.5389C12.3083 50.8568 12.2458 49.973 12.2326 48.5666C12.2256 47.8227 12.213 46.5995 12.1959 44.9539C12.1563 41.1326 12.093 35.0253 12.0219 27.3009L12.0185 27.3128C14.8651 22.7776 18.1278 17.5862 21.6908 11.929L21.7302 11.868L21.8017 11.8683C35.386 11.7639 51.2584 11.6661 67.5504 11.6196C70.5721 11.6109 73.279 11.6024 75.8582 11.5942C86.89 11.5593 95.7462 11.3914 116.846 11.3982C134.695 11.404 152.541 11.4208 170.385 11.4422L170.692 11.4434L170.855 11.6994C173.097 15.2146 175.339 18.7298 177.581 22.245L177.124 21.9949C183.064 22.0027 189.004 22.0108 194.944 22.019L194.507 22.2579C196.759 18.7485 199.01 15.2393 201.262 11.7302L201.411 11.4982L201.683 11.4993C250.252 11.5668 298.799 11.6313 347.325 11.565L347.565 11.566L347.691 11.7656C352 18.4822 356.312 25.1965 360.627 31.908C364.496 37.9261 368.359 43.941 372.217 49.9556L372.299 50.0853L372.299 50.2346C372.323 68.6412 372.327 87.0322 372.324 105.475C372.324 110.27 372.317 115.962 372.307 122.01L372.306 122.166L372.224 122.293C365.692 132.453 358.382 143.801 352.634 152.725L352.501 152.931L352.259 152.93C344.531 152.91 338.332 152.895 335.325 152.891C333.882 152.889 332.723 152.834 332.738 152.769C332.753 152.704 333.935 152.652 335.378 152.654C338.367 152.658 344.549 152.674 352.259 152.693L352.373 152.694L352.435 152.597C358.183 143.673 365.5 132.314 372.025 122.166L372.07 122.096L372.071 122.01C372.08 116.044 372.087 110.431 372.088 105.698C372.091 87.1795 372.087 68.7154 372.062 50.2346L372.062 50.1535L372.018 50.0832C368.226 44.1734 364.431 38.2632 360.629 32.3498C356.248 25.5348 351.867 18.717 347.486 11.8968L347.431 11.8089L347.325 11.8084C298.824 11.9001 250.257 11.9316 201.683 11.9366L201.649 11.9364L201.63 11.9658C199.384 15.4784 197.137 18.9909 194.891 22.5033L194.944 22.4744C189.004 22.4744 183.064 22.4741 177.124 22.4736L177.178 22.5029C174.932 18.9902 172.685 15.4776 170.439 11.9649L170.421 11.935L170.385 11.9349C152.497 11.932 134.611 11.9268 116.729 11.921C95.8344 11.9143 87.3291 11.795 76.3371 11.8299C73.7518 11.838 71.0299 11.8468 67.9803 11.8555C51.4918 11.9026 35.4479 12.0027 21.8017 12.1088L21.8934 12.0587C18.315 17.7415 15.0511 22.936 12.2225 27.4434L12.2642 27.3009C12.3299 34.3656 12.3882 39.9965 12.426 43.6491C12.4436 45.347 12.4568 46.6221 12.4642 47.4089ZM12.3654 114.523C12.3735 121.831 12.3714 130.535 12.3641 139.733C12.3607 144.034 12.3561 148.442 12.3509 152.867L12.2956 152.678C15.1061 157.083 17.9277 161.507 20.679 165.822L20.4005 165.669C22.1156 165.672 23.8161 165.674 25.4962 165.676C35.2571 165.69 44.3312 165.703 51.596 165.709C62.8516 165.717 69.9375 165.774 76.9643 165.83C77.0397 165.83 77.1151 165.831 77.1905 165.831C84.2126 165.888 91.2405 165.943 102.672 165.951C114.197 165.96 130.146 165.922 146.232 165.883C146.245 165.883 146.257 165.883 146.27 165.883C162.27 165.844 178.501 165.686 190.23 165.695C231.101 165.727 256.303 165.889 269.046 166.016C286.444 166.19 305.665 166.076 324.093 166.152L324.175 166.152L324.221 166.082C327.03 161.729 329.818 157.437 332.563 153.261C333.969 151.179 331.838 154.844 329.299 158.717C329.208 158.857 329.117 158.997 329.026 159.137C328.156 160.471 327.396 161.639 326.331 163.287C325.629 164.379 325.009 165.344 324.444 166.225L324.319 166.418L324.093 166.417C322.847 166.416 321.744 166.416 320.695 166.416C315.628 166.415 280.457 166.372 268.012 166.247C255.919 166.126 231.246 166.25 190.113 166.218C178.601 166.209 162.696 166.08 146.609 166.119C146.565 166.119 146.521 166.119 146.477 166.119C130.508 166.158 114.405 166.197 102.687 166.188C90.8424 166.179 83.4941 166.121 76.3797 166.064C76.3106 166.064 76.2415 166.063 76.1723 166.062C69.2107 166.007 62.4511 165.953 51.6111 165.945C44.1864 165.939 35.0065 165.926 25.1832 165.913C23.6041 165.91 22.0083 165.908 20.4005 165.906L20.4797 165.949C17.7247 161.629 14.9037 157.205 12.0964 152.805L12.1144 152.867C12.1197 148.439 12.1243 144.031 12.1278 139.733C12.1351 130.622 12.1373 122.006 12.1292 114.753C12.1277 113.312 12.1793 112.09 12.2446 112.027C12.3098 111.964 12.3638 113.082 12.3654 114.523ZM13.8377 114.855C13.8856 123.142 13.9223 131.437 13.9486 139.733C13.9625 144.111 13.9734 148.489 13.9816 152.867L13.6693 151.799C16.4784 156.173 19.2838 160.548 22.0846 164.923L20.4005 164.001C47.8341 163.99 75.1961 164.083 102.234 164.251C113.886 164.259 130.145 164.278 146.383 164.296C146.566 164.297 146.75 164.297 146.933 164.297C162.995 164.316 178.986 164.334 190.467 164.343C231.339 164.374 256.635 164.417 269.378 164.544C281.259 164.663 284.558 164.664 289.447 164.664C289.581 164.665 289.714 164.665 289.847 164.665C289.856 164.665 289.865 164.664 289.874 164.664C290.041 164.661 290.182 164.659 290.254 164.659C290.402 164.657 290.522 164.656 290.567 164.656C290.672 164.656 290.759 164.656 290.79 164.656C290.917 164.656 291.062 164.656 291.156 164.656C292.026 164.657 294.753 164.664 296.914 164.674C299.128 164.684 300.707 164.697 302.371 164.711C302.539 164.712 302.708 164.714 302.876 164.715C304.376 164.728 306.009 164.742 308.359 164.757C309.792 164.766 310.81 164.826 310.633 164.891C310.456 164.955 309.154 165 307.722 164.991C305.249 164.975 303.512 164.96 302.005 164.947C301.838 164.946 301.671 164.944 301.504 164.943C299.911 164.929 298.515 164.918 296.552 164.909C293.71 164.902 291.597 164.902 289.666 164.901C284.604 164.9 280.792 164.9 268.348 164.775C256.255 164.654 231.618 164.611 190.482 164.579C178.98 164.57 162.97 164.552 146.922 164.533C146.734 164.533 146.545 164.533 146.356 164.533C130.11 164.514 113.874 164.496 102.25 164.487C74.7778 164.466 47.6506 164.501 20.4005 164.494L21.6694 165.188C18.8733 160.815 16.0762 156.436 13.2769 152.05L13.5157 152.867C13.5201 148.495 13.526 144.118 13.5339 139.733C13.5486 131.548 13.5703 123.338 13.6015 115.089C13.5922 106.71 13.5885 99.0524 13.5852 91.957C13.5753 71.0762 13.5676 55.0521 13.4241 39.7761C13.4042 37.6591 13.3862 33.3726 13.3673 27.3009L13.1513 28.0385C15.048 25.0571 17.2706 21.5665 19.7778 17.6301C20.7746 16.0649 21.8198 14.4241 22.9112 12.7108L21.8017 13.3176C23.8401 13.3125 25.965 13.3071 28.1725 13.3015C38.9772 13.2741 51.7783 13.2416 66.2004 13.2004C69.222 13.1918 71.9289 13.1833 74.5081 13.1751C85.5403 13.1401 94.2482 13.1124 115.349 13.1192C130.287 13.124 151.03 13.1455 170.385 13.1714L169.398 12.6312C171.69 16.225 173.945 19.7621 176.123 23.1778L176.478 23.7288L177.124 23.7262C183.525 23.7357 189.566 23.7454 194.944 23.7548L195.615 23.7521L195.969 23.1933C197.388 20.9846 198.721 18.909 199.949 16.9961C200.942 15.4511 201.866 14.0123 202.73 12.6692L201.683 13.2418C210.218 13.2604 215.503 13.2775 219.423 13.2922C220.719 13.297 221.859 13.3017 222.904 13.3059C225.636 13.3167 227.757 13.325 230.537 13.3306C250.556 13.3708 264.572 13.3431 287.533 13.2855C288.972 13.2819 290.227 13.3319 290.335 13.397C290.443 13.4622 289.364 13.518 287.926 13.5217C264.93 13.5794 250.701 13.6075 230.409 13.5668C227.506 13.561 225.235 13.5519 222.455 13.5409C221.425 13.5368 220.324 13.5324 219.095 13.5278C215.263 13.5135 210.076 13.4966 201.683 13.4783L202.929 12.7966C202.048 14.1672 201.102 15.6395 200.083 17.225C198.874 19.1083 197.563 21.1496 196.169 23.3206L195.745 23.988L194.944 23.9913C189.57 23.9818 183.528 23.9721 177.124 23.9626L176.35 23.9657L175.924 23.3052C173.746 19.89 171.491 16.3527 169.199 12.7586L170.385 13.4078C151.048 13.3819 130.32 13.3605 115.413 13.3557C94.5186 13.3489 85.9793 13.3759 74.9871 13.4107C72.4026 13.4189 69.6824 13.4276 66.634 13.4363C52.192 13.4776 39.3564 13.5102 28.5459 13.5377C26.2017 13.5436 23.952 13.5493 21.8017 13.5548L23.111 12.8387C22.0969 14.4305 21.1241 15.9578 20.1943 17.4177C17.5376 21.589 15.2495 25.1826 13.3513 28.1665L13.6047 27.3009C13.6227 33.0192 13.639 36.8456 13.6556 38.6184C13.8042 54.43 13.8121 71.1507 13.8219 92.2247C13.8252 99.2425 13.8287 106.745 13.8377 114.855ZM358.57 32.0643C357.792 30.8534 357.161 29.7742 357.161 29.653C357.161 29.5323 357.792 30.4149 358.57 31.6257C362.682 38.0217 365.64 42.6187 367.952 46.2124C369.066 47.9438 370.03 49.4424 370.902 50.7971L370.737 50.2346C370.748 54.8113 370.754 58.005 370.752 62.2395C370.748 77.0179 370.745 91.2873 370.743 104.125C370.742 110.473 370.742 116.472 370.74 122.01L370.905 121.448C363.848 132.459 358.178 141.304 354.683 146.744C353.903 147.958 353.232 148.904 353.185 148.856C353.138 148.808 353.733 147.785 354.512 146.572C357.995 141.151 363.652 132.328 370.706 121.321L370.504 122.01C370.505 116.541 370.506 110.618 370.507 104.348C370.509 91.4948 370.511 77.1785 370.516 62.3073C370.517 58.0521 370.512 54.9383 370.5 50.2346L370.702 50.9248C369.926 49.7189 369.071 48.3889 368.093 46.8697C365.783 43.2794 362.792 38.631 358.57 32.0643Z" fill="#FF1B1B"/>
<g filter="url(#filter0_d_89_101)">
<path d="M332.738 152.484H352.259L371.781 122.01V50.2346L347.325 12L201.683 12L194.944 22.5371H177.124L170.385 12L21.8017 12L12 27.3009L12 139.733L12 152.867L20.4005 166H324.093L332.738 152.484Z" fill="#470000" fill-opacity="0.2" shape-rendering="crispEdges"/>
</g>
<defs>
<filter id="filter0_d_89_101" x="0" y="0" width="383.781" height="178" filterUnits="userSpaceOnUse" color-interpolation-filters="sRGB">
<feFlood flood-opacity="0" result="BackgroundImageFix"/>
<feColorMatrix in="SourceAlpha" type="matrix" values="0 0 0 0 0 0 0 0 0 0 0 0 0 0 0 0 0 0 127 0" result="hardAlpha"/>
<feOffset/>
<feGaussianBlur stdDeviation="6"/>
<feComposite in2="hardAlpha" operator="out"/>
<feColorMatrix type="matrix" values="0 0 0 0 1 0 0 0 0 0.105882 0 0 0 0 0.105882 0 0 0 0.5 0"/>
<feBlend mode="normal" in2="BackgroundImageFix" result="effect1_dropShadow_89_101"/>
<feBlend mode="normal" in="SourceGraphic" in2="effect1_dropShadow_89_101" result="shape"/>
</filter>
</defs>
</svg>
