<svg width="518" height="173" viewBox="0 0 518 173" fill="none" xmlns="http://www.w3.org/2000/svg">
<path d="M42.4857 162.41C47.2942 162.415 52.6558 162.402 58.0239 162.391C63.7635 162.38 69.5105 162.373 74.597 162.394C74.735 162.395 74.8731 162.395 75.0111 162.396C79.0343 162.413 83.1337 162.437 88.0935 162.467C88.7252 162.471 89.3727 162.475 90.0339 162.479C95.9134 162.514 103.136 162.556 112.977 162.602C146.024 162.759 172.08 162.655 180.185 162.622C196.44 162.557 213.78 162.556 237.441 162.554C239.604 162.554 241.821 162.554 244.095 162.554C245.937 162.554 247.462 162.606 247.504 162.671C247.545 162.737 246.087 162.79 244.244 162.79C242.018 162.79 239.848 162.79 237.734 162.791C237.725 162.791 237.715 162.791 237.705 162.791C213.896 162.792 196.933 162.794 181.062 162.857C172.78 162.89 146.084 162.997 112.221 162.836C102.275 162.789 94.9716 162.747 89.0565 162.712C88.4089 162.708 87.7777 162.704 87.1642 162.701C87.1497 162.701 87.1353 162.7 87.1208 162.7C82.1286 162.671 78.2018 162.647 74.3514 162.631C74.2696 162.63 74.1877 162.63 74.1059 162.63C69.091 162.609 63.5359 162.615 58.0239 162.626C52.5945 162.637 47.2069 162.651 42.4183 162.646C40.5761 162.644 39.0964 162.589 39.1152 162.524C39.1351 162.459 40.6445 162.408 42.4857 162.41ZM433.589 21.4375C423.982 21.5241 411.202 21.5145 399.918 21.476C388.555 21.4372 378.27 21.3674 373.43 21.3245C368.699 21.2826 363.442 21.2691 357.17 21.2607C355.732 21.2588 354.24 21.2572 352.697 21.2555C347.6 21.2499 341.929 21.2436 335.705 21.2249C312.839 21.1564 297.931 21.1535 287.285 21.1597C285.095 21.161 283.057 21.1627 281.151 21.1643C281.147 21.1643 281.144 21.1643 281.141 21.1643C274.716 21.1698 269.747 21.174 265.241 21.1557L265.968 21.4714C265.6 21.0736 265.236 20.6804 264.876 20.2906C261.918 17.0852 259.23 14.1709 256.557 11.2674L256.242 10.9275L255.772 10.9261C251.765 10.8989 247.776 10.8674 243.411 10.8257C231.463 10.7113 214.444 10.7249 203.37 10.8035C202.762 10.8078 202.14 10.8124 201.511 10.8169C193.483 10.8743 183.597 10.9449 168.774 10.9975C156.458 11.0412 145.725 11.0378 136.224 11.0254C133.502 11.0219 130.904 11.0175 128.41 11.0135C122.114 11.0033 116.48 10.9942 111.172 10.9995C78.2567 11.0325 59.2746 10.9898 47.3441 10.9255C38.1687 10.8761 33.0432 10.8125 29.3457 10.7665C28.2282 10.7526 27.2412 10.7402 26.3122 10.7304C25.9444 10.7266 25.5779 10.7228 25.2126 10.7191L24.6599 10.7173L24.276 11.1262C19.8247 15.8018 15.6373 20.2356 10.9624 25.1934L10.5827 25.5978L10.5809 26.1615C10.573 27.6488 10.5652 29.1701 10.5571 30.7367C10.5467 32.7676 10.5358 34.8804 10.5239 37.0877C10.4843 44.4708 10.4912 49.9726 10.5079 54.2869C10.5152 56.174 10.5242 57.8345 10.5329 59.4005C10.5331 59.4293 10.5333 59.4582 10.5335 59.4871C10.5347 59.7055 10.5358 59.9221 10.537 60.1372C10.5379 60.2994 10.5391 60.4613 10.5399 60.6235C10.5411 60.6873 10.5419 60.7445 10.5426 60.7872C10.5431 60.821 10.5435 60.8473 10.5437 60.8642C10.5438 60.8674 10.5439 60.8706 10.544 60.8739C10.5486 61.1811 10.5503 61.4456 10.5507 61.4998C10.5514 61.5945 10.5517 61.6784 10.5519 61.7213C10.553 61.9479 10.5536 62.2399 10.5539 62.4339C10.5548 62.9328 10.5558 63.7996 10.5568 65.14C10.5602 66.3068 10.566 67.4266 10.5734 68.8283C10.5739 68.9165 10.5744 69.0048 10.5749 69.0931C10.5821 70.46 10.5904 72.0597 10.5985 74.067C10.6059 75.8933 10.5593 77.5731 10.4945 77.8179C10.4297 78.0619 10.3711 76.7791 10.3637 74.9529C10.3561 73.0618 10.3482 71.5636 10.341 70.1957C10.3405 70.109 10.3401 70.0224 10.3396 69.9357C10.332 68.5096 10.325 67.1588 10.3209 65.7033C10.3196 65.216 10.3185 64.7137 10.3177 64.2444C10.3148 63.3996 10.3098 62.4383 10.3035 61.288C10.3022 61.0571 10.301 60.8189 10.2997 60.5753C10.291 59.0123 10.2808 57.1921 10.2729 55.1392C10.2542 50.3342 10.2472 44.2462 10.2903 36.2114C10.3016 34.1044 10.3121 32.062 10.3224 30.0674C10.3292 28.7461 10.3358 27.4458 10.3426 26.1615L10.3447 25.5032L10.7881 25.0309C15.3589 20.183 19.6353 15.6528 24.0976 10.9597L24.5546 10.473L25.2126 10.4751C26.1669 10.4841 27.1266 10.4937 28.0938 10.5038C29.3005 10.5165 30.4578 10.531 31.6954 10.5464C35.3633 10.5918 39.7428 10.6463 48.2253 10.692C59.5905 10.7532 78.1209 10.7962 110.849 10.7633C116.421 10.7577 122.431 10.7676 128.833 10.7779C131.277 10.7818 133.783 10.7856 136.34 10.789C145.692 10.8011 156.088 10.8044 167.979 10.7622C182.471 10.7107 192.088 10.6422 200.081 10.5851C200.357 10.583 200.633 10.581 200.909 10.579C201.252 10.5765 201.593 10.5741 201.93 10.5717C213.731 10.4879 231.839 10.4712 245.039 10.5976C248.806 10.6337 252.28 10.6618 255.772 10.6862L256.347 10.688L256.733 11.1037C259.567 14.1845 262.422 17.2794 265.655 20.7826C265.816 20.9575 265.978 21.133 266.141 21.3093L265.241 20.9181C269.34 20.9375 273.808 20.9337 280.472 20.9282C282.452 20.9265 284.629 20.9249 287.044 20.9235C297.881 20.9172 313.016 20.92 336.138 20.9893C342.166 21.0074 347.59 21.0134 352.658 21.019C354.232 21.0208 355.777 21.0225 357.29 21.0246C363.593 21.0329 369.459 21.0466 374.928 21.095C379.423 21.1348 389.376 21.2029 400.428 21.2407C411.559 21.2787 423.377 21.2844 431.822 21.2083C432.7 21.2004 433.586 21.1926 434.47 21.1847C442.088 21.1169 449.855 21.0478 456.109 20.9328C458.921 20.8603 461.962 20.7978 465.191 20.7442L464.164 21.1907C467.06 17.9818 470.197 14.5369 473.508 10.9248L473.98 10.4218L474.66 10.424C484.191 10.3398 494.631 10.3041 505.269 10.2948L506.98 10.3002L506.975 12C506.992 32.544 506.912 53.8259 506.89 70.714C506.889 71.1538 506.888 71.5935 506.888 72.0333C506.854 97.6898 506.846 118.693 506.845 132.717L506.843 133.343L506.421 133.792C501.574 138.987 497.95 142.873 495.754 145.228C495.449 145.554 495.172 145.852 494.923 146.119C494.701 146.357 494.5 146.573 494.322 146.763C491.662 149.616 489.313 152.145 486.853 154.795C486.718 154.94 486.584 155.085 486.45 155.229C484.474 157.357 482.424 159.565 480.134 162.023L479.651 162.538L478.954 162.536C477.893 162.536 476.797 162.537 475.658 162.537C467.3 162.535 459.674 162.537 452.64 162.54C444.84 162.544 437.767 162.55 431.23 162.556C428.928 162.558 426.69 162.56 424.508 162.562C424.502 162.562 424.496 162.562 424.489 162.562C414.914 162.571 406.419 162.579 398.358 162.579C383.658 162.58 373.729 162.595 366.006 162.611C363.584 162.616 361.352 162.621 359.246 162.626C354.692 162.636 350.714 162.646 346.611 162.649C338.895 162.655 331.794 162.671 324.799 162.687C324.176 162.689 323.553 162.69 322.931 162.691C315.348 162.708 307.839 162.724 299.901 162.724C298.058 162.725 296.531 162.672 296.492 162.606C296.455 162.541 297.92 162.488 299.761 162.488C307.472 162.488 314.797 162.472 322.377 162.455C323.003 162.454 323.631 162.452 324.26 162.451C331.237 162.435 338.469 162.419 346.327 162.413C350.283 162.41 354.04 162.401 358.504 162.39C360.635 162.385 362.929 162.38 365.481 162.375C373.322 162.358 383.382 162.343 398.223 162.343C406.187 162.343 414.573 162.335 424.143 162.326C426.338 162.324 428.597 162.322 430.927 162.319C437.542 162.313 444.715 162.307 452.64 162.304C459.646 162.3 467.24 162.299 475.557 162.3C476.732 162.3 477.86 162.3 478.954 162.299L479.548 162.301L479.961 161.862C482.058 159.61 483.967 157.555 485.876 155.498C486.022 155.342 486.167 155.185 486.312 155.029C488.751 152.402 491.23 149.731 494.041 146.718C494.416 146.315 494.896 145.801 495.473 145.183C497.684 142.812 501.346 138.885 506.249 133.631L506.607 133.249L506.609 132.717C506.61 118.645 506.618 97.6039 506.652 71.9226C506.652 71.8022 506.652 71.6818 506.652 71.5614C506.686 45.566 506.705 30.9003 506.647 19.8579C506.632 17.0165 506.62 14.4092 506.612 12L506.616 10.662L505.269 10.6578C500.289 10.6758 496.156 10.6823 492.553 10.6861C491.534 10.6872 490.569 10.6882 489.649 10.6891C485.676 10.6926 482.536 10.6954 479.398 10.7118C477.745 10.7204 476.173 10.73 474.66 10.7407L474.117 10.739L473.74 11.1409C470.341 14.8357 467.401 18.058 464.382 21.3945L465.191 21.0429C463.264 21.0724 461.312 21.1056 459.272 21.1431C452.289 21.2715 443.735 21.3475 436.242 21.4139C436.231 21.414 436.219 21.4141 436.208 21.4142C435.319 21.4221 434.444 21.4298 433.589 21.4375ZM10.7555 100.511C10.7535 102.352 10.6992 103.831 10.634 103.814C10.5688 103.795 10.5173 102.286 10.5193 100.444C10.5239 96.0539 10.5286 91.6642 10.5332 87.2746C10.5352 85.4333 10.5895 83.9546 10.6547 83.9715C10.7199 83.9903 10.7713 85.4998 10.7694 87.342C10.7648 91.7316 10.7601 96.1213 10.7555 100.511ZM441.274 22.6133C439.476 22.6265 437.686 22.5852 437.277 22.5212C436.871 22.4574 438 22.395 439.795 22.3817C440.745 22.3747 442.307 22.3621 444.408 22.345C448.994 22.3078 456.158 22.2496 465.191 22.1838L465.206 22.1837L465.216 22.1727C468.086 19.0518 471.235 15.6287 474.615 11.9578L474.634 11.9381L474.66 11.9382C483.865 11.8775 494.221 11.8156 505.269 11.7613L505.509 11.7621L505.508 12C505.569 24.3135 505.62 37.4862 505.65 50.881C505.658 54.739 505.667 58.1952 505.675 61.4884C505.71 75.574 505.878 86.8817 505.871 113.823C505.87 120.121 505.867 126.419 505.864 132.717L505.863 132.954L505.704 133.123C496.927 142.521 488.149 151.917 479.37 161.31L479.199 161.491L478.954 161.49C470.182 161.483 461.411 161.474 452.64 161.465C367.325 161.378 282.061 161.246 196.85 161.401C164.185 161.461 131.622 161.47 98.9321 161.466C87.7239 161.464 72.6751 161.443 58.0239 161.418C45.361 161.396 32.9952 161.37 23.6629 161.352L23.4796 161.352L23.3542 161.222C19.1027 156.821 15.7569 153.358 13.8518 151.39C12.8741 150.379 12.0659 149.5 11.7641 149.125L12.3287 148.897C12.315 149.045 12.3001 149.125 12.2846 149.121C12.27 149.116 12.2561 149.037 12.2434 148.897L11.8253 149.066C12.1967 149.385 13.074 150.246 14.0682 151.274C15.9601 153.229 19.29 156.675 23.5239 161.057L23.5803 161.116L23.6629 161.116C32.9878 161.134 45.361 161.159 58.0239 161.181C72.5788 161.207 87.5165 161.228 98.648 161.229C131.275 161.233 163.771 161.225 196.373 161.165C281.678 161.01 367.167 160.979 452.64 160.986C461.411 160.987 470.183 160.988 478.954 160.989L478.983 160.989L479.003 160.968C487.777 151.567 496.551 142.167 505.324 132.768L505.344 132.747L505.344 132.717C505.345 126.369 505.347 120.021 505.348 113.673C505.355 86.9944 505.474 76.1347 505.439 62.0999C505.431 58.7989 505.423 55.3236 505.414 51.4299C505.383 37.8252 505.331 24.4576 505.269 12C494.189 12.0557 483.828 12.1184 474.66 12.1796L474.792 12.1225C471.399 15.8077 468.249 19.2321 465.394 22.3381L465.312 22.4258L465.191 22.4262C456.992 22.4866 450.431 22.5398 446.074 22.5751C443.906 22.5927 442.278 22.6059 441.274 22.6133ZM355.581 22.5145C335.01 22.5324 305.767 22.5006 280.212 22.4726C275.036 22.4669 270.012 22.4614 265.241 22.4565L265.109 22.4569L265.017 22.3588C261.653 18.7458 258.473 15.332 255.557 12.2009L255.772 12.2945C254.229 12.2933 252.736 12.2923 251.298 12.2915C236.927 12.283 227.88 12.2265 218.908 12.1703C218.811 12.1697 218.715 12.1691 218.619 12.1686C209.653 12.1125 200.68 12.0573 186.084 12.0486C171.368 12.0398 151.005 12.0782 130.466 12.117C130.45 12.117 130.434 12.117 130.417 12.117C109.987 12.1556 89.2643 12.3143 74.2889 12.3052C55.3641 12.2936 39.0704 12.265 25.2126 12.227L25.3785 12.1548C20.5319 17.3211 16.1177 22.0203 12.1188 26.2724L12.1625 26.1615C12.1059 40.3934 12.0412 50.997 11.9836 58.3508C11.7607 86.8109 12.0107 119.09 11.7288 148.165C11.6664 151.372 11.4866 145.963 11.5383 140.052C11.5398 139.838 11.5412 139.625 11.5427 139.411C11.5562 137.378 11.5672 135.599 11.5762 133.094C11.5835 129.464 11.584 126.763 11.5843 124.297C11.5853 117.828 11.6282 72.921 11.7527 57.0315C11.8068 50.1137 11.812 39.9723 11.8041 26.1615L11.8044 26.0837L11.8568 26.0279C15.8098 21.7861 20.2024 17.0698 25.0589 11.8567L25.1219 11.7896L25.2126 11.7899C38.9971 11.7797 55.326 11.7708 74.4382 11.7824C89.1363 11.7913 109.444 11.9196 129.984 11.8808C130.04 11.8807 130.096 11.8806 130.153 11.8805C150.542 11.842 171.103 11.8032 186.065 11.8121C201.188 11.8211 210.57 11.879 219.654 11.9359C219.742 11.9364 219.831 11.937 219.919 11.9376C228.808 11.9932 237.438 12.0471 251.279 12.0553C252.726 12.0561 254.225 12.0571 255.772 12.0583L255.729 12.0398C258.659 15.185 261.837 18.5974 265.189 22.1975L265.211 22.2201L265.241 22.22C270.146 22.225 275.305 22.2306 280.611 22.2364C306.057 22.2643 334.892 22.2961 355.287 22.2783C357.128 22.2768 358.687 22.3284 358.768 22.3937C358.848 22.4589 357.421 22.5129 355.581 22.5145ZM355.157 23.9868C325.204 24.1225 295.165 24.1681 265.241 24.1421L264.381 24.1449L263.784 23.5087C260.629 20.1208 257.476 16.7336 254.327 13.3479L255.772 13.9759C232.61 13.9389 209.535 13.8605 186.642 13.7494C171.766 13.7406 151.005 13.7222 130.273 13.7037C130.039 13.7034 129.804 13.7031 129.57 13.7028C109.062 13.6845 88.6446 13.6663 73.9856 13.6574C55.2148 13.646 39.017 13.6331 25.2126 13.6155L26.3938 13.102C21.5593 18.2704 17.1531 22.978 13.1582 27.2421L13.584 26.1615C13.5541 40.6077 13.5136 51.3568 13.4556 58.7745C13.3367 73.9452 13.3364 78.1567 13.3356 84.4C13.3355 84.5701 13.3354 84.7402 13.3353 84.9104C13.3355 84.9216 13.3357 84.9329 13.3359 84.9441C13.3389 85.1581 13.3406 85.3379 13.3414 85.4304C13.3429 85.6189 13.3435 85.7726 13.3437 85.83C13.3442 85.963 13.3443 86.0745 13.3443 86.1141C13.3445 86.2763 13.3444 86.4617 13.3443 86.5812C13.3431 87.6929 13.336 91.1749 13.3262 93.9337C13.3163 96.7609 13.3034 98.7762 13.2893 100.901C13.2878 101.116 13.2863 101.331 13.2849 101.546C13.2721 103.462 13.2581 105.546 13.243 108.547C13.2337 110.376 13.1739 111.675 13.1093 111.451C13.0447 111.225 12.9999 109.561 13.0091 107.734C13.025 104.576 13.0399 102.358 13.0528 100.434C13.0542 100.221 13.0557 100.007 13.0571 99.7936C13.0707 97.7599 13.0817 95.9779 13.0906 93.4715C13.0979 89.8422 13.0984 87.1443 13.0988 84.6793C13.0997 78.2157 13.1004 73.3485 13.2249 57.46C13.2797 50.4679 13.3185 40.1913 13.3476 26.1615L12.9854 27.0809C16.9528 22.8461 21.357 18.1408 26.221 12.9408L25.2126 13.3792C38.8927 13.3967 55.0655 13.4097 73.9663 13.4212C88.6526 13.4301 109.094 13.4483 129.584 13.4666C129.825 13.4668 130.066 13.467 130.307 13.4672C151.05 13.4857 171.78 13.5044 186.623 13.5132C209.807 13.527 232.8 13.5163 255.772 13.5096L254.668 13.0298C257.826 16.4122 260.983 19.7941 264.14 23.1766L264.591 23.6574L265.241 23.6553C294.965 23.6502 324.713 23.6613 354.859 23.7506C365.557 23.7413 375.334 23.7376 384.394 23.7343C411.055 23.7244 431.515 23.7167 451.019 23.5732C453.513 23.5549 458.366 23.5381 465.191 23.5208L465.792 23.5189L466.194 23.0848C468.902 20.167 472.069 16.7583 475.64 12.9143L474.66 13.3402C475.841 13.3377 477.051 13.3352 478.291 13.3327C483.037 13.3229 488.244 13.3127 493.872 13.3015C497.498 13.2943 501.3 13.2867 505.269 13.2788L503.991 12C504.013 23.133 504.039 35.5827 504.069 49.1572C504.078 53.0152 504.086 56.4715 504.094 59.7647C504.129 73.8507 504.157 84.9692 504.15 111.911C504.149 118.159 504.145 125.202 504.14 132.717L504.444 131.947C496.195 140.778 487.11 150.499 478.106 160.131L478.954 159.762C469.986 159.753 461.074 159.744 452.64 159.734C440.266 159.72 428.921 159.705 419.939 159.691C405.062 159.669 396.663 159.648 390.722 159.63C389.067 159.625 387.612 159.621 386.277 159.617C382.79 159.606 380.081 159.597 376.532 159.592C350.971 159.552 333.076 159.579 303.758 159.637C301.921 159.641 300.319 159.591 300.18 159.525C300.042 159.46 301.42 159.404 303.257 159.401C332.618 159.343 350.786 159.315 376.695 159.356C380.401 159.362 383.301 159.371 386.85 159.382C388.166 159.386 389.571 159.39 391.14 159.395C396.983 159.412 405.294 159.433 420.093 159.455C429.035 159.469 440.325 159.483 452.64 159.498C461.072 159.507 469.985 159.517 478.954 159.526L477.933 159.97C486.939 150.336 496.026 140.613 504.271 131.786L503.904 132.717C503.909 125.229 503.912 118.214 503.914 111.993C503.92 85.3143 503.893 74.4113 503.859 60.3762C503.85 57.0763 503.842 53.6032 503.833 49.7109C503.802 35.9185 503.776 23.2737 503.753 12L505.269 13.5159C501.471 13.5235 497.828 13.5308 494.349 13.5377C488.729 13.5489 483.534 13.5591 478.806 13.5688C477.379 13.5718 475.997 13.5746 474.66 13.5775L475.814 13.0761C472.16 17.0092 469.002 20.4083 466.368 23.2469L465.896 23.756L465.191 23.7583C458.859 23.7745 454.574 23.7895 452.497 23.8047C432.309 23.9533 410.96 23.9612 384.052 23.971C375.092 23.9743 365.513 23.9778 355.157 23.9868ZM198.097 159.584C199.935 159.581 201.53 159.631 201.66 159.696C201.79 159.762 200.407 159.817 198.569 159.821C188.86 159.838 181.881 159.853 176.425 159.864C166.326 159.885 161.446 159.896 154.136 159.894C135.267 159.889 117.047 159.887 100.656 159.885C84.2128 159.883 69.6054 159.881 58.0239 159.877C50.4147 159.875 44.1117 159.871 39.4523 159.867C37.6096 159.865 36.1303 159.81 36.1492 159.745C36.1697 159.68 37.6784 159.628 39.5197 159.63C44.1588 159.635 50.4372 159.639 58.0239 159.641C69.5196 159.645 84.0192 159.647 100.372 159.649C116.783 159.651 135.062 159.653 154.049 159.657C161.139 159.659 165.747 159.65 175.621 159.629C181.072 159.617 188.129 159.602 198.097 159.584Z" fill="#FF1B1B"/>
<g filter="url(#filter0_d_384_1954)">
<path d="M12 149.121L12 148.897L23.6629 160.923H58.0239H452.64H478.954L505.269 132.717V12L474.66 12L465.191 22.1491H265.241L255.772 12L25.2126 12L12 26.1615L12 149.121Z" fill="#261818" fill-opacity="0.8" shape-rendering="crispEdges"/>
</g>
<defs>
<filter id="filter0_d_384_1954" x="0" y="0" width="517.269" height="172.923" filterUnits="userSpaceOnUse" color-interpolation-filters="sRGB">
<feFlood flood-opacity="0" result="BackgroundImageFix"/>
<feColorMatrix in="SourceAlpha" type="matrix" values="0 0 0 0 0 0 0 0 0 0 0 0 0 0 0 0 0 0 127 0" result="hardAlpha"/>
<feOffset/>
<feGaussianBlur stdDeviation="6"/>
<feComposite in2="hardAlpha" operator="out"/>
<feColorMatrix type="matrix" values="0 0 0 0 1 0 0 0 0 0.105882 0 0 0 0 0.105882 0 0 0 0.5 0"/>
<feBlend mode="normal" in2="BackgroundImageFix" result="effect1_dropShadow_384_1954"/>
<feBlend mode="normal" in="SourceGraphic" in2="effect1_dropShadow_384_1954" result="shape"/>
</filter>
</defs>
</svg>
