<svg width="1440" height="454" viewBox="0 0 1440 454" fill="none" xmlns="http://www.w3.org/2000/svg">
<path d="M967.136 48.9585L1024.35 63.6708L1195.82 54.5064L1359.29 29.342L1494.31 125.79L1499.57 445.79H1376.84H1147.36H688.418H229.473H0L2.52747 125.79V24.4378L38.62 80.0179L381.215 48.6113L359.266 60.7198L453.316 54.8283L525.417 61.0452L597.518 59.2622L669.618 73.4791L743.998 67.349L821.187 72.2839L818.377 61.2188L892.756 55.0887L967.136 48.9585Z" fill="url(#paint0_linear_154_10281)"/>
<path d="M721.039 77.335C729.812 77.517 700.724 79.3211 720.118 79.0742C716.104 79.4963 712.066 79.9233 708.052 80.3454C706.992 79.9323 705.906 79.5225 704.845 79.1094C710.233 78.5179 715.624 77.9263 721.039 77.3326C721.039 77.3334 721.039 77.3342 721.039 77.335ZM727.899 70.5012C723.067 72.3271 707.375 74.001 724.468 73.9096C725.778 73.3117 727.121 72.7112 728.431 72.1133C733.731 72.0162 739.06 71.9166 744.366 71.8175L743.712 71.8235C744.336 71.9035 744.96 71.9834 745.583 72.0633C747.719 72.0132 749.851 71.9629 751.987 71.9149C754.637 72.9346 757.263 73.955 759.913 74.9768C757.52 74.6993 755.094 74.4177 752.701 74.1402C749.606 74.1664 746.624 74.147 743.567 74.0851L744.552 74.076C738.24 74.8745 731.58 75.5379 722.894 76.3407C724.041 76.4477 725.19 76.5526 726.336 76.6596C719.777 76.8576 713.22 77.0544 706.688 77.2501C712.309 76.4505 718.594 75.5584 723.804 74.8156C715.317 74.1801 700.602 76.1358 692.934 77.0463C682.492 78.2869 684.807 77.4614 677.057 78.3658C675.821 78.5092 675.721 79.015 673.269 79.2255C672.283 79.3099 671.223 79.3985 670.114 79.4889L668.452 79.3954C655.845 76.8976 636.878 72.8444 649.819 74.3108C656.361 75.6503 662.609 76.8148 668.742 77.9225L669.99 77.9927C682.772 76.7333 695.014 75.3766 708.487 74.4955C703.091 73.5979 713.581 72.2765 727.899 70.5012ZM360.626 53.0264C359.502 53.8096 358.085 54.7042 356.476 55.663L359.627 66.4837C366.238 65.8479 375.376 65.5129 382.051 65.4473C382.061 65.4467 382.071 65.4461 382.08 65.4455C383.964 65.427 388.268 66.0226 382.138 66.3713C372.146 66.9369 367.231 65.8828 362.045 67.1323C361.263 67.1241 360.469 67.1189 359.666 67.115L356.17 55.1092C357.636 54.425 359.131 53.7216 360.626 53.0264ZM380.192 54.8908C374.847 55.0897 376.18 54.1511 381.675 53.6234L378.784 44.2043C378.063 44.6059 377.254 45.0364 376.361 45.4876C376.362 45.4883 376.362 45.489 376.363 45.4897C373.498 46.9378 378.621 43.1869 368.944 49.4636C366.578 50.0388 364.271 50.6471 361.939 51.2271C364.401 49.8573 366.642 48.6017 369.226 47.167C368.098 48.8869 373.109 45.7525 378.207 43.1579L381.784 54.8135C381.25 54.8446 380.717 54.871 380.192 54.8908ZM639.528 72.8713C638.398 73.612 642.366 74.3884 648.994 76.3639C642.624 75.0763 636.254 73.7865 629.912 72.5042C633.128 72.628 636.312 72.7476 639.528 72.8713ZM791.951 75.797C791.96 75.7976 791.97 75.7982 791.98 75.7989C794.114 75.786 796.255 75.773 798.362 75.7604C799.61 76.1783 800.844 76.5938 802.092 77.0117C808.335 77.1476 814.606 77.2853 820.859 77.4207L827.889 77.9056L826.176 71.0168C825.807 69.7847 825.439 68.5533 825.07 67.3231C825.445 67.5169 826.003 68.8851 826.668 70.8919L828.549 78.4595L820.827 77.9268C816.044 77.9629 807.982 77.5201 802.802 77.6894C791.783 76.6738 786.502 75.7368 785.84 74.8192C787.869 75.1438 789.894 75.4706 791.951 75.797ZM517.105 444.527C519.621 444.242 522.105 443.956 524.621 443.67C521.276 443.54 517.958 443.441 514.585 443.289C505.764 444.531 504.935 443.433 493.378 443.509C457.952 443.745 467.351 445.674 435.357 442.849C461.044 442.983 451.172 441.656 466.659 440.633C469.867 441.412 454.521 443.167 464.92 443.531C482.838 442.708 500.068 441.94 519.949 441.408C519.369 441.274 518.791 441.139 518.21 441.004C515.058 441.089 511.931 441.175 508.778 441.26C512.18 440.899 515.505 440.542 518.962 440.178C514.593 440.996 525.728 440.539 524.238 441.478C523.574 441.896 518.653 442.476 515.749 442.876C523.242 443.093 530.928 443.292 538.504 443.503C534.578 443.836 530.656 444.17 526.758 444.503C523.552 444.513 520.37 444.521 517.164 444.531C517.144 444.53 517.125 444.528 517.105 444.527ZM1217.46 56.8513C1226.71 54.4424 1243.77 51.653 1252.93 51.3386C1241.1 53.1768 1229.29 55.0131 1217.46 56.8513ZM785.166 74.0544C786.23 74.2882 787.261 74.5181 788.325 74.7518C783.56 74.7541 778.766 74.7524 774.001 74.7546C773.121 74.2195 772.22 73.6829 771.312 73.148C775.92 73.4488 780.558 73.7537 785.166 74.0544ZM482.665 61.9734C486.134 62.2435 486.44 62.2856 490.751 62.7258C490.746 62.7249 490.741 62.7241 490.736 62.7233C492.445 62.8962 506.739 64.4089 505.112 64.6379C498.002 64.0311 490.42 63.3711 483.146 62.7439C482.947 62.4838 482.919 62.2404 482.665 61.9734ZM566.998 64.8307C567.008 64.8313 567.018 64.8318 567.027 64.8324C569.625 64.8241 572.087 64.877 574.767 64.8315C565.135 65.649 563.585 64.648 554.829 65.1585C546.074 65.6711 540.673 66.3781 533.202 65.1389C535.962 64.8575 538.931 64.4789 541.773 64.1602C554.227 64.4215 557.563 63.8033 567.527 62.9958C567.349 63.6089 567.176 64.2177 566.998 64.8307ZM359.385 441.648C357.007 442.351 354.355 441.661 354.08 441.653C354.084 441.652 354.089 441.651 354.094 441.65C333.029 442.302 356.836 441.261 336.955 441.151C339.913 440.975 342.823 440.789 345.753 440.611C350.287 440.951 354.962 441.335 359.385 441.648ZM6.73547 120.735C6.94043 120.541 7.14575 120.309 7.35071 120.116C7.34216 122.264 7.36121 124.125 7.39404 125.79L7.3938 125.828C7.48328 133.42 7.88977 136.937 7.22302 145.074C7.10315 138.657 6.98438 132.241 6.86609 125.824L6.86621 125.79C6.82178 124.105 6.77747 122.42 6.73303 120.735C6.73389 120.735 6.73474 120.735 6.73547 120.735ZM423.207 59.8275C434.477 58.7868 443.247 58.0626 453.5 57.7639L453.063 57.7588C454.804 57.9678 456.587 58.1955 458.429 58.4454C458.439 58.447 458.449 58.4487 458.458 58.4503C459.186 58.5514 455.615 58.6738 456.559 58.8636C459.18 59.0252 461.888 59.1598 464.538 59.3114C464.866 59.6843 465.178 60.0557 465.507 60.4266C461.321 60.0106 457.133 59.5946 452.941 59.1781L453.589 59.1857C450.328 59.3474 447.064 59.5093 443.796 59.6715C444.913 59.8027 446.056 59.9305 447.173 60.0617C440.832 60.5626 434.515 61.0616 428.174 61.5625C430.346 60.8625 432.513 60.1628 434.658 59.4625C430.843 59.5833 427.022 59.7088 423.207 59.8275ZM2.96216 319.64C3.20227 317.54 3.54651 321.435 3.76477 318.173C3.98059 314.911 3.61096 308.892 4.23096 310.307C4.28101 314.701 4.3418 319.316 4.39539 323.793C5.64722 309.395 4.73096 295.013 6.13806 294.803C5.66455 308.627 5.74402 319.998 6.02734 333.386C4.91626 332.824 4.0575 319.428 2.94373 327.849C2.95056 325.141 2.9519 322.295 2.96436 319.67C2.96362 319.66 2.96289 319.65 2.96216 319.64ZM963.348 39.3137C964.226 39.2505 965.225 39.1711 966.322 39.0793L969.604 39.3582C978.458 41.6235 993.963 45.3005 1002.76 48.1613C1005.18 48.9501 1012.88 53.0708 1012.77 53.325C1012.3 54.155 1002.24 51.698 1012.83 55.0408C1009.21 54.1179 1005.7 53.2498 1002.11 52.3438C1002.6 53.1084 1003.08 53.8706 1003.55 54.6264C1007.94 55.6589 1012.33 56.6922 1016.72 57.7226C1016.88 57.9762 1017.05 58.23 1017.21 58.4836C1001.51 54.4516 1010.58 57.6001 1002.25 56.2199C1009.66 58.5088 1017.12 60.8101 1024.5 63.092C1020.2 61.9393 1015.12 60.5983 1011.33 59.5682C1010.56 60.4536 1019.7 62.5446 1021.2 63.1327C1029.69 66.4491 985.236 54.4464 981.207 54.9871C988.288 56.9831 995.72 59.0653 1002.96 61.1006C1000.83 60.7458 998.663 60.3842 996.527 60.0294C987.18 57.0007 977.114 54.0193 966.618 50.9705L967.306 51.0289C959.232 51.4429 950.923 51.8991 942.475 52.3155C940.688 52.5063 938.898 52.6986 937.139 52.8851C937.701 53.3141 938.236 53.7437 938.798 54.1728C936.101 54.4511 933.371 54.7318 930.675 55.0101C938.51 52.7985 927.484 53.7286 914.093 53.8769C921.13 52.7466 929.895 52.3579 929.208 51.3892C917.687 52.7136 905.192 53.6884 892.72 54.6508C878.948 55.7137 865.205 56.7614 852.835 58.2484C846.983 58.9507 847.11 60.2629 833.299 61.2792C833.755 61.0962 833.814 60.8289 834.102 60.6141C828.451 61.2302 823.327 61.7884 818.466 62.3003L819.429 60.9517C820.483 64.7406 821.48 68.3664 822.447 71.9639L822.88 73.7037L821.104 73.5812C809.961 73.0254 799.14 72.2993 784.961 71.0239C786.365 71.5884 787.745 72.1534 789.15 72.7179C794.436 72.8194 799.732 72.9178 804.991 73.0175C808.528 74.0276 803.204 74.0332 818.935 75.0307C819.694 75.0788 820.381 75.1212 821.004 75.1584L824.938 75.4297L823.979 71.5748C821.482 61.915 822.802 68.4056 821.777 65.2553C821.27 63.7012 820.887 62.1862 820.538 60.6699L818.56 63.4412C821.536 63.2634 824.496 63.2092 827.826 62.7015C831.746 62.1064 827.429 61.8145 837.723 61.1302C833.657 62.3043 829.51 63.5125 825.418 64.6992C823.162 64.7162 820.921 64.7296 818.668 64.7443L821.806 60.348C821.852 60.6111 821.898 60.8744 821.944 61.1379C821.855 60.8849 821.767 60.6324 821.679 60.3802L818.657 64.6139C820.903 64.2285 823.122 63.8473 825.375 63.4608C823.103 63.7509 820.863 64.037 818.633 64.3217L821.395 60.4524C822.495 64.0948 823.587 67.7079 824.701 71.3916L825.907 76.2429L820.956 75.9013C818.178 75.8484 815.361 75.7948 812.466 75.7399C815.552 74.7259 805.967 74.5673 800.769 74.3781C792.672 74.0842 799.65 73.6967 794.342 73.4963C789.034 73.298 783.26 73.8602 773.696 73.0497C778.863 72.8408 771.912 71.9129 773.293 71.5035C774.677 71.0943 784.814 71.6322 775.117 70.4691C756.378 69.6839 776.562 72.8696 763.905 72.3674C748.703 71.7647 745.288 68.4569 749.854 68.0847C753.448 67.7918 765.692 68.6797 769.313 68.3906C748.668 66.1843 747.227 67.6931 743.958 67.9727L744.049 67.9719C743.858 68.017 743.659 68.0586 743.449 68.0965C729.943 70.5325 738.799 66.2718 722.781 68.869C723.03 68.1883 723.227 67.5782 723.479 66.9242C720.706 67.2731 718.873 67.5843 715.519 67.9562C725.536 68.4171 717.419 69.0309 713.255 69.3761C706.696 69.9209 716.88 69.7091 715.156 70.0131C710.506 70.8299 703.08 71.2451 707.673 71.4333C705.612 71.3394 703.379 71.2589 701.263 71.1716C693.626 72.1297 675.84 76.3514 692.936 74.3858C691.422 75.5346 685.836 75.5028 681.496 75.7047C677.157 75.9067 677.291 76.5477 673.478 76.7415C672.082 76.8123 670.898 76.8602 669.899 76.8881L668.957 76.835C660.279 74.6286 666.442 74.9658 669.362 74.7803L669.727 74.8009C670.004 74.7028 670.248 74.6086 670.441 74.5202C670.192 74.5483 669.948 74.5759 669.711 74.6029L669.4 74.5854C650.811 71.5191 669.164 75.5376 641.096 70.4072C638.218 70.5634 651.169 73.8892 640.183 72.1407C638.412 70.5345 630.553 68.0818 614.979 64.593C613.404 64.5717 611.833 64.5535 610.259 64.5321C603.419 62.2303 605.3 61.6168 597.271 60.51L597.549 60.5337C595.793 60.6787 593.575 60.9029 590.702 61.2261C599.291 58.4153 593.383 60.2238 578.926 59.5234C575.99 59.3828 582.748 58.6766 578.65 58.5046C576.792 58.4273 572.299 58.9453 567.761 58.7433C565.546 58.6429 555.181 57.8973 548.032 58.5499C553.316 59.6781 539.737 61.0848 551.43 61.8371C529.859 62.1138 514.781 63.0911 538.903 60.7782C534.402 60.5768 529.897 60.3765 525.395 60.1767L525.491 60.1796C524.519 60.0277 523.548 59.8758 522.576 59.7239C518.748 59.695 514.887 59.661 511.032 59.6277C510.543 58.5474 511.148 58.3084 496.153 57.1981C502.674 57.5153 509.168 57.8261 515.716 58.1436C515.954 57.9545 516.881 57.8166 516.68 57.5958C508.652 57.3023 486.128 55.5317 480.649 55.3356C475.17 55.1395 485.699 56.123 484.105 56.2535C470.831 57.3189 472.008 55.7905 462.586 55.3574C457.056 55.1049 470.193 56.4813 467.236 56.3219C461.454 56.0081 457.339 55.4138 453.319 54.7973C449.671 54.7842 446.1 54.7424 441.512 55.0228C445.002 55.4696 448.466 55.9285 451.875 56.3867C441.687 56.9896 430.333 57.6949 420.88 58.5008C417.168 58.8167 420.007 59.1338 419.403 59.2048C416.402 59.5628 404.165 60.5988 402.868 60.6821C393.103 61.2977 392.782 60.6323 383.29 61.1893C387.011 60.8982 390.511 60.6266 394.15 60.3427C395.736 59.1319 397.356 57.919 398.943 56.7061C389.637 57.2081 380.328 57.712 370.996 58.2158C377.835 58.1585 384.7 58.0979 391.54 58.0406C380.942 59.6024 370.344 61.1664 359.746 62.7302C359.628 62.726 359.509 62.7216 359.391 62.7174L358.299 58.9673C363.322 56.8117 368.327 54.6658 373.351 52.5097C376.871 50.5235 379.181 49.034 380.814 47.8842L381.291 49.4383C375.938 50.5275 376.237 51.3181 370.883 50.3692C366.467 50.9403 362.049 51.5114 357.632 52.0804C358.24 51.7442 358.841 51.408 359.449 51.0718C354.122 51.7326 348.797 52.3922 343.47 53.0551C349.178 53.5253 354.779 54.0571 360.429 54.5035C349.935 55.6814 349.657 54.8642 348.07 54.7993C343.86 54.6282 335.674 56.13 332.323 55.9218C331.189 55.8487 341.442 54.354 337.833 54.045C337.128 53.9856 323.119 52.9177 314.367 54.2632C314.571 54.6706 315.298 55.1263 315.699 55.5531C303.885 56.895 297.646 55.2427 299.158 54.4806C292.891 55.4916 283.677 56.3728 282.445 57.1675C279.224 57.4793 276.028 57.7881 272.807 58.1C276.014 56.1457 262.602 57.6788 261.851 59.1755C267.39 58.7031 272.935 58.2319 278.474 57.7595C274.447 59.8788 291.364 59.3842 256.215 60.9853C249.44 60.696 268.122 60.0178 262.608 59.8416C253.099 60.3165 244.236 61.461 235.173 61.6579C223.896 61.8998 237.613 59.8807 211.598 63.2736C269.413 60.4989 203.856 65.6894 176.881 68.9457C169.219 67.1539 146.307 68.4643 114.924 72.0833C118.264 72.4713 128.126 71.2095 133.848 70.9135C139.569 70.6177 133.439 71.5915 140.569 71.2621C147.702 70.9323 162.829 69.9863 170.065 69.8133C164.01 70.7613 134.033 74.4382 153.808 71.5096C138.907 72.1877 131.874 72.1256 113.472 73.6837C108.063 75.2624 108.531 75.8937 90.608 77.568C101.073 75.1039 80.608 75.9342 84.9515 73.9815C97.697 73.1752 90.7289 75.3249 98.1464 75.368C98.9069 75.3706 110.717 73.9092 113.472 73.6837C101.396 73.4334 97.2172 73.3113 104.424 71.0356C95.9816 71.9509 90.7041 72.2319 90.0031 73.0673C88.2106 72.8971 86.4081 72.7275 84.6432 72.5548C81.8925 72.8153 79.4181 73.0731 76.501 73.3343C80.6238 74.1196 72.772 74.1233 67.2852 75.1536C61.7975 76.1846 69.3077 76.4144 54.1067 77.8204C59.1989 77.6259 63.853 77.4328 68.7786 77.239C59.0028 78.4344 49.1964 79.6346 39.4205 80.83C46.3701 80.9037 61.3866 80.5828 61.0636 81.5475C56.5162 81.6114 41.1046 83.6447 39.4139 83.8252C39.2616 83.8414 39.1149 83.8567 38.9733 83.8712L36.626 84.0741L35.3748 82.1253C32.0686 77.1489 34.3964 79.7042 34.1434 79.2887C28.7511 70.4608 23.9447 63.4265 22.5526 59.6489C17.984 53.3507 14.9845 48.3113 10.4778 41.413C7.99744 37.6162 7.92944 38.7117 6.58801 36.4181C1.56946 27.8342 2.50195 28.4046 0.727905 25.6064L4.6731 24.4378C4.64514 27.0098 4.87927 32.1729 5.58203 47.0474C6.03735 42.9272 6.50305 38.8618 6.96252 34.7416C7.1344 38.5858 7.30713 42.4074 7.47888 46.2516C7.39612 48.8235 7.31262 51.3725 7.22986 53.9445C6.24268 53.8892 5.25342 53.823 4.26611 53.7677C4.21228 56.5886 4.16003 59.4208 4.1062 62.2417C4.00891 57.4019 3.91174 52.5504 3.81458 47.7106C3.64075 47.2685 3.46704 46.8558 3.29333 46.4137C3.02417 53.6042 2.75269 60.7693 2.48157 67.9598C2.82495 68.098 3.17078 68.2343 3.51428 68.3724C3.03613 84.5784 2.74536 84.9642 3.69128 100.367C3.68225 110.613 4.75195 119.216 5.43323 125.79L5.43311 125.813C5.53247 126.852 5.62256 127.841 5.69763 128.777C5.48584 131.236 5.27148 133.698 5.05933 136.185C5.33252 137.764 5.60437 139.358 5.87744 140.937C5.45544 144.059 5.03296 147.223 4.61304 150.345C5.50122 152.093 5.77563 152.997 6.1886 140.807C7.27734 144.992 6.61292 166.454 6.16724 175.19C5.82898 181.817 4.95142 174.454 4.83105 175.283C4.42261 178.048 4.66992 188.977 4.58765 191.271C4.24402 200.976 4.23706 207.777 3.96082 216.542C3.90588 218.248 3.27527 223.014 3.25342 223.419C3.12708 226.571 2.77747 234.35 2.76208 235.235C1.95898 280.879 4.91687 232.124 4.31055 274.568C4.65991 273.299 5.0061 272.133 5.35522 270.892C5.35059 274.098 5.3446 277.338 5.33997 280.545C5.02429 284.608 4.54749 279.685 4.89966 287.763C4.48584 287.234 4.07166 286.703 3.66003 286.147C3.85791 289.661 4.05493 293.048 4.2522 296.645C2.75671 302.275 2.26453 322.867 0.572876 321.39C-0.00268555 320.888 -0.482056 306.282 -1.16187 313.993C-1.33325 320.261 -0.607544 316.023 -0.591431 318.581C-0.484863 337.056 -1.44653 335.975 -1.24744 343.527C-0.841064 344.718 -0.427002 345.972 -0.0166016 347.191C-0.161133 350.037 -0.305786 352.892 -0.450562 355.765C-0.176392 356.431 0.0979004 357.125 0.37207 357.791C0.411865 355.109 0.45459 352.088 0.492676 349.627C1.54785 353.068 1.78503 384.589 0.957275 372.563C0.621338 367.666 0.851318 358.703 -0.472046 364.357C-0.354492 372.793 -0.241821 382.364 -0.127686 391.242C-0.405151 391.516 -0.682983 391.772 -0.960449 392.046C-0.876831 404.011 0.309814 393.139 0.899536 393.166C0.894409 395.903 0.887085 398.668 0.88208 401.404C0.606201 402.563 0.318237 403.663 0.0501709 404.876C0.473755 404.991 1.44836 406.531 1.0177 414.684C0.737793 419.927 -0.267822 411.66 -0.198364 421.66C0.469727 420.918 1.30481 417.313 1.43018 428.453C0.730225 429.553 0.085083 431.078 -0.648071 431.929C-0.430908 437.357 -0.470093 441.625 -0.55957 445.785L-0.561157 446.352L0 446.349C6.46313 446.437 12.67 446.648 22.5612 446.179C32.8763 445.69 47.0067 443.956 53.6719 446.628C61.2172 446.698 58.8224 446.033 61.0553 445.883C71.5922 445.175 79.4293 446.442 81.3929 446.517C93.9155 446.995 99.5302 446.556 109.733 447.154C109.18 446.659 108.879 446.191 108.436 445.709C99.0885 446.45 94.3544 446.415 81.2456 446.256C85.6417 446.156 90.0394 446.055 94.4355 445.955C93.7167 445.554 93.0046 445.152 92.3134 444.753C51.77 446.334 61.2277 443.836 95.2167 443.289C98.1476 444.032 101.185 444.773 104.089 445.518C123.723 444.392 132.963 445.37 155.168 445.604C157.808 445.631 167.424 445.203 171.557 445.181C171.488 445.179 171.419 445.176 171.35 445.173C173.921 444.471 170.439 444.148 170.024 443.521C172.263 443.443 174.505 443.364 176.744 443.286C181.746 443.764 179.988 444.156 189.831 444.043C188.504 443.567 187.194 443.09 185.867 442.614C196.652 442.598 203.711 443.115 213.75 442.892C212.063 443.072 210.397 443.252 208.71 443.432C230.465 443.89 213.317 446.667 229.473 445.315C229.541 445.309 229.611 445.303 229.681 445.297C230.731 445.542 231.755 445.788 232.805 446.032C231.694 446.042 230.583 446.052 229.473 446.062C223.781 446.111 218.092 446.16 212.423 446.21C212.285 446.556 212.136 446.9 212.026 447.246C217.831 447.163 223.658 447.078 229.473 446.995C230.943 446.974 232.413 446.953 233.881 446.932C232.413 446.996 230.943 447.06 229.473 447.124C225.621 447.292 221.763 447.46 217.92 447.628C221.771 447.703 225.622 447.779 229.473 447.854C234.057 447.944 238.641 448.034 243.225 448.124C234.268 446.854 245.88 446.698 243.696 445.44C258.63 446.488 270.361 447.868 293.509 446.984C298.098 446.808 295.605 445.929 308.629 446.999C305.477 445.6 321.793 444.943 319.697 443.613C315.163 443.677 310.461 443.717 306.065 443.796C311.07 444.258 311.9 445.527 304.297 445.904C294.59 446.384 280.432 445.504 281.011 446.914C277.141 446.847 273.541 446.808 269.781 446.752C271.329 446.403 272.845 446.051 274.365 445.701C263.667 446.25 256.945 446.071 251.802 445.19C264.549 444.987 277.269 444.787 290.016 444.586C288.138 444.526 286.235 444.465 284.357 444.408C294.009 443.507 284.053 442.654 302.056 442.462C301.946 442.874 301.858 443.286 301.747 443.7C308.301 442.598 326.247 442.604 320.522 441.338C325.943 441.727 327.047 441.973 330.117 441.29C344.415 442.253 353.597 443.47 348.509 444.923C353.818 444.689 359.129 444.455 364.411 444.221C361.341 443.824 358.269 443.428 355.2 443.031C364.437 443.056 373.741 443.08 382.95 443.103C383.835 444.278 365.171 443.459 370.556 444.51C371.634 444.721 376.604 444.269 377.91 444.388C391.681 445.673 370.062 444.745 374.122 445.73C394.643 446.034 378.222 447.684 406.486 446.297C407.233 446.637 408.035 446.983 408.726 447.32C418.537 447.34 417.742 446.574 426.175 446.429C431.457 446.339 438.086 447.685 443.919 446.768C444.959 446.599 435.147 444.954 455.768 445.026C471.772 445.083 465.111 446.245 473.762 446.657C482.419 447.069 502.221 445.457 508.056 447.285C503.522 447.043 497.747 446.912 492.715 446.713C490.668 447.069 488.676 447.421 486.658 447.775C498.162 447.316 510.054 447.857 517.798 447.009C533.147 448.307 550.312 447.102 545.666 445.637C540.614 445.848 546.11 446.487 539.093 446.08C538.374 445.738 537.617 445.398 536.897 445.057C548.845 445.098 557.142 445.089 551.694 446.13C553.547 446.155 555.382 446.18 557.235 446.204C557.567 445.451 557.861 444.695 558.193 443.941C560.405 443.856 562.627 443.772 564.84 443.687C567.3 443.853 569.765 444.02 572.253 444.188C568.906 445.38 563.206 445.419 582.068 446.086C582.123 445.674 582.204 445.264 582.259 444.852C598.05 445.376 598.466 446.373 618.292 446.336C603.082 447.766 594.76 445.231 594.816 448.1C590.999 447.912 587.152 447.721 583.335 447.532C582.754 447.948 582.179 448.365 581.626 448.781C602.117 448.562 636.155 445.826 649.875 447.64C651.534 447.418 653.199 447.226 654.885 446.988C668.326 448.083 674.13 445.625 687.765 447.041C688.129 447.079 688.201 447.263 688.418 447.512C689.035 448.226 690.828 449.477 703.976 449.416C703.534 449.116 703.303 448.611 702.944 448.232C706.787 448.416 710.609 448.609 714.424 448.797C715.116 448.52 715.841 448.243 716.532 447.963C709.978 447.856 703.441 447.746 696.887 447.639C702.333 447.543 707.814 447.448 713.26 447.353C706.155 446.9 702.95 446.895 707.233 446.169C713.4 446.126 719.576 446.079 725.743 446.036C726.378 445.85 727.009 445.662 727.644 445.476C724.657 444.921 721.641 444.379 718.654 443.816C734.721 444.269 748.69 444.293 761.024 445.384C763.126 445.568 755.693 446.291 770.014 445.639C770.235 446.022 770.62 446.333 770.869 446.687C788.403 445.614 794.163 445.934 812.443 446.709C800.606 445.986 811.168 446.456 814.182 446.069C816.248 445.802 808.186 445.842 809.098 445.562C810.01 445.285 820.486 444.165 811.529 444.03C789.571 446.326 783.589 443.581 755.38 444.685C759.722 444.389 764.095 444.092 768.437 443.796C766.392 443.595 764.562 443.413 762.351 443.2C778.084 443.649 770.432 443.358 776.896 443.004C783.368 442.65 795.129 442.349 803.011 442.252C805.494 442.221 802.875 442.736 808.479 442.784C812.295 442.817 822.724 442.054 825.132 442.954C826.708 443.54 809.953 445.152 833.12 445.149C837.48 445.723 826.373 445.544 826.134 445.614C824.115 446.297 838.357 446.81 844.939 446.289C845.472 446.244 840.274 445.711 845.927 445.503C859.34 445.004 867.086 445.614 875.77 446.44C876.71 445.471 887.998 444.314 902.047 444.672C902.765 444.395 903.45 444.116 904.169 443.836C901.987 443.983 899.807 444.128 897.625 444.275C895.247 444.101 892.727 443.974 890.404 443.769C904.533 443.531 906.531 442.196 913.306 441.708C936.491 440.039 922.439 443.569 918.258 444.177C915.243 443.931 912.329 443.656 909.342 443.397C909.674 443.734 910.01 444.074 910.314 444.414C945.021 444.403 915.6 446.604 933.216 447.231C937.752 445.571 950.69 445.411 967.171 446.464C968.997 446.456 970.828 446.454 972.654 446.444C972.957 446.202 972.953 445.832 973.45 445.672C993.306 445.391 996.844 447.947 998.724 448.189C1007.08 449.263 1013.58 447.777 1016.04 447.764C1026.41 447.713 1029.42 448.372 1039.3 448.089C1049.91 447.783 1042.65 447.276 1045.88 446.823C1048.48 446.463 1056.85 446.399 1060.31 446.026C1058.94 446.331 1057.41 446.63 1056.04 446.937C1067.04 447.353 1076.04 447.758 1088.53 447.86C1102.64 445.627 1114.64 449.393 1109.77 446.339C1097.93 446.13 1091.32 445.782 1084.98 445.003C1092.75 444.904 1100.53 444.807 1108.3 444.708C1110.56 445.043 1112.17 445.37 1114.86 445.711C1120.66 444.999 1134.12 445.305 1139.41 445.096C1142.53 444.972 1145.14 444.845 1147.36 444.721C1162.71 443.862 1159.36 443.161 1179.1 444.943C1163.04 445.139 1162.84 446.106 1147.36 446.002C1147.14 446.001 1146.92 445.999 1146.69 445.997C1146.9 446.039 1147.12 446.079 1147.36 446.116C1151.11 446.691 1158.06 446.609 1153.07 447.407C1168.69 447.198 1163.64 446.44 1169.72 445.767C1174.97 445.188 1185.53 445.155 1184.93 444.401C1186.01 444.816 1186.85 445.217 1187.92 445.631C1198.04 445.627 1208.16 445.626 1218.28 445.622C1213.97 446.055 1209.66 446.488 1205.34 446.918C1208.6 447.082 1211.87 447.245 1215.13 447.408C1240.02 446.063 1282.94 448.528 1276.08 445.149C1288.08 445.041 1289.59 445.465 1296.11 446.104C1296.83 445.848 1297.53 445.634 1298.25 445.349C1305.99 445.617 1311.93 444.654 1318.76 444.904C1325.59 445.153 1327.29 446.063 1328.28 444.533C1332.71 444.972 1337.11 445.336 1341.5 445.744C1344.15 445.397 1346.81 445.053 1349.43 444.708C1353.58 444.89 1357.74 445.071 1361.88 445.253C1363.27 444.798 1370.12 444.749 1376.84 444.658C1380.89 444.603 1384.89 444.532 1387.6 444.348C1394.43 445.135 1394.24 447.613 1410.3 447.169C1409.88 446.554 1409.47 445.941 1409.06 445.327C1412.74 445.455 1416.42 445.583 1420.13 445.711C1420.35 445.912 1420.54 446.112 1420.76 446.313C1418.88 446.251 1417.03 446.189 1415.14 446.125C1416.78 446.464 1418.37 446.802 1419.98 447.142C1425.59 446.639 1431.21 446.136 1436.85 445.633C1429.25 445.252 1421.64 444.871 1414.04 444.491C1423.58 444.039 1430.22 444.489 1438.52 443.986C1445.74 444.835 1443.07 445.324 1440.14 446.245C1442.82 446.166 1445.53 446.09 1448.22 446.012C1446.45 446.932 1450.98 447.481 1435.31 447.407C1436.38 447.669 1437.48 447.92 1438.53 448.193C1441.1 448.151 1442.77 448.373 1445.59 448.272C1453.28 447.995 1459.18 446.377 1458.65 445.81C1458.37 445.513 1450.79 446.081 1451.09 445.661C1451.84 444.637 1469.23 445.097 1444.15 444.068C1452.47 443.416 1454.33 443.908 1463.51 444.096C1462.79 443.755 1462.1 443.416 1461.41 443.075C1465.66 443.232 1469.93 443.389 1474.18 443.546C1468.27 445.299 1499.65 445.957 1471.4 447.491C1479.75 447.57 1488.07 447.649 1496.39 447.731C1494.68 447.911 1492.96 448.09 1491.25 448.27C1487.49 448.175 1483.75 448.081 1479.99 447.988C1484.41 448.317 1488.84 448.644 1493.27 448.973C1495.68 448.879 1497.75 448.773 1499.57 448.657L1502.5 448.641L1502.44 445.743C1501.95 439.674 1501.39 436.408 1500.73 432.737C1500.45 442.216 1500.81 441.896 1501.13 445.764L1501.17 447.344L1499.57 447.352C1498.47 447.426 1497.03 447.49 1494.93 447.524C1495.26 447.034 1494.83 446.583 1495.66 446.068C1496.6 446.264 1497.96 446.395 1499.57 446.478L1500.27 446.474L1500.26 445.779C1500.49 439.07 1499.83 428.106 1499.74 425.118C1499.4 413.846 1500.54 422.671 1500.44 415.128C1500.34 407.579 1499.6 398.685 1500.48 392.502C1499.93 392.622 1499.37 393.125 1498.87 393.575C1498.49 381.826 1499.19 384.16 1499.25 382.942C1500.33 363.508 1498.98 352.994 1498.47 330.792C1498.34 333.615 1498.23 336.467 1498.12 339.317C1496.67 322.585 1497.21 333.864 1497.06 348.414C1496.96 334.78 1495.83 326.989 1495.37 317.371C1494.91 307.755 1495.16 291.245 1495.46 285.208C1496.33 298.996 1496.15 313.886 1496.58 329.202C1497.12 327.451 1497.57 325.75 1498.16 323.943C1496.82 314.645 1497.52 309.233 1497.63 306.162C1497.94 297.142 1496.93 297.442 1497.94 291.977C1497.56 292.205 1497.25 292.372 1496.9 292.599C1496.75 273.987 1497.09 253.904 1495.5 241.815C1496.38 240.694 1497.24 239.845 1498.14 238.558C1497.33 230.69 1497.92 223.93 1497.65 217.297C1497.38 210.691 1496.69 213.219 1496.28 205.455C1496.21 204.017 1496.62 201.015 1496.22 197.482C1495.82 193.913 1493.09 180.774 1495.26 179.161C1495.16 172.498 1495.14 166.19 1495.07 159.664C1495.3 166.022 1495.52 172.382 1495.75 178.711C1496.2 173.283 1496.64 167.889 1497.08 162.461C1496.6 161.778 1496.1 161.092 1495.62 160.437C1494.9 147.644 1495.28 137.913 1495.09 125.777L1495.09 125.377L1494.76 125.15C1493.38 124.157 1491.95 123.145 1490.46 122.107C1488.44 120.702 1492.61 124.843 1483.87 118.3C1475.12 111.755 1469.54 105.614 1454.01 95.3487C1453.22 94.8307 1447.95 92.7221 1443.07 88.09C1441.96 87.0366 1447.34 90.493 1444.66 88.2437C1441.99 85.9925 1429.47 76.7694 1428.86 75.5248C1428.86 75.8115 1429.51 76.5726 1429.76 77.0396C1427.53 75.5877 1425.29 74.1202 1423.04 72.6506C1423.08 72.1708 1423.1 71.6791 1423.13 71.201C1410.15 63.1075 1402.83 59.7937 1384.72 46.2245C1389.55 50.4082 1394.38 54.5953 1399.18 58.7629C1400.84 59.4338 1402.51 60.1041 1404.15 60.7589C1412.53 66.9547 1420.94 73.1664 1429.33 79.3623C1431 79.9699 1432.65 80.5612 1434.32 81.1688C1436.54 82.8265 1438.73 84.4669 1440.94 86.1246C1440.18 86.0039 1439.41 85.8785 1438.63 85.7418C1443.13 88.8549 1447.64 91.9706 1452.12 95.0677C1441.91 90.282 1427.03 76.9258 1427.2 79.148C1425.35 77.5026 1423.5 75.8538 1421.66 74.2067C1420.3 74.2529 1416.36 71.1513 1409.27 65.9194C1410.67 67.4247 1412.25 69.0479 1413.52 70.4602C1406.88 65.0086 1394.47 56.2143 1387.38 50.874C1384.26 48.5286 1387.78 50.304 1386.88 49.5725C1382.25 45.8164 1372.39 40.0623 1370.51 38.6124C1366.27 35.3566 1362.72 32.338 1359.24 29.416L1359.31 29.4318C1351.78 29.9985 1344.55 30.6387 1335.1 32.9191C1350.98 30.802 1342.35 31.9926 1348.09 31.8439C1349.89 31.7977 1370.41 29.1199 1344.77 32.8525C1341.77 33.2885 1295.1 39.0843 1310.21 35.6949C1302.75 37.1835 1296.92 38.4727 1290.09 39.8849C1272.83 39.7396 1279.05 41.414 1284.16 42.0765C1281.4 42.5076 1278.78 42.9262 1275.93 43.3639C1281.75 40.9467 1250.96 45.5919 1240.63 47.95C1237.17 48.7382 1247.03 47.7083 1238.97 49.1787C1235.1 49.6675 1230.71 50.2052 1226.62 50.7153C1232.67 50.7475 1221.14 52.8937 1221.45 53.826C1213.91 54.1131 1207.97 53.1772 1211.89 51.5706C1206.57 52.745 1201.23 53.9227 1195.91 55.0993L1195.85 55.1054C1195.09 55.1957 1194.34 55.2859 1193.58 55.3762C1194.34 55.3963 1195.1 55.4161 1195.87 55.4357L1195.96 55.4262C1198.09 55.2692 1200.23 55.1102 1202.34 54.9553C1200.28 55.2094 1198.17 55.4934 1196.02 55.7971L1195.89 55.8104C1176.93 56.5929 1155.66 58.6595 1151.77 57.0387C1149.09 57.1964 1146.38 57.3535 1143.7 57.5112C1142.89 57.8986 1142.11 58.2851 1141.3 58.6725C1129.16 59.0227 1117.06 59.3695 1104.92 59.7198C1115.7 58.9301 1118.24 58.3044 1129.58 58.096C1125.2 57.9345 1120.74 57.7752 1116.44 57.6093C1099.45 59.5823 1097.17 60.4048 1071.5 61.4597C1070.33 61.5072 1050.9 61.6523 1050.24 61.6009C1047.18 61.3664 1051.76 60.5435 1050.39 60.4153C1046.61 60.0538 1023.71 59.862 1024.14 59.6255C1029.58 56.7148 1106.36 52.5762 1127.12 51.3319C1149.94 49.9642 1172.71 48.636 1195.44 47.3402L1194.73 47.4135C1249.4 38.7984 1303.84 30.3987 1358.18 22.101L1361.09 21.6381L1363.55 23.3805C1408.58 55.6265 1453.45 87.8726 1498.36 120.124L1501.19 122.129L1501.27 125.675C1502.38 205.904 1503.51 286.178 1504.96 366.93C1505 369.133 1505.37 368.165 1505.4 369.104C1505.6 374.936 1505.09 380.674 1505.1 382.831C1505.12 387.44 1505.64 384.894 1505.69 388.26C1506.01 407.783 1506.22 426.69 1506.46 445.677L1506.61 452.638L1499.57 452.675C1484.73 452.617 1469.83 452.577 1454.55 452.619C1452.29 452.625 1454.6 452.18 1450.62 452.259C1448.56 452.302 1442.13 452.984 1437.49 452.995C1421.28 453.03 1407.67 452.811 1390.58 452.821C1386.63 452.824 1381.84 452.815 1376.84 452.805C1370.01 452.791 1362.79 452.774 1356.76 452.78C1352.14 452.784 1347.33 453.097 1342.77 453.107C1336.3 453.122 1337.62 452.489 1336.62 452.449C1332.25 452.277 1331.65 452.972 1327.5 452.956C1319.79 452.923 1319.37 452.459 1309.58 452.498C1302.58 452.527 1286.57 452.893 1277.75 453.001C1257.12 452.463 1231.12 452.676 1211.87 452.854C1200.48 452.96 1199.42 452.31 1194.78 452.312C1178.41 452.325 1165.98 453.155 1150.61 453.182C1149.52 453.183 1148.44 453.184 1147.36 453.182C1128.27 453.16 1111.07 452.666 1092.35 452.629C1089.15 452.622 1089.88 453.218 1086.74 453.233C1075.09 453.289 1060.2 453.397 1049.83 453.312C1038.28 453.219 1034.01 452.355 1022.7 452.531C1019.39 452.583 1018.41 453.341 1012.86 453.438C1003.98 453.591 994.248 452.923 988.054 452.848C979.564 452.749 986.948 453.521 975.498 453.417C975.028 453.413 973.314 452.861 970.856 452.887C963.693 452.962 964.404 453.396 953.922 453.355C952.917 453.349 939.019 452.824 937.638 452.821C929.507 452.813 913.138 452.629 908.325 452.741C891.123 453.138 904.666 453.968 890.036 452.167C883.594 452.608 877.205 453.055 870.376 453.483C874.934 453.084 856.437 452.507 855.138 452.544C844.386 452.845 850.79 453.545 837.158 453.429C855.162 451.811 819.57 453.221 811.633 453.262C773.414 453.463 738.674 453.059 700.262 453.069C696.606 453.07 692.597 453.099 688.418 453.139C677.897 453.24 666.302 453.413 656.565 453.407C653.394 453.407 655.79 453.024 652.999 453.016C650.215 453.01 653.304 453.44 650.125 453.417C630.352 453.268 614.86 452.457 596.746 453.471C595.864 453.324 595.893 453.208 594.432 453.047C579.609 453.956 551.062 452.734 540.331 452.566C523.549 452.306 519.261 452.92 507.069 452.796C490.946 452.63 466.739 451.43 477.55 453.411C466.49 453.473 455.842 453.49 444.671 453.306C443.427 453.285 444.284 452.782 443.786 452.771C440.635 452.699 439.608 453.15 437.479 453.171C431.706 453.226 441.127 452.687 432.895 452.837C428.554 452.918 426.088 453.311 414.031 453.32C354.732 453.355 291.289 453.268 229.473 453.198C215.525 453.183 201.66 453.168 187.945 453.156C182.828 453.152 186.196 453.639 179.78 453.608C157.49 453.5 117.591 452.681 98.3705 452.792C79.151 452.904 83.4872 453.616 71.46 453.914C69.1368 453.972 71.0416 453.566 68.9398 453.56C54.808 453.523 37.96 452.89 26.5107 452.795C18.9395 452.731 19.5458 453.369 14.2935 453.415C9.25903 453.457 4.13025 453.206 0 453.015L-7.24512 453.053L-7.2251 445.733C-7.10144 443.443 -6.9989 441.46 -6.97974 439.97C-6.73376 420.34 -7.14661 406.839 -6.73694 388.508C-6.88306 389.224 -7.01685 389.696 -7.16003 390.302C-6.96582 368.595 -6.77173 346.916 -6.57751 325.21C-6.71387 326.232 -6.8512 327.22 -6.98962 328.242C-6.71802 302.774 -5.35022 305.692 -8.30481 307.908C-8.39368 306.055 -8.49805 304.091 -8.57935 302.321C-7.07202 303.051 -5.84326 287.654 -5.30334 268.051C-5.26294 266.614 -6.66187 256.953 -4.92749 258.018C-5.33386 255.498 -5.61597 253.996 -5.97375 251.864C-5.41345 247.721 -4.85876 243.522 -4.30054 239.379C-4.36145 237.139 -4.41943 234.868 -4.48035 232.628C-4.81921 232.293 -5.17578 232.546 -5.50549 231.824C-5.4751 221.427 -4.8844 200.106 -4.86292 191.889C-4.8114 171.479 -5.57056 150.694 -4.44763 134.828C-4.48486 127.729 -5.10388 133.613 -5.06934 125.73L-5.06958 125.79C-5.07202 125.086 -5.07019 124.271 -5.06323 123.328C-4.72388 122.029 -4.39856 120.807 -4.04883 119.452C-5.56519 110.053 -4.6427 108.09 -4.32593 95.2093C-4.11072 86.4986 -4.48132 80.7943 -4.40894 72.4989C-4.39038 70.3971 -3.94531 70.6948 -3.95972 69.2567C-4.00562 64.4402 -4.61816 50.6985 -4.63477 47.2979C-4.67603 39.4351 -4.70215 31.855 -4.7157 24.4378L-4.76758 0L8.60217 20.493C20.4224 38.6232 31.3967 55.6501 43.1954 74.043C44.8987 76.6962 43.0408 73.0288 44.8025 75.7759C44.8375 75.8304 44.8717 75.884 44.9052 75.9365L37.9359 72.5551C42.9031 72.1444 39.9994 73.0721 42.9938 72.8304C51.4502 72.1442 51.4495 71.4296 63.2302 70.3122C102.022 66.6335 146.683 63.0761 187.225 59.4074C188.492 59.2912 188.378 58.8829 189.755 58.7526C198.729 57.9095 207.866 57.6378 216.015 56.8846C229.536 55.6367 239.646 54.1217 253.003 52.8993C279.111 50.508 302.464 48.6683 329.317 46.2233C346.902 44.6228 362.633 43.1473 380.562 41.4909L384.669 54.8721C380.732 57.0476 376.673 59.2885 372.438 61.6245C369.201 63.4098 365.963 65.1977 362.723 66.9881L358.818 53.575C390.02 51.5966 421.393 49.5012 452.849 47.3813L453.957 47.3943C477.965 49.3499 502.023 51.2986 526.087 53.2751L525.224 53.2487C549.261 52.5566 573.306 51.8914 597.32 51.2923L599.06 51.4404C622.047 55.9679 644.992 60.5501 667.851 65.2146C670.504 65.7567 669.351 65.9049 670.165 66.0491C670.472 66.1031 670.768 66.1545 671.053 66.2034L669.009 66.0884C675.983 65.3371 676.698 64.8579 679.454 65.6339C689.408 64.6076 692.491 63.5688 704.537 62.6321C710.958 62.1323 706.265 63.7353 717.072 62.2175C726.621 60.8756 716.412 61.0669 743.347 59.4577L744.503 59.4471C745.091 59.498 745.696 59.5506 746.32 59.6051C747.092 59.6731 750.849 60.6537 756.932 60.8498C763.044 61.0497 756.017 60.0704 770.711 60.85C786.25 61.6753 803.635 62.8242 821.714 64.054L813.195 74.3139C812.279 70.6478 811.358 66.9518 810.432 63.2367L808.009 53.8986L817.704 53.0493C836.216 51.6064 855.192 50.1265 873.417 48.5346C874.899 48.4051 883.94 47.5183 892.065 46.6964C897.68 46.1284 902.857 45.5913 904.8 45.3565C913.998 44.2433 912.025 43.855 923.999 42.7331C933.252 41.8667 940.944 41.8568 951.821 40.8357C953.088 40.7162 955.159 39.9035 963.348 39.3137ZM557.206 443.287C559.474 442.659 563.566 440.349 577.278 441.052C578.578 441.118 571.561 442.707 579.135 442.96C571.724 443.128 564.506 443.182 557.206 443.289C557.206 443.289 557.206 443.288 557.206 443.287ZM1020.61 67.6747C1010.7 65.0071 1000.76 62.332 990.854 59.6645C997.78 61.157 1004.72 62.6526 1011.62 64.1363C1014.62 65.3178 1017.6 66.493 1020.61 67.6747ZM5.77112 185.002C5.77124 184.993 5.77136 184.983 5.77136 184.973C5.98425 195.761 6.19763 206.555 6.41052 217.342C6.20007 216.207 5.98865 215.069 5.7782 213.933C5.49988 205.414 5.22205 196.891 4.9436 188.4C5.21948 187.269 5.49524 186.134 5.77112 185.002ZM3.91577 99.7632C4.17664 92.8769 4.61646 94.5622 5.04492 90.7733C5.04407 90.7733 5.04333 90.7733 5.04248 90.7733C5.15405 89.7732 5.25159 85.1161 5.26831 83.3162C4.99304 83.9799 4.72131 84.8372 4.448 85.5563C3.78149 69.4883 6.1499 38.0659 7.10413 78.7476C6.75647 78.1393 6.41064 77.5579 6.06299 76.9496C6.16016 97.1659 5.40613 119.703 3.91577 99.7632ZM719.759 442.286C737.017 441.148 742.55 440.908 763.485 441.688C760.528 442.011 757.571 442.333 754.613 442.656C751.156 442.327 747.725 442 744.268 441.671C744.258 441.671 744.248 441.671 744.238 441.671C743.547 442.017 742.854 442.363 742.19 442.708C734.724 442.568 727.226 442.427 719.759 442.286ZM508.58 61.8128C513.177 64.4912 511.908 63.0553 498.176 62.3859C493.422 62.1546 498.006 62.9492 495.052 62.761C479.1 61.7487 477.958 60.1212 481.58 59.6378C490.594 60.3611 499.702 61.0971 508.551 61.8102C508.56 61.8111 508.57 61.8119 508.58 61.8128ZM907.112 55.6501C907.122 55.6493 907.132 55.6485 907.141 55.6477C907.6 56.1663 901.192 56.8441 908.476 56.771C903.325 57.1936 898.173 57.6142 893 58.0384C892.641 58.0678 892.282 58.0973 891.922 58.1268C892.279 58.0859 892.637 58.0451 892.997 58.0043C894.269 57.8596 895.553 57.7149 896.816 57.5704C895.527 57.5067 894.235 57.4412 892.945 57.3771C892.785 57.3691 892.625 57.3612 892.465 57.3533C890.561 58.1499 888.712 57.9304 882.908 58.1949C884.562 58.7418 886.209 59.2898 887.864 59.8367C881.123 60.1887 874.358 60.5421 867.618 60.8941C867.522 60.7299 867.423 60.5656 867.326 60.4013C864.809 60.8288 862.318 61.2566 859.802 61.6841C859.096 61.5367 858.415 61.3891 857.71 61.2417C854.664 61.6484 851.614 62.0554 848.568 62.4642C847.597 62.0463 854.32 61.277 842.381 62.3875C846.004 61.578 849.62 60.7707 853.271 59.9589C866.479 58.9009 879.688 57.8439 892.896 56.7872C897.635 56.4081 902.374 56.0291 907.112 55.6501ZM384.305 62.0675C404.089 60.7328 398.538 61.4409 394.026 62.8516C390.797 62.5895 387.535 62.3296 384.305 62.0675ZM139.93 443.881C145.682 443.114 151.459 442.353 157.35 441.612C169.076 441.184 180.806 442.584 171.984 443.132C161.364 443.79 150.273 443.054 139.93 443.881ZM407.002 443.54C392.655 443.184 406.154 442.271 409.389 441.739C413.358 442.594 418.892 442.519 427.781 442.618C419.435 442.674 409.374 443.6 407.002 443.542C407.002 443.541 407.002 443.541 407.002 443.54ZM3.48962 354.868C3.51196 349.119 3.34277 343.398 3.64392 338.26C4.36597 339.816 3.6167 350.094 4.76331 342.749C4.75281 346.426 4.74182 350.108 4.73364 353.758C4.30103 351.435 3.93933 354.552 3.49219 354.853C3.49133 354.858 3.49048 354.863 3.48962 354.868ZM240.011 65.3477C228.695 65.5121 226.599 66.0777 215.335 67.7151C213.676 67.1565 227.063 64.7386 235.494 63.7037C236.989 64.2526 238.489 64.8014 240.011 65.3477ZM1362.32 35.699C1365.05 36.5398 1381.38 48.0625 1389.31 54.0523C1388.27 53.4738 1387.22 52.8944 1386.18 52.3176C1378.24 46.7854 1370.26 41.2311 1362.32 35.699ZM432.011 442.679C430.523 442.653 429.113 442.633 427.781 442.618C429.262 442.608 430.691 442.624 432.011 442.679ZM1032.77 446.595C1028.04 447.446 1042.09 447.731 1025.03 447.398C1025.03 447.399 1025.03 447.4 1025.03 447.401C1013.75 447.181 1011.26 447.123 1000.8 447.056C1004.57 445.964 1025.77 445.573 996.543 445.347C996.158 445.346 996.924 445.997 992.254 445.908C990.813 445.88 986.199 445.346 979.182 445.191C976.915 445.142 959.873 444.977 983.103 444.967C982.411 444.205 983.659 443.434 983.604 442.695C992.671 442.48 999.64 443.972 1009.23 443.935C1023.47 443.877 1030.72 442.369 1033.46 444.348C1021.48 444.834 1000.92 444.846 998.238 443.656C986.652 443.641 983.325 444.616 992.667 445.098C1032.68 444.486 1003.65 446.546 1038.69 445.767C1039.11 445.492 1040.55 445.196 1040.33 444.937C1051.02 445.906 1034.45 446.291 1032.77 446.595ZM949.089 444.491C956.003 443.909 962.894 443.323 969.78 442.739C969.78 443.687 965.983 444.538 955.087 445.072C953.097 444.877 951.078 444.683 949.089 444.491ZM1497.51 414.705C1496.98 413.718 1496.46 411.072 1495.94 409.144C1496.34 407.036 1495.94 357.254 1496.78 382.57C1496.91 386.247 1496.36 408.694 1497.51 414.705ZM317.957 57.4226C312.087 57.6136 306.24 57.8019 300.398 57.9904C309.323 56.952 318.254 55.9073 327.179 54.8648C324.097 55.718 321.039 56.5693 317.957 57.4226ZM235.37 444.786C232.893 444.767 241.118 444.058 231.361 444.17C238.635 443.716 245.446 443.333 252.553 442.906C254.683 443.242 256.835 443.575 258.964 443.911C260.624 443.696 262.316 443.482 263.975 443.266C262.979 443.755 262.093 444.232 261.042 444.729C249.067 443.681 246.321 444.869 235.37 444.786ZM0.046875 325.085C1.12549 322.94 1.61987 340.285 1.92432 323.228C2.59619 326.469 2.92102 331.675 2.90417 341.658C2.62488 343.259 2.34741 344.856 2.06799 346.456C2.78003 346.683 3.02502 349.254 3.48962 354.868C3.48877 354.873 3.48792 354.878 3.48706 354.883C3.41882 370.06 3.18799 369.151 1.98572 372.792C2.7749 356.73 1.70667 356.241 1.15564 345.285C0.776733 337.76 1.05273 327.941 0.046875 325.085ZM1477.65 444.254C1489.01 443.358 1478.81 442.522 1498.97 443.474C1497.67 443.701 1496.37 443.927 1495.07 444.155C1489.26 444.19 1483.45 444.223 1477.65 444.254ZM4.12842 269.04C2.47485 270.326 1.11121 281.014 3.77026 282.861C4.39697 272.439 2.84229 277.52 4.12842 269.04ZM402.109 446.113C382.06 446.036 385.85 444.181 394.092 443.254C395.364 443.591 396.635 443.929 397.879 444.265C401.392 444.112 404.904 443.958 408.417 443.807C406.315 444.575 404.211 445.345 402.109 446.113ZM81.1189 77.0528C65.9688 79.6202 97.6482 76.193 87.057 77.8997C78.6006 79.2631 67.2783 79.1135 71.4518 77.9868C74.3967 77.6961 77.6757 77.3809 81.0895 77.0555C81.0994 77.0546 81.1091 77.0537 81.1189 77.0528ZM12.4713 42.069C12.7897 44.8617 11.1213 41.6214 17.9031 51.6505C19.8396 54.5149 34.4054 77.8099 28.996 67.572C23.6503 59.3399 18.0175 50.6326 12.4713 42.069ZM633.855 444.278C634.039 444.824 612.887 446.023 610.172 445.723C610.172 445.724 610.172 445.725 610.172 445.726C602.843 444.908 625.156 444.792 615.477 443.67C636.909 444.657 643.321 442.27 641.828 445.416C629.203 445.554 635.18 444.905 633.855 444.278ZM1105.11 60.1987C1105.1 60.1992 1105.09 60.1997 1105.08 60.2003C1106.5 60.1501 1118.23 60.3257 1116.82 60.6789C1102.75 61.1924 1105.23 60.5317 1092.19 62.0967C1091.46 61.8562 1090.83 61.6187 1090.04 61.3791C1095.23 60.9362 1098.09 60.4475 1105.11 60.1987ZM1497.73 360.873C1497.96 366.041 1497.52 375.487 1497.65 381.377C1495.07 362.666 1496.82 340.228 1497.73 360.873ZM727.943 70.4951C727.928 70.4972 727.914 70.4992 727.899 70.5012C727.903 70.4996 727.909 70.4979 727.913 70.4963C727.923 70.4959 727.933 70.4955 727.943 70.4951ZM1183.75 443.979C1184.42 444.127 1184.8 444.255 1184.93 444.367C1184.93 444.378 1184.93 444.388 1184.93 444.399C1184.57 444.261 1184.19 444.121 1183.75 443.979ZM677.817 444.113C686.627 444.875 657.274 446.086 647.782 445.797C648.445 445.449 648.549 445.134 650.096 444.735C657.757 445.635 676.351 443.985 677.817 444.113ZM8.59009 444.393C31.7932 444.414 1.59631 447.421 0.351807 445.022C0.39856 444.975 7.99072 444.397 8.59009 444.393ZM494.837 444.428C488.925 445.339 500.805 445.58 481.809 445.423C480.703 445.187 479.599 444.951 478.493 444.715C483.94 444.62 489.39 444.524 494.837 444.428ZM160.592 448.341C189.795 447.833 217.725 446.939 198.703 444.428C196.493 444.509 194.252 444.587 192.042 444.668C191.71 445.892 183.554 445.224 171.615 445.184C169.914 445.67 163.293 445.783 162.051 446.196C159.648 446.995 167.256 447.556 160.592 448.341ZM574.379 59.2769C573.914 59.4975 573.46 59.719 572.995 59.9375C568.384 60.2876 563.76 60.6368 559.149 60.9869C559.885 60.5674 560.622 60.1479 561.358 59.7283C565.696 59.5776 570.012 59.4271 574.349 59.2764C574.359 59.2766 574.369 59.2767 574.379 59.2769ZM920.631 447.075C923.283 444.774 914.013 445.197 895.209 446.361C903.671 446.599 912.168 446.837 920.631 447.075ZM0.819946 137.109C1.47839 136.507 2.13489 135.913 2.79358 135.283C2.19141 125.294 1.42822 127.142 0.525269 131.919C0.623169 133.661 0.722046 135.368 0.819946 137.109ZM21.0682 49.5073C18.9271 45.9597 19.6355 48.0197 19.4084 47.6506C13.9325 38.7088 13.3315 37.3388 5.99451 26.7698C5.19702 25.7502 4.4054 24.7481 3.60815 23.736L1.22974 20.0905L1.23901 24.4378C1.26501 24.7228 1.29114 25.0085 1.31714 25.295C1.38367 25.0058 1.44531 24.7204 1.50244 24.4378L1.495 20.9792L3.38721 23.8795C5.46191 29.1228 8.44238 32.5402 14.3187 42.9955C13.4778 40.8377 12.6423 38.6873 11.8031 36.5284C15.5295 42.4492 19.2413 48.345 22.9678 54.2659C23.5411 54.8828 24.1143 55.5018 24.6876 56.1187C23.4888 53.9306 22.2659 51.6631 21.0682 49.5073ZM627.215 65.1558C633.879 66.5247 640.574 67.9018 647.238 69.2707C647.547 68.9879 647.848 68.7009 648.157 68.418C641.185 67.3322 634.187 66.2416 627.215 65.1558ZM1060.31 446.026C1060.85 445.906 1061.38 445.786 1061.84 445.664C1061.8 445.813 1061.21 445.929 1060.31 446.026ZM1087.08 59.3088C1079.37 59.485 1068.27 60.233 1059.82 60.6351C1060.53 61.4447 1082 60.0632 1089.56 60.1725C1090.77 59.9561 1090.35 59.2339 1087.08 59.3088ZM374.373 446.038C372.437 446.461 370.504 446.881 368.596 447.303C363.922 447.257 359.238 447.209 354.536 447.164C354.398 447.509 354.262 447.858 354.124 448.204C374.834 447.755 370.059 448.751 380.312 449.734C378.321 448.503 376.364 447.272 374.373 446.038ZM828.022 58.2614C824.039 58.6525 820.745 59.0013 818.22 59.309L815.953 59.5075L816.52 61.6905C818.497 68.3712 819.215 69.4216 818.43 63.2466C818.239 62.6152 818.048 61.9832 817.857 61.3509L817.698 60.7396L818.333 60.684C822.928 60.0964 827.54 59.5071 832.128 58.92C830.751 58.7013 829.372 58.4824 828.022 58.2614ZM1332.79 446.807C1345.31 446.42 1345.52 447.812 1357.76 447.034C1351.2 446.778 1344.65 446.518 1338.13 446.262C1336.36 446.443 1334.56 446.626 1332.79 446.807ZM718.743 450.629C724.025 451.113 733.899 448.812 748.748 450.511C752.287 450.004 754.505 449.52 757.546 449.023C759.316 449.563 761.327 450.11 763.014 450.646C763.024 450.646 763.034 450.646 763.043 450.646C776.512 450.464 767.779 449.787 768.083 449.213C768.226 448.976 778.222 449.373 775.099 448.856C769.706 447.968 749.555 448.478 749.5 447.396C756.579 447.75 770.404 447.454 766.315 446.732C761.835 445.939 748.807 447.267 740.51 446.61C752.399 448.34 727.843 447.805 725.05 446.477C710.642 447.497 723.885 447.913 738.653 447.866C729.637 448.884 742.908 448.334 745.093 449.18C735.797 449.691 703.893 449.265 718.743 450.629ZM38.9639 448.753C48.9225 448.687 64.48 449.269 71.2979 448.41C75.2688 447.909 59.6744 447.522 70.4283 446.735C60.7258 446.812 58.512 447.119 60.171 447.808C57.9598 447.891 55.7208 447.972 53.5098 448.052C52.4871 447.918 51.4376 447.785 50.4149 447.651C49.2535 447.934 48.0853 448.216 46.9515 448.499C44.6027 448.443 42.2264 448.387 39.8776 448.33C39.6016 448.472 39.1306 448.596 38.9639 448.753ZM1497.38 253.089C1497.43 255.853 1497.48 258.591 1497.54 261.355C1497.7 261.048 1497.87 260.682 1498.04 260.33C1498.17 260.077 1498.3 259.825 1498.43 259.572C1497.97 261.182 1497.38 274.365 1497.99 279.905C1498.3 282.69 1499.12 276.327 1499.48 288.149C1499.29 279.58 1499.03 271.644 1498.82 263.324C1499.1 264.066 1499.39 264.779 1499.68 265.521C1499.68 265.516 1499.68 265.511 1499.68 265.506C1499.7 262.741 1499.72 259.943 1499.73 257.177C1498.95 255.807 1498.16 254.459 1497.38 253.089ZM-0.536743 145.205C-0.0709229 154.639 0.18457 157.798 1.09326 153.353C1.09375 153.343 1.09424 153.333 1.09473 153.323C0.735474 149.809 0.376343 146.292 0.0170898 142.777C-0.167236 143.578 -0.352173 144.376 -0.536743 145.205ZM1141.54 448.909C1161.59 445.591 1116.44 447.625 1125.04 448.756C1125.43 448.807 1139.66 448.543 1141.54 448.909ZM405.793 447.133C400.29 447.16 394.774 447.184 389.243 447.211C390.515 447.619 391.818 448.026 393.09 448.433C397.321 448.001 401.562 447.566 405.793 447.133ZM777.643 65.8311C771.92 64.5526 757.103 63.2747 749.788 63.7995C753.59 64.1587 757.393 64.5181 761.194 64.8773C755.517 64.6042 749.89 64.3414 744.208 64.0679L743.728 64.0723C742.201 64.2224 740.67 64.3723 739.133 64.5219C739.003 65.12 740.697 65.1395 743.797 64.9195L744.153 64.9162C747.772 65.189 753.334 65.4177 760.101 66.0391C762.046 66.22 774.403 68.5882 778.78 67.6785C779.661 67.4904 766.419 66.4776 775.675 66.3584C771.651 66.0452 768.174 65.8353 764.369 65.561C764.113 65.2418 763.859 64.9224 763.574 64.6014C768.275 65.0115 772.943 65.4209 777.643 65.8311ZM96.9409 448.654C110.62 448.724 112.309 448.217 115.156 447.321C108.796 447.423 102.432 447.523 96.0714 447.624C96.3748 447.967 96.6377 448.309 96.9409 448.654ZM656.5 66.8643C649.181 65.2719 652.187 66.6079 649.203 66.1609C637.925 64.4685 630.401 62.4538 619.296 60.5973C620.056 60.6036 620.755 60.6073 621.487 60.6123C621.477 60.6104 621.467 60.6085 621.458 60.6066C610.338 58.2805 602.822 56.7701 598.182 55.8904L597.433 55.8265C588.39 56.1163 590.153 56.3683 597.447 56.4273L598.066 56.48C604.652 58.0049 615.912 60.4019 627.772 62.6367C628.452 63.0472 629.103 63.4523 629.784 63.8608C643.875 66.1563 656.874 68.2545 656.5 66.8643ZM963.413 449.023C964.022 449.193 958.851 450.271 968.557 449.766C976.243 448.191 963.637 448.973 960.481 448.367C963.108 448.216 965.795 448.069 968.395 447.918C952.686 447.473 950.394 447.848 956.118 448.998C956.527 449.076 962.804 448.854 963.413 449.023ZM1066.65 449.799C1068.81 447.479 1048.98 448.522 1049.7 449.243C1052.44 449.271 1054.56 448.878 1057.47 449.052C1060.4 449.226 1061.15 449.768 1066.65 449.799ZM498.683 449.232C499.264 449.242 505.099 450.217 504.519 449.454C497.301 447.647 482.757 448.81 485.302 449.439C490.112 449.408 493.32 449.137 498.683 449.234C498.683 449.233 498.683 449.232 498.683 449.232ZM852.852 54.1549C852.571 54.1131 838.031 54.9182 836.189 55.4352C834.68 55.9707 833.95 56.4715 832.827 56.9897C840.788 55.939 856.991 54.9041 852.823 54.1573C852.833 54.1565 852.842 54.1557 852.852 54.1549Z" fill="black"/>
<defs>
<linearGradient id="paint0_linear_154_10281" x1="749.786" y1="24.4378" x2="749.786" y2="445.79" gradientUnits="userSpaceOnUse">
<stop stop-color="#0C0C0C"/>
<stop offset="0.92605"/>
</linearGradient>
</defs>
</svg>
